{
.appVersion = "1286";
copyright = "Copyright © 2020 by Ethan Nakache. All rights reserved.";
customParameters = (
{
name = Axes;
value = (
{
Name = Width;
Tag = wdth;
},
{
Name = Weight;
Tag = wght;
}
);
},
{
name = LicenceURL;
value = "https://scripts.sil.org/cms/scripts/page.php?site_id=nrsi&id=ofl";
}
);
date = "2020-01-08 09:24:53 +0000";
designer = "Ethan Nakache";
familyName = Sprat;
featurePrefixes = (
{
automatic = 1;
code = "languagesystem DFLT dflt;\012";
name = Languagesystems;
}
);
features = (
{
automatic = 1;
code = "feature sups;\012feature frac;\012feature ordn;\012";
name = aalt;
},
{
automatic = 1;
code = "lookupflag IgnoreMarks;\012sub f f i by f_f_i.liga;\012sub f f by f_f.liga;\012sub f i by f_i.liga;\012sub f l by f_l.liga;\012";
name = liga;
}
);
fontMaster = (
{
alignmentZones = (
"{700, 15}",
"{500, 15}",
"{0, -15}",
"{-200, -15}"
);
ascender = 800;
capHeight = 700;
custom = Thin;
customParameters = (
{
name = parameterArea;
value = "465";
},
{
name = parameterDepth;
value = "17";
},
{
name = parameterOvershoot;
value = "0";
}
);
descender = -200;
guideLines = (
{
position = "{184, 755}";
},
{
position = "{75, 544}";
}
);
iconName = Light_Condensed;
id = "ECEC25EE-2268-427F-924A-A8A033D1E43A";
visible = 1;
width = Condensed;
widthValue = 10;
xHeight = 500;
},
{
alignmentZones = (
"{700, 15}",
"{500, 15}",
"{0, -15}",
"{-200, -15}"
);
ascender = 700;
capHeight = 700;
customParameters = (
{
name = parameterArea;
value = "420";
},
{
name = parameterDepth;
value = "17";
},
{
name = parameterOvershoot;
value = "0";
}
);
descender = -200;
guideLines = (
{
position = "{323, 756}";
}
);
iconName = SemiLight_Condensed;
id = "B6803316-6B37-45A2-910F-F0CA711B465A";
visible = 1;
width = Condensed;
xHeight = 500;
},
{
alignmentZones = (
"{700, 15}",
"{500, 15}",
"{0, -15}",
"{-200, -15}"
);
ascender = 800;
capHeight = 700;
custom = Black;
customParameters = (
{
name = parameterArea;
value = "305";
},
{
name = parameterDepth;
value = "17";
},
{

glyphs = (
{
glyphname = A;
lastChange = "2020-01-09 15:41:23 +0000";
layers = (
{
layerId = "B6803316-6B37-45A2-910F-F0CA711B465A";
paths = (
{
closed = 1;
nodes = (
"245 0 LINE",
"245 10 LINE",
"182 17 OFFCURVE",
"155 33 OFFCURVE",
"166 80 CURVE SMOOTH",
"186 157 LINE",
"369 157 LINE",
"391 84 LINE SMOOTH",
"406 33 OFFCURVE",
"381 17 OFFCURVE",
"316 10 CURVE",
"316 0 LINE",
"617 0 LINE",
"617 10 LINE",
"554 17 OFFCURVE",
"508 31 OFFCURVE",
"494 79 CURVE SMOOTH",
"309 715 LINE",
"304 715 LINE",
"139 82 LINE SMOOTH",
"127 36 OFFCURVE",
"82 17 OFFCURVE",
"18 10 CURVE",
"18 0 LINE"
);
},
{
closed = 1;
nodes = (
"273 489 LINE",
"362 182 LINE",
"193 182 LINE"
);
}
);
width = 635;
},
{
associatedMasterId = "B6803316-6B37-45A2-910F-F0CA711B465A";
layerId = "207B1338-1A9E-41C6-9A2A-66741B296B47";
name = "Feb 10 19, 17:59";
paths = (
{
closed = 1;
nodes = (
"499 0 LINE",
"287 716 LINE",
"240 504 LINE",
"390 0 LINE"
);
},
{
closed = 1;
nodes = (
"367 157 LINE",
"367 182 LINE",
"152 182 LINE",
"152 157 LINE"
);
},
{
closed = 1;
nodes = (
"127 0 LINE",
"300 658 LINE",
"287 716 LINE",
"100 0 LINE"
);
},
{
closed = 1;
nodes = (
"127 0 LINE",
"227 0 LINE",
"227 10 LINE",
"162 17 OFFCURVE",
"136 34 OFFCURVE",
"149 84 CURVE"
);
},
{
closed = 1;
nodes = (
"380 33 OFFCURVE",
"355 17 OFFCURVE",
"290 10 CURVE",
"290 0 LINE",
"390 0 LINE",
"365 84 LINE"
);
},
{
closed = 1;
nodes = (
"499 0 LINE",
"599 0 LINE",
"599 10 LINE",
"534 17 OFFCURVE",
"489 33 OFFCURVE",
"474 84 CURVE"
);
},
{
closed = 1;
nodes = (
"109 37 OFFCURVE",
"65 17 OFFCURVE",
"0 10 CURVE",
"0 0 LINE",
"100 0 LINE",
"122 84 LINE"
);
}
);
width = 599;
},
{
layerId = "1127FDDC-7967-4E0A-BDB2-81E1CCE90981";
paths = (
{
closed = 1;
nodes = (
"401 0 LINE",
"401 10 LINE",
"319 17 OFFCURVE",
"237 36 OFFCURVE",
"283 118 CURVE SMOOTH",
"332 200 LINE",
"801 200 LINE",
"852 117 LINE SMOOTH",
"895 40 OFFCURVE",
"815 17 OFFCURVE",
"733 10 CURVE",
"733 0 LINE",
"1199 0 LINE",
"1199 10 LINE",
"1116 17 OFFCURVE",
"1013 45 OFFCURVE",
"965 124 CURVE SMOOTH",
"610 715 LINE",
"605 715 LINE",
"249 118 LINE SMOOTH",
"198 33 OFFCURVE",
"101 17 OFFCURVE",
"18 10 CURVE",
"18 0 LINE"
);
},
{
closed = 1;
nodes = (
"566 592 LINE",
"786 225 LINE",
"347 225 LINE"
);
}
);
width = 1217;
},
{
associatedMasterId = "1127FDDC-7967-4E0A-BDB2-81E1CCE90981";
layerId = "BEAF720D-B44D-440D-A0F5-7A4B4E0C9663";
name = "Feb 10 19, 15:23";
paths = (
{
closed = 1;
nodes = (
"1058 0 LINE",
"623 715 LINE",
"571 599 LINE",
"935 0 LINE"
);
},
{
closed = 1;
nodes = (
"190 0 LINE",
"264 122 LINE",
"211 35 OFFCURVE",
"84 17 OFFCURVE",
"0 10 CURVE",
"0 0 LINE"
);
},
{
closed = 1;
nodes = (
"413 0 LINE",
"413 10 LINE",
"329 17 OFFCURVE",
"245 37 OFFCURVE",
"298 124 CURVE",
"223 0 LINE"
);
},
{
closed = 1;
nodes = (
"223 0 LINE",
"632 675 LINE",
"623 715 LINE",
"190 0 LINE"
);
},
{
closed = 1;
nodes = (
"829 200 LINE",
"829 225 LINE",
"338 225 LINE",
"338 200 LINE"
);
},
{
closed = 1;
nodes = (
"935 0 LINE",
"861 122 LINE",
"910 41 OFFCURVE",
"829 17 OFFCURVE",
"745 10 CURVE",
"745 0 LINE"
);
},
{
closed = 1;
nodes = (
"1247 0 LINE",
"1247 10 LINE",
"1163 17 OFFCURVE",
"1029 48 OFFCURVE",
"980 128 CURVE",
"1058 0 LINE"
);
}
);
width = 1247;
},
{
associatedMasterId = "1127FDDC-7967-4E0A-BDB2-81E1CCE90981";
backgroundImage = {
crop = "{{0, 0}, {612, 841.92}}";
imagePath = ../SCANS/Image005.jpg;
locked = "1";
transform = "{6.909, 0, 0, 6.909, -1615, -4820}";
};
layerId = "4920576D-CC1E-42BD-A1E6-DD2F5C005B13";
name = "Feb 9 19, 16:29";
paths = (
{
closed = 1;
nodes = (
"1058 0 LINE",
"623 715 LINE",
"571 599 LINE",
"935 0 LINE"
);
},
{
closed = 1;
nodes = (
"223 0 LINE",
"632 675 LINE",
"623 715 LINE",
"190 0 LINE"
);
},
{
closed = 1;
nodes = (
"338 200 LINE",
"829 200 LINE",
"829 225 LINE",
"338 225 LINE"
);
},
{
closed = 1;
nodes = (
"910 41 OFFCURVE",
"829 17 OFFCURVE",
"745 10 CURVE",
"745 0 LINE",
"935 0 LINE",
"861 122 LINE"
);
},
{
closed = 1;
nodes = (
"1058 0 LINE",
"1247 0 LINE",
"1247 10 LINE",
"1163 17 OFFCURVE",
"1029 48 OFFCURVE",
"980 128 CURVE"
);
},
{
closed = 1;
nodes = (
"211 35 OFFCURVE",
"84 17 OFFCURVE",
"0 10 CURVE",
"0 0 LINE",
"190 0 LINE",
"264 122 LINE"
);
},
{
closed = 1;
nodes = (
"223 0 LINE",
"413 0 LINE",
"413 10 LINE",
"329 17 OFFCURVE",
"245 37 OFFCURVE",
"298 124 CURVE"
);
}
);
width = 1247;
},
{
layerId = "ECEC25EE-2268-427F-924A-A8A033D1E43A";
paths = (
{
closed = 1;
nodes = (
"249 0 LINE",
"249 10 LINE",
"177 17 OFFCURVE",
"156 21 OFFCURVE",
"166 64 CURVE SMOOTH",
"193 167 LINE",
"434 167 LINE",
"466 62 LINE SMOOTH",
"475 20 OFFCURVE",
"446 17 OFFCURVE",
"384 10 CURVE",
"384 0 LINE",
"631 0 LINE",
"631 10 LINE",
"558 17 OFFCURVE",
"525 18 OFFCURVE",
"512 63 CURVE SMOOTH",
"321 715 LINE",
"316 715 LINE",
"148 63 LINE SMOOTH",
"137 21 OFFCURVE",
"93 17 OFFCURVE",
"31 10 CURVE",
"31 0 LINE"
);
},
{
closed = 1;
nodes = (
"306 603 LINE",
"430 182 LINE",
"197 182 LINE"
);
}
);
width = 662;
},
{
layerId = "52EA2D2A-A4E3-47AA-B963-53B6A9E26FA1";
paths = (
{
closed = 1;
nodes = (
"158 0 LINE",
"158 20 LINE",
"134 22 OFFCURVE",
"109 23 OFFCURVE",
"125 75 CURVE SMOOTH",
"147 137 LINE",
"295 137 LINE",
"316 77 LINE SMOOTH",
"332 25 OFFCURVE",
"308 22 OFFCURVE",
"284 20 CURVE",
"284 0 LINE",
"639 0 LINE",
"639 20 LINE",
"615 21 OFFCURVE",
"570 23 OFFCURVE",
"550 79 CURVE SMOOTH",
"322 715 LINE",
"312 715 LINE",
"87 73 LINE SMOOTH",
"69 21 OFFCURVE",
"25 22 OFFCURVE",
"1 20 CURVE",
"1 0 LINE"
);
},
{
closed = 1;
nodes = (
"220 347 LINE",
"282 172 LINE",
"160 172 LINE"
);
}
);
width = 640;
},
{
layerId = "C70D92E6-6044-4AAB-ADF3-B84826DC9CB7";
paths = (
{
closed = 1;
nodes = (
"358 0 LINE",
"358 10 LINE",
"262 17 OFFCURVE",
"201 18 OFFCURVE",
"251 103 CURVE SMOOTH",
"315 210 LINE",
"857 210 LINE",
"924 99 LINE SMOOTH",
"970 18 OFFCURVE",
"908 17 OFFCURVE",
"814 10 CURVE",
"814 0 LINE",
"1187 0 LINE",
"1187 10 LINE",
"1094 17 OFFCURVE",
"1033 17 OFFCURVE",
"979 96 CURVE",
"605 715 LINE",
"600 715 LINE",
"232 103 LINE SMOOTH",
"180 17 OFFCURVE",
"115 17 OFFCURVE",
"19 10 CURVE",
"19 0 LINE"
);
},
{
closed = 1;
nodes = (
"586 660 LINE",
"847 225 LINE",
"324 225 LINE"
);
}
);
width = 1206;
},
{
layerId = "92782D03-6C32-4A0E-AEF4-B0D65DFAA275";
paths = (
{
closed = 1;
nodes = (
"362 0 LINE",
"362 24 LINE",
"280 28 OFFCURVE",
"231 23 OFFCURVE",
"286 114 CURVE SMOOTH",
"334 189 LINE",
"637 189 LINE",
"679 119 LINE SMOOTH",
"736 24 OFFCURVE",
"687 31 OFFCURVE",
"604 24 CURVE",
"604 0 LINE",
"1213 0 LINE",
"1213 24 LINE",
"1130 31 OFFCURVE",
"1068 20 OFFCURVE",
"1009 117 CURVE SMOOTH",
"643 715 LINE",
"633 715 LINE",
"249 122 LINE SMOOTH",
"183 25 OFFCURVE",
"104 31 OFFCURVE",
"20 24 CURVE",
"20 0 LINE"
);
},
{
closed = 1;
nodes = (
"490 429 LINE",
"615 224 LINE",
"357 224 LINE"
);
}
);
width = 1233;
},
{
associatedMasterId = "ECEC25EE-2268-427F-924A-A8A033D1E43A";
layerId = "6E277FCC-2194-437D-A9D2-5E56334D9C1E";
name = "Mar 26 19, 14:50";
paths = (
{
closed = 1;
nodes = (
"500 0 LINE",
"288 716 LINE",
"270 616 LINE",
"453 0 LINE"
);
},
{
closed = 1;
nodes = (
"418 167 LINE",
"418 182 LINE",
"153 182 LINE",
"153 167 LINE"
);
},
{
closed = 1;
nodes = (
"118 0 LINE",
"291 658 LINE",
"288 716 LINE",
"101 0 LINE"
);
},
{
closed = 1;
nodes = (
"101 0 LINE",
"119 69 LINE",
"106 21 OFFCURVE",
"65 17 OFFCURVE",
"0 10 CURVE",
"0 0 LINE"
);
},
{
closed = 1;
nodes = (
"218 0 LINE",
"218 10 LINE",
"143 17 OFFCURVE",
"124 21 OFFCURVE",
"136 69 CURVE",
"118 0 LINE"
);
},
{
closed = 1;
nodes = (
"453 0 LINE",
"433 68 LINE",
"447 20 OFFCURVE",
"418 17 OFFCURVE",
"353 10 CURVE",
"353 0 LINE"
);
},
{
closed = 1;
nodes = (
"600 0 LINE",
"600 10 LINE",
"525 17 OFFCURVE",
"495 19 OFFCURVE",
"480 67 CURVE",
"500 0 LINE"
);
}
);
width = 600;
},
{
associatedMasterId = "52EA2D2A-A4E3-47AA-B963-53B6A9E26FA1";
layerId = "9773FB00-406F-44E7-A742-218BE6593DAA";
name = "Mar 26 19, 14:51";
paths = (
{
closed = 1;
nodes = (
"579 0 LINE",
"317 716 LINE",
"209 372 LINE",
"343 0 LINE"
);
},
{
closed = 1;
nodes = (
"367 137 LINE",
"367 172 LINE",
"122 172 LINE",
"122 137 LINE"
);
},
{
closed = 1;
nodes = (
"97 0 LINE",
"334 658 LINE",
"317 716 LINE",
"60 0 LINE"
);
},
{
closed = 1;
nodes = (
"579 0 LINE",
"639 0 LINE",
"639 10 LINE",
"614 17 OFFCURVE",
"571 26 OFFCURVE",
"548 84 CURVE"
);
},
{
closed = 1;
nodes = (
"97 0 LINE",
"157 0 LINE",
"157 10 LINE",
"132 17 OFFCURVE",
"106 24 OFFCURVE",
"126 81 CURVE"
);
},
{
closed = 1;
nodes = (
"68 23 OFFCURVE",
"25 17 OFFCURVE",
"0 10 CURVE",
"0 0 LINE",
"60 0 LINE",
"89 80 LINE"
);
},
{
closed = 1;
nodes = (
"333 26 OFFCURVE",
"308 17 OFFCURVE",
"283 10 CURVE",
"283 0 LINE",
"343 0 LINE",
"313 84 LINE"
);
}
);
width = 639;
},
{
associatedMasterId = "C70D92E6-6044-4AAB-ADF3-B84826DC9CB7";
layerId = "CB1E6052-97A0-4F68-866C-30D5F3EC08A6";
name = "Mar 27 19, 14:03";
paths = (
{
closed = 1;
nodes = (
"1038 0 LINE",
"603 715 LINE",
"585 659 LINE",
"985 0 LINE"
);
},
{
closed = 1;
nodes = (
"189 0 LINE",
"598 675 LINE",
"603 715 LINE",
"170 0 LINE"
);
},
{
closed = 1;
nodes = (
"889 210 LINE",
"889 225 LINE",
"318 225 LINE",
"318 210 LINE"
);
},
{
closed = 1;
nodes = (
"973 18 OFFCURVE",
"911 17 OFFCURVE",
"815 10 CURVE",
"815 0 LINE",
"985 0 LINE",
"922 104 LINE"
);
},
{
closed = 1;
nodes = (
"179 18 OFFCURVE",
"96 17 OFFCURVE",
"0 10 CURVE",
"0 0 LINE",
"170 0 LINE",
"233 104 LINE"
);
},
{
closed = 1;
nodes = (
"189 0 LINE",
"359 0 LINE",
"359 10 LINE",
"263 17 OFFCURVE",
"202 18 OFFCURVE",
"252 104 CURVE"
);
},
{
closed = 1;
nodes = (
"1038 0 LINE",
"1208 0 LINE",
"1208 10 LINE",
"1112 17 OFFCURVE",
"1029 17 OFFCURVE",
"975 103 CURVE"
);
}
);
width = 1208;
},
{
associatedMasterId = "92782D03-6C32-4A0E-AEF4-B0D65DFAA275";
layerId = "7EA9026A-0693-42D0-A483-BCA20D652A2F";
name = "Mar 27 19, 15:54";
paths = (
{
closed = 1;
nodes = (
"314 189 LINE",
"887 189 LINE",
"887 224 LINE",
"314 224 LINE"
);
},
{
closed = 1;
nodes = (
"231 125 LINE",
"165 25 OFFCURVE",
"85 21 OFFCURVE",
"0 14 CURVE",
"0 0 LINE",
"150 0 LINE"
);
},
{
closed = 1;
nodes = (
"1194 0 LINE",
"1194 14 LINE",
"1109 21 OFFCURVE",
"1051 24 OFFCURVE",
"985 124 CURVE",
"1063 0 LINE"
);
},
{
closed = 1;
nodes = (
"342 0 LINE",
"342 14 LINE",
"257 18 OFFCURVE",
"208 23 OFFCURVE",
"272 124 CURVE",
"192 0 LINE"
);
},
{
closed = 1;
nodes = (
"192 0 LINE",
"611 647 LINE",
"613 715 LINE",
"150 0 LINE"
);
},
{
closed = 1;
nodes = (
"654 124 LINE",
"716 24 OFFCURVE",
"667 21 OFFCURVE",
"582 14 CURVE",
"582 0 LINE",
"732 0 LINE"
);
},
{
closed = 1;
nodes = (
"1063 0 LINE",
"613 715 LINE",
"458 435 LINE",
"732 0 LINE"
);
}
);
width = 1194;
}
);
leftKerningGroup = A;
rightKerningGroup = A;
unicode = 0041;
},
{
glyphname = AE;
lastChange = "2020-01-08 17:59:04 +0000";
layers = (
{
layerId = "B6803316-6B37-45A2-910F-F0CA711B465A";
paths = (
{
closed = 1;
nodes = (
"820 0 LINE",
"820 225 LINE",
"810 225 LINE",
"803 126 OFFCURVE",
"760 25 OFFCURVE",
"667 25 CURVE SMOOTH",
"558 25 LINE",
"558 675 LINE",
"667 675 LINE SMOOTH",
"760 675 OFFCURVE",
"803 574 OFFCURVE",
"810 475 CURVE",
"820 475 LINE",
"820 700 LINE",
"358 700 LINE",
"358 690 LINE",
"423 683 OFFCURVE",
"458 664 OFFCURVE",
"458 616 CURVE SMOOTH",
"458 84 LINE SMOOTH",
"458 36 OFFCURVE",
"423 17 OFFCURVE",
"358 10 CURVE",
"358 0 LINE"
);
},
{
closed = 1;
nodes = (
"248 0 LINE",
"248 10 LINE",
"186 17 OFFCURVE",
"166 35 OFFCURVE",
"187 77 CURVE SMOOTH",
"466 632 LINE",
"459 681 LINE",
"157 80 LINE SMOOTH",
"136 37 OFFCURVE",
"81 17 OFFCURVE",
"18 10 CURVE",
"18 0 LINE"
);
},
{
closed = 1;
nodes = (
"757 190 LINE",
"652 500 LINE",
"642 497 LINE",
"664 416 OFFCURVE",
"647 380 OFFCURVE",
"567 380 CURVE SMOOTH",
"310 380 LINE",
"310 355 LINE",
"567 355 LINE SMOOTH",
"638 355 OFFCURVE",
"718 261 OFFCURVE",
"747 187 CURVE"
);
}
);
width = 900;
},
{
layerId = "1127FDDC-7967-4E0A-BDB2-81E1CCE90981";
paths = (
{
closed = 1;
nodes = (
"1476 0 LINE",
"1476 245 LINE",
"1466 245 LINE",
"1459 125 OFFCURVE",
"1400 25 OFFCURVE",
"1263 25 CURVE SMOOTH",
"894 25 LINE",
"894 675 LINE",
"1263 675 LINE SMOOTH",
"1400 675 OFFCURVE",
"1459 574 OFFCURVE",
"1466 455 CURVE",
"1476 455 LINE",
"1476 700 LINE",
"604 700 LINE",
"604 690 LINE",
"687 683 OFFCURVE",
"794 663 OFFCURVE",
"794 576 CURVE SMOOTH",
"794 124 LINE SMOOTH",
"794 37 OFFCURVE",
"688 17 OFFCURVE",
"604 10 CURVE",
"604 0 LINE"
);
},
{
closed = 1;
nodes = (
"450 0 LINE",
"450 10 LINE",
"368 17 OFFCURVE",
"269 48 OFFCURVE",
"332 118 CURVE SMOOTH",
"834 675 LINE",
"819 700 LINE",
"295 118 LINE SMOOTH",
"227 43 OFFCURVE",
"127 17 OFFCURVE",
"44 10 CURVE",
"44 0 LINE"
);
},
{
closed = 1;
nodes = (
"1352 207 LINE",
"1238 550 LINE",
"1228 547 LINE",
"1246 466 OFFCURVE",
"1224 430 OFFCURVE",
"1143 430 CURVE SMOOTH",
"589 430 LINE",
"589 405 LINE",
"1143 405 LINE SMOOTH",
"1218 405 OFFCURVE",
"1285 345 OFFCURVE",
"1342 204 CURVE"
);
}
);
width = 1579;
},
{
associatedMasterId = "1127FDDC-7967-4E0A-BDB2-81E1CCE90981";
layerId = "CB880602-B7F3-4A4D-9A0F-330DC9B57DE9";
name = "Feb 26 19, 12:12";
paths = (
{
closed = 1;
nodes = (
"482 335 LINE",
"1099 335 LINE SMOOTH",
"1174 335 OFFCURVE",
"1241 275 OFFCURVE",
"1298 134 CURVE",
"1308 137 LINE",
"1194 480 LINE",
"1184 477 LINE",
"1202 396 OFFCURVE",
"1180 360 OFFCURVE",
"1099 360 CURVE SMOOTH",
"482 360 LINE"
);
},
{
closed = 1;
nodes = (
"790 675 LINE",
"775 700 LINE",
"251 118 LINE SMOOTH",
"183 43 OFFCURVE",
"83 17 OFFCURVE",
"0 10 CURVE",
"0 0 LINE",
"403 0 LINE",
"403 10 LINE",
"321 17 OFFCURVE",
"239 36 OFFCURVE",
"285 118 CURVE"
);
},
{
closed = 1;
nodes = (
"850 675 LINE",
"1219 675 LINE SMOOTH",
"1356 675 OFFCURVE",
"1415 574 OFFCURVE",
"1422 455 CURVE",
"1432 455 LINE",
"1432 700 LINE",
"560 700 LINE",
"560 690 LINE",
"643 683 OFFCURVE",
"750 663 OFFCURVE",
"750 576 CURVE SMOOTH",
"750 124 LINE SMOOTH",
"750 37 OFFCURVE",
"644 17 OFFCURVE",
"560 10 CURVE",
"560 0 LINE",
"1432 0 LINE",
"1432 245 LINE",
"1422 245 LINE",
"1415 125 OFFCURVE",
"1356 25 OFFCURVE",
"1219 25 CURVE SMOOTH",
"850 25 LINE"
);
}
);
width = 1582;
},
{
associatedMasterId = "B6803316-6B37-45A2-910F-F0CA711B465A";
layerId = "F86BDDF6-300B-495C-90D6-1594323B0FC1";
name = "Mar 4 19, 14:45";
paths = (
{
closed = 1;
nodes = (
"802 0 LINE",
"802 225 LINE",
"792 225 LINE",
"785 126 OFFCURVE",
"742 25 OFFCURVE",
"649 25 CURVE SMOOTH",
"540 25 LINE",
"540 675 LINE",
"649 675 LINE SMOOTH",
"742 675 OFFCURVE",
"785 574 OFFCURVE",
"792 475 CURVE",
"802 475 LINE",
"802 700 LINE",
"340 700 LINE",
"340 690 LINE",
"405 683 OFFCURVE",
"440 664 OFFCURVE",
"440 616 CURVE SMOOTH",
"440 84 LINE SMOOTH",
"440 36 OFFCURVE",
"405 17 OFFCURVE",
"340 10 CURVE",
"340 0 LINE"
);
},
{
closed = 1;
nodes = (
"230 0 LINE",
"230 10 LINE",
"168 17 OFFCURVE",
"148 35 OFFCURVE",
"169 77 CURVE SMOOTH",
"448 632 LINE",
"441 681 LINE",
"139 80 LINE SMOOTH",
"118 37 OFFCURVE",
"63 17 OFFCURVE",
"0 10 CURVE",
"0 0 LINE"
);
},
{
closed = 1;
nodes = (
"739 190 LINE",
"634 500 LINE",
"624 497 LINE",
"646 416 OFFCURVE",
"629 380 OFFCURVE",
"549 380 CURVE SMOOTH",
"289 380 LINE",
"289 355 LINE",
"549 355 LINE SMOOTH",
"620 355 OFFCURVE",
"700 261 OFFCURVE",
"729 187 CURVE"
);
}
);
width = 842;
},
{
layerId = "52EA2D2A-A4E3-47AA-B963-53B6A9E26FA1";
paths = (
{
closed = 1;
nodes = (
"922 0 LINE",
"922 245 LINE",
"902 245 LINE",
"895 156 OFFCURVE",
"872 25 OFFCURVE",
"709 25 CURVE SMOOTH",
"660 25 LINE",
"660 675 LINE",
"709 675 LINE SMOOTH",
"872 675 OFFCURVE",
"895 544 OFFCURVE",
"902 455 CURVE",
"922 455 LINE",
"922 700 LINE",
"380 700 LINE",
"380 680 LINE",
"405 679 OFFCURVE",
"440 674 OFFCURVE",
"440 616 CURVE SMOOTH",
"440 84 LINE SMOOTH",
"440 26 OFFCURVE",
"405 21 OFFCURVE",
"380 20 CURVE",
"380 0 LINE"
);
},
{
closed = 1;
nodes = (
"160 0 LINE",
"160 20 LINE",
"136 22 OFFCURVE",
"101 31 OFFCURVE",
"127 75 CURVE SMOOTH",
"445 599 LINE",
"445 667 LINE",
"85 73 LINE SMOOTH",
"57 26 OFFCURVE",
"23 22 OFFCURVE",
"-1 20 CURVE",
"-1 0 LINE"
);
},
{
closed = 1;
nodes = (
"859 199 LINE",
"754 509 LINE",
"736 506 LINE",
"748 430 OFFCURVE",
"729 389 OFFCURVE",
"669 389 CURVE SMOOTH",
"299 389 LINE",
"286 354 LINE",
"669 354 LINE SMOOTH",
"720 354 OFFCURVE",
"796 294 OFFCURVE",
"841 196 CURVE"
);
}
);
width = 984;
},
{
layerId = "ECEC25EE-2268-427F-924A-A8A033D1E43A";
paths = (
{
closed = 1;
nodes = (
"841 0 LINE",
"841 214 LINE",
"831 214 LINE",
"825 76 OFFCURVE",
"805 23 OFFCURVE",
"714 15 CURVE",
"524 15 LINE",
"524 685 LINE",
"688 685 LINE SMOOTH",
"801 685 OFFCURVE",
"824 635 OFFCURVE",
"831 485 CURVE",
"841 485 LINE",
"841 700 LINE",
"379 700 LINE",
"379 690 LINE",
"445 683 OFFCURVE",
"479 679 OFFCURVE",
"479 631 CURVE SMOOTH",
"479 69 LINE SMOOTH",
"479 21 OFFCURVE",
"444 17 OFFCURVE",
"379 10 CURVE",
"379 0 LINE"
);
},
{
closed = 1;
nodes = (
"256 0 LINE",
"256 10 LINE",
"184 17 OFFCURVE",
"152 24 OFFCURVE",
"173 64 CURVE SMOOTH",
"482 653 LINE",
"482 686 LINE",
"155 63 LINE SMOOTH",
"133 22 OFFCURVE",
"100 17 OFFCURVE",
"38 10 CURVE",
"38 0 LINE"
);
},
{
closed = 1;
nodes = (
"778 180 LINE",
"673 490 LINE",
"663 487 LINE",
"690 370 OFFCURVE",
"673 370 OFFCURVE",
"533 370 CURVE SMOOTH",
"322 370 LINE",
"318 355 LINE",
"533 355 LINE SMOOTH",
"674 355 OFFCURVE",
"699 348 OFFCURVE",
"768 177 CURVE"
);
}
);
width = 935;
},
{
layerId = "92782D03-6C32-4A0E-AEF4-B0D65DFAA275";
paths = (
{
closed = 1;
nodes = (
"1556 0 LINE",
"1556 245 LINE",
"1536 245 LINE",
"1529 125 OFFCURVE",
"1450 35 OFFCURVE",
"1283 35 CURVE SMOOTH",
"1054 35 LINE",
"1054 665 LINE",
"1283 665 LINE SMOOTH",
"1450 665 OFFCURVE",
"1529 574 OFFCURVE",
"1536 455 CURVE",
"1556 455 LINE",
"1556 700 LINE",
"624 700 LINE",
"624 676 LINE",
"710 669 OFFCURVE",
"774 676 OFFCURVE",
"774 576 CURVE SMOOTH",
"774 124 LINE SMOOTH",
"774 24 OFFCURVE",
"710 31 OFFCURVE",
"624 24 CURVE",
"624 0 LINE"
);
},
{
closed = 1;
nodes = (
"362 0 LINE",
"362 24 LINE",
"280 28 OFFCURVE",
"211 37 OFFCURVE",
"286 114 CURVE SMOOTH",
"792 635 LINE",
"771 668 LINE",
"249 122 LINE SMOOTH",
"168 38 OFFCURVE",
"104 31 OFFCURVE",
"20 24 CURVE",
"20 0 LINE"
);
},
{
closed = 1;
nodes = (
"1342 201 LINE",
"1228 544 LINE",
"1210 541 LINE",
"1220 469 OFFCURVE",
"1204 424 OFFCURVE",
"1121 424 CURVE SMOOTH",
"541 424 LINE",
"518 389 LINE",
"1121 389 LINE SMOOTH",
"1198 389 OFFCURVE",
"1270 319 OFFCURVE",
"1324 198 CURVE"
);
}
);
width = 1634;
},
{
layerId = "C70D92E6-6044-4AAB-ADF3-B84826DC9CB7";
paths = (
{
closed = 1;
nodes = (
"1425 0 LINE",
"1425 244 LINE",
"1415 244 LINE",
"1409 106 OFFCURVE",
"1389 23 OFFCURVE",
"1298 15 CURVE",
"737 15 LINE",
"737 685 LINE",
"1272 685 LINE SMOOTH",
"1385 685 OFFCURVE",
"1408 605 OFFCURVE",
"1415 455 CURVE",
"1425 455 LINE",
"1425 700 LINE",
"522 700 LINE",
"522 690 LINE",
"618 683 OFFCURVE",
"692 682 OFFCURVE",
"692 596 CURVE SMOOTH",
"692 104 LINE SMOOTH",
"692 18 OFFCURVE",
"618 17 OFFCURVE",
"522 10 CURVE",
"522 0 LINE"
);
},
{
closed = 1;
nodes = (
"339 0 LINE",
"339 10 LINE",
"243 17 OFFCURVE",
"163 30 OFFCURVE",
"232 103 CURVE SMOOTH",
"719 618 LINE",
"707 629 LINE",
"213 103 LINE SMOOTH",
"143 29 OFFCURVE",
"96 17 OFFCURVE",
"0 10 CURVE",
"0 0 LINE"
);
},
{
closed = 1;
nodes = (
"1202 200 LINE",
"1097 510 LINE",
"1087 507 LINE",
"1110 407 OFFCURVE",
"1101 390 OFFCURVE",
"1010 390 CURVE SMOOTH",
"484 390 LINE",
"475 375 LINE",
"1010 374 LINE SMOOTH",
"1106 374 OFFCURVE",
"1132 343 OFFCURVE",
"1192 197 CURVE"
);
}
);
width = 1533;
}
);
leftKerningGroup = A;
rightKerningGroup = E;
unicode = 00C6;
},
{
glyphname = B;
lastChange = "2020-01-08 17:52:28 +0000";
layers = (
{
layerId = "B6803316-6B37-45A2-910F-F0CA711B465A";
paths = (
{
closed = 1;
nodes = (
"405 497 OFFCURVE",
"460 534 OFFCURVE",
"460 588 CURVE SMOOTH",
"460 656 OFFCURVE",
"409 700 OFFCURVE",
"287 700 CURVE SMOOTH",
"25 700 LINE",
"25 690 LINE",
"90 683 OFFCURVE",
"125 664 OFFCURVE",
"125 616 CURVE SMOOTH",
"125 84 LINE SMOOTH",
"125 36 OFFCURVE",
"90 17 OFFCURVE",
"25 10 CURVE",
"25 0 LINE",
"276 0 LINE SMOOTH",
"451 0 OFFCURVE",
"496 112 OFFCURVE",
"496 250 CURVE SMOOTH",
"496 360 OFFCURVE",
"441 475 OFFCURVE",
"335 487 CURVE"
);
},
{
closed = 1;
nodes = (
"341 675 OFFCURVE",
"360 627 OFFCURVE",
"360 587 CURVE SMOOTH",
"360 547 OFFCURVE",
"344 500 OFFCURVE",
"251 500 CURVE SMOOTH",
"220 500 LINE",
"220 675 LINE",
"251 675 LINE SMOOTH"
);
},
{
closed = 1;
nodes = (
"220 25 LINE",
"220 475 LINE",
"241 475 LINE SMOOTH",
"383 475 OFFCURVE",
"396 352 OFFCURVE",
"396 243 CURVE SMOOTH",
"396 122 OFFCURVE",
"383 25 OFFCURVE",
"241 25 CURVE SMOOTH"
);
}
);
width = 560;
},
{
layerId = "52EA2D2A-A4E3-47AA-B963-53B6A9E26FA1";
paths = (
{
closed = 1;
nodes = (
"586 491 OFFCURVE",
"627 522 OFFCURVE",
"627 581 CURVE SMOOTH",
"627 641 OFFCURVE",
"565 700 OFFCURVE",
"445 700 CURVE SMOOTH",
"25 700 LINE",
"25 680 LINE",
"50 679 OFFCURVE",
"85 674 OFFCURVE",
"85 616 CURVE SMOOTH",
"85 84 LINE SMOOTH",
"85 26 OFFCURVE",
"50 21 OFFCURVE",
"25 20 CURVE",
"25 0 LINE",
"415 0 LINE SMOOTH",
"579 0 OFFCURVE",
"660 125 OFFCURVE",
"660 250 CURVE SMOOTH",
"660 356 OFFCURVE",
"602 451 OFFCURVE",
"510 476 CURVE"
);
},
{
closed = 1;
nodes = (
"376 665 OFFCURVE",
"401 625 OFFCURVE",
"401 584 CURVE SMOOTH",
"401 542 OFFCURVE",
"375 500 OFFCURVE",
"324 500 CURVE SMOOTH",
"305 500 LINE",
"305 665 LINE",
"324 665 LINE SMOOTH"
);
},
{
closed = 1;
nodes = (
"305 25 LINE",
"305 464 LINE",
"314 464 LINE SMOOTH",
"393 464 OFFCURVE",
"435 352 OFFCURVE",
"435 240 CURVE SMOOTH",
"435 132 OFFCURVE",
"395 25 OFFCURVE",
"314 25 CURVE SMOOTH"
);
}
);
width = 694;
},
{
layerId = "ECEC25EE-2268-427F-924A-A8A033D1E43A";
paths = (
{
closed = 1;
nodes = (
"440 498 OFFCURVE",
"501 545 OFFCURVE",
"501 592 CURVE SMOOTH",
"501 646 OFFCURVE",
"445 700 OFFCURVE",
"336 700 CURVE SMOOTH",
"44 700 LINE",
"44 690 LINE",
"120 683 OFFCURVE",
"144 679 OFFCURVE",
"144 631 CURVE SMOOTH",
"144 69 LINE SMOOTH",
"144 21 OFFCURVE",
"119 17 OFFCURVE",
"44 10 CURVE",
"44 0 LINE",
"294 0 LINE SMOOTH",
"486 0 OFFCURVE",
"539 127 OFFCURVE",
"539 253 CURVE SMOOTH",
"539 354 OFFCURVE",
"467 461 OFFCURVE",
"359 487 CURVE"
);
},
{
closed = 1;
nodes = (
"410 685 OFFCURVE",
"454 636 OFFCURVE",
"454 589 CURVE SMOOTH",
"454 544 OFFCURVE",
"410 500 OFFCURVE",
"306 500 CURVE SMOOTH",
"189 500 LINE",
"189 685 LINE",
"296 685 LINE SMOOTH"
);
},
{
closed = 1;
nodes = (
"189 15 LINE",
"189 485 LINE",
"271 485 LINE SMOOTH",
"415 485 OFFCURVE",
"489 365 OFFCURVE",
"489 247 CURVE SMOOTH",
"489 130 OFFCURVE",
"448 15 OFFCURVE",
"271 15 CURVE SMOOTH"
);
}
);
width = 612;
},
{
layerId = "C70D92E6-6044-4AAB-ADF3-B84826DC9CB7";
paths = (
{
closed = 1;
nodes = (
"934 420 OFFCURVE",
"1008 477 OFFCURVE",
"1008 555 CURVE SMOOTH",
"1008 643 OFFCURVE",
"903 700 OFFCURVE",
"773 700 CURVE SMOOTH",
"54 700 LINE",
"54 690 LINE",
"150 683 OFFCURVE",
"224 682 OFFCURVE",
"224 596 CURVE SMOOTH",
"224 104 LINE SMOOTH",
"224 18 OFFCURVE",
"150 17 OFFCURVE",
"54 10 CURVE",
"54 0 LINE",
"762 1 LINE SMOOTH",
"946 1 OFFCURVE",
"1034 111 OFFCURVE",
"1034 218 CURVE SMOOTH",
"1034 314 OFFCURVE",
"964 407 OFFCURVE",
"819 421 CURVE"
);
},
{
closed = 1;
nodes = (
"892 685 OFFCURVE",
"958 630 OFFCURVE",
"958 556 CURVE SMOOTH",
"958 482 OFFCURVE",
"894 429 OFFCURVE",
"761 429 CURVE SMOOTH",
"269 429 LINE",
"269 685 LINE",
"761 685 LINE SMOOTH"
);
},
{
closed = 1;
nodes = (
"269 15 LINE",
"269 414 LINE",
"741 414 LINE SMOOTH",
"902 414 OFFCURVE",
"984 335 OFFCURVE",
"984 215 CURVE SMOOTH",
"984 96 OFFCURVE",
"902 16 OFFCURVE",
"741 16 CURVE SMOOTH"
);
}
);
width = 1113;
},
{
layerId = "92782D03-6C32-4A0E-AEF4-B0D65DFAA275";
paths = (
{
closed = 1;
nodes = (
"916 429 OFFCURVE",
"1000 471 OFFCURVE",
"1000 558 CURVE SMOOTH",
"1000 629 OFFCURVE",
"947 700 OFFCURVE",
"716 700 CURVE SMOOTH",
"27 700 LINE",
"27 676 LINE",
"113 669 OFFCURVE",
"177 676 OFFCURVE",
"177 576 CURVE SMOOTH",
"177 124 LINE SMOOTH",
"177 24 OFFCURVE",
"113 31 OFFCURVE",
"27 24 CURVE",
"27 0 LINE",
"729 1 LINE SMOOTH",
"979 2 OFFCURVE",
"1038 96 OFFCURVE",
"1038 211 CURVE SMOOTH",
"1038 326 OFFCURVE",
"927 420 OFFCURVE",
"794 421 CURVE"
);
},
{
closed = 1;
nodes = (
"661 665 OFFCURVE",
"715 609 OFFCURVE",
"715 552 CURVE SMOOTH",
"715 495 OFFCURVE",
"660 438 OFFCURVE",
"551 438 CURVE SMOOTH",
"457 438 LINE",
"457 665 LINE",
"551 665 LINE SMOOTH"
);
},
{
closed = 1;
nodes = (
"457 35 LINE",
"457 403 LINE",
"490 403 LINE SMOOTH",
"659 403 OFFCURVE",
"753 332 OFFCURVE",
"753 221 CURVE SMOOTH",
"753 110 OFFCURVE",
"659 35 OFFCURVE",
"490 35 CURVE SMOOTH"
);
}
);
width = 1084;
},
{
associatedMasterId = "B6803316-6B37-45A2-910F-F0CA711B465A";
layerId = "C1D90355-4D85-471B-809B-E2522710E599";
name = "Mar 28 19, 14:27";
paths = (
{
closed = 1;
nodes = (
"291 0 LINE SMOOTH",
"466 0 OFFCURVE",
"516 112 OFFCURVE",
"516 250 CURVE SMOOTH",
"516 361 OFFCURVE",
"457 477 OFFCURVE",
"350 487 CURVE",
"420 497 OFFCURVE",
"480 534 OFFCURVE",
"480 588 CURVE SMOOTH",
"480 656 OFFCURVE",
"424 700 OFFCURVE",
"302 700 CURVE SMOOTH",
"224 700 LINE",
"224 675 LINE",
"266 675 LINE SMOOTH",
"356 675 OFFCURVE",
"375 627 OFFCURVE",
"375 587 CURVE SMOOTH",
"375 547 OFFCURVE",
"359 500 OFFCURVE",
"266 500 CURVE SMOOTH",
"214 500 LINE",
"214 475 LINE",
"256 475 LINE SMOOTH",
"398 475 OFFCURVE",
"411 352 OFFCURVE",
"411 243 CURVE SMOOTH",
"411 122 OFFCURVE",
"398 25 OFFCURVE",
"256 25 CURVE SMOOTH",
"219 25 LINE",
"219 0 LINE"
);
},
{
closed = 1;
nodes = (
"140 0 LINE",
"140 84 LINE",
"140 36 OFFCURVE",
"105 17 OFFCURVE",
"40 10 CURVE",
"40 0 LINE"
);
},
{
closed = 1;
nodes = (
"240 0 LINE",
"240 700 LINE",
"140 700 LINE",
"140 0 LINE"
);
},
{
closed = 1;
nodes = (
"140 700 LINE",
"40 700 LINE",
"40 690 LINE",
"105 683 OFFCURVE",
"140 664 OFFCURVE",
"140 616 CURVE"
);
}
);
width = 556;
},
{
associatedMasterId = "ECEC25EE-2268-427F-924A-A8A033D1E43A";
layerId = "473445BB-1801-4E6C-AA8D-7E3221CBDC00";
name = "Mar 28 19, 14:30";
paths = (
{
closed = 1;
nodes = (
"50 700 LINE",
"50 690 LINE",
"126 683 OFFCURVE",
"150 679 OFFCURVE",
"150 631 CURVE SMOOTH",
"150 69 LINE SMOOTH",
"150 21 OFFCURVE",
"125 17 OFFCURVE",
"50 10 CURVE",
"50 0 LINE",
"195 0 LINE",
"195 485 LINE",
"342 485 LINE SMOOTH",
"451 485 OFFCURVE",
"507 538 OFFCURVE",
"507 592 CURVE SMOOTH",
"507 646 OFFCURVE",
"451 700 OFFCURVE",
"342 700 CURVE SMOOTH"
);
},
{
closed = 1;
nodes = (
"416 685 OFFCURVE",
"460 636 OFFCURVE",
"460 589 CURVE SMOOTH",
"460 544 OFFCURVE",
"416 500 OFFCURVE",
"312 500 CURVE SMOOTH",
"195 500 LINE",
"195 685 LINE",
"302 685 LINE SMOOTH"
);
},
{
closed = 1;
nodes = (
"300 0 LINE SMOOTH",
"492 0 OFFCURVE",
"545 127 OFFCURVE",
"545 253 CURVE SMOOTH",
"545 377 OFFCURVE",
"464 500 OFFCURVE",
"300 500 CURVE SMOOTH",
"185 500 LINE",
"185 485 LINE",
"277 485 LINE SMOOTH",
"421 485 OFFCURVE",
"495 365 OFFCURVE",
"495 247 CURVE SMOOTH",
"495 130 OFFCURVE",
"454 15 OFFCURVE",
"277 15 CURVE SMOOTH",
"190 15 LINE",
"190 0 LINE"
);
}
);
width = 600;
},
{
associatedMasterId = "52EA2D2A-A4E3-47AA-B963-53B6A9E26FA1";
layerId = "82AAAEB2-262F-4C5B-8EB9-6D51530B4646";
name = "Mar 28 19, 14:51";
paths = (
{
closed = 1;
nodes = (
"15 700 LINE",
"15 690 LINE",
"40 683 OFFCURVE",
"75 674 OFFCURVE",
"75 616 CURVE SMOOTH",
"75 84 LINE SMOOTH",
"75 26 OFFCURVE",
"40 17 OFFCURVE",
"15 10 CURVE",
"15 0 LINE",
"295 0 LINE",
"295 464 LINE",
"435 464 LINE SMOOTH",
"566 464 OFFCURVE",
"617 523 OFFCURVE",
"617 581 CURVE SMOOTH",
"617 641 OFFCURVE",
"555 700 OFFCURVE",
"435 700 CURVE SMOOTH"
);
},
{
closed = 1;
nodes = (
"366 665 OFFCURVE",
"391 625 OFFCURVE",
"391 584 CURVE SMOOTH",
"391 542 OFFCURVE",
"365 500 OFFCURVE",
"314 500 CURVE SMOOTH",
"295 500 LINE",
"295 665 LINE",
"314 665 LINE SMOOTH"
);
},
{
closed = 1;
nodes = (
"405 0 LINE SMOOTH",
"569 0 OFFCURVE",
"650 125 OFFCURVE",
"650 250 CURVE SMOOTH",
"650 375 OFFCURVE",
"569 499 OFFCURVE",
"405 499 CURVE SMOOTH",
"286 499 LINE",
"286 464 LINE",
"304 464 LINE SMOOTH",
"383 464 OFFCURVE",
"425 352 OFFCURVE",
"425 240 CURVE SMOOTH",
"425 132 OFFCURVE",
"385 25 OFFCURVE",
"304 25 CURVE SMOOTH",
"285 25 LINE",
"285 0 LINE"
);
}
);
width = 690;
},
{
associatedMasterId = "92782D03-6C32-4A0E-AEF4-B0D65DFAA275";
layerId = "168ED5E1-BF96-4F59-ADC2-AF20C6EAC0B9";
name = "Mar 28 19, 15:09";
paths = (
{
closed = 1;
nodes = (
"450 700 LINE",
"20 700 LINE",
"20 686 LINE",
"106 679 OFFCURVE",
"170 676 OFFCURVE",
"170 576 CURVE SMOOTH",
"170 124 LINE SMOOTH",
"170 24 OFFCURVE",
"106 21 OFFCURVE",
"20 14 CURVE",
"20 0 LINE",
"450 0 LINE"
);
},
{
closed = 1;
nodes = (
"722 1 LINE SMOOTH",
"972 2 OFFCURVE",
"1031 104 OFFCURVE",
"1031 209 CURVE SMOOTH",
"1031 327 OFFCURVE",
"920 420 OFFCURVE",
"787 421 CURVE",
"909 429 OFFCURVE",
"993 471 OFFCURVE",
"993 558 CURVE SMOOTH",
"993 629 OFFCURVE",
"940 700 OFFCURVE",
"709 700 CURVE SMOOTH",
"404 700 LINE",
"404 665 LINE",
"544 665 LINE SMOOTH",
"654 665 OFFCURVE",
"708 609 OFFCURVE",
"708 552 CURVE SMOOTH",
"708 495 OFFCURVE",
"653 438 OFFCURVE",
"544 438 CURVE SMOOTH",
"394 438 LINE",
"394 403 LINE",
"483 403 LINE SMOOTH",
"652 403 OFFCURVE",
"746 332 OFFCURVE",
"746 221 CURVE SMOOTH",
"746 110 OFFCURVE",
"652 35 OFFCURVE",
"483 35 CURVE SMOOTH",
"394 35 LINE",
"394 0 LINE"
);
}
);
width = 1081;
},
{
associatedMasterId = "C70D92E6-6044-4AAB-ADF3-B84826DC9CB7";
layerId = "9CCFDAE1-A62F-4256-8583-B2C2625E7BEA";
name = "Mar 28 19, 15:09";
paths = (
{
closed = 1;
nodes = (
"265 700 LINE",
"50 700 LINE",
"50 690 LINE",
"146 683 OFFCURVE",
"220 682 OFFCURVE",
"220 596 CURVE SMOOTH",
"220 104 LINE SMOOTH",
"220 18 OFFCURVE",
"146 17 OFFCURVE",
"50 10 CURVE",
"50 0 LINE",
"265 0 LINE"
);
},
{
closed = 1;
nodes = (
"758 1 LINE SMOOTH",
"942 1 OFFCURVE",
"1030 111 OFFCURVE",
"1030 218 CURVE SMOOTH",
"1030 314 OFFCURVE",
"960 407 OFFCURVE",
"815 421 CURVE",
"930 420 OFFCURVE",
"1004 477 OFFCURVE",
"1004 555 CURVE SMOOTH",
"1004 643 OFFCURVE",
"899 700 OFFCURVE",
"769 700 CURVE SMOOTH",
"244 700 LINE",
"244 685 LINE",
"757 685 LINE SMOOTH",
"888 685 OFFCURVE",
"954 630 OFFCURVE",
"954 556 CURVE SMOOTH",
"954 482 OFFCURVE",
"890 429 OFFCURVE",
"757 429 CURVE SMOOTH",
"234 429 LINE",
"234 414 LINE",
"737 414 LINE SMOOTH",
"898 414 OFFCURVE",
"980 335 OFFCURVE",
"980 215 CURVE SMOOTH",
"980 96 OFFCURVE",
"898 16 OFFCURVE",
"737 16 CURVE SMOOTH",
"234 15 LINE",
"234 0 LINE"
);
}
);
width = 1120;
},
{
associatedMasterId = "1127FDDC-7967-4E0A-BDB2-81E1CCE90981";
layerId = "4CBAC4AD-CFC5-437A-BA16-ED3534FA3977";
name = "Mar 28 19, 15:10";
paths = (
{
closed = 1;
nodes = (
"732 1 LINE SMOOTH",
"929 2 OFFCURVE",
"1041 97 OFFCURVE",
"1041 217 CURVE SMOOTH",
"1041 314 OFFCURVE",
"963 387 OFFCURVE",
"807 421 CURVE",
"914 430 OFFCURVE",
"998 481 OFFCURVE",
"998 554 CURVE SMOOTH",
"998 626 OFFCURVE",
"943 700 OFFCURVE",
"719 700 CURVE SMOOTH",
"314 700 LINE",
"314 675 LINE",
"657 675 LINE SMOOTH",
"855 675 OFFCURVE",
"894 616 OFFCURVE",
"894 556 CURVE SMOOTH",
"894 496 OFFCURVE",
"854 436 OFFCURVE",
"657 436 CURVE SMOOTH",
"304 436 LINE",
"304 411 LINE",
"673 411 LINE SMOOTH",
"846 411 OFFCURVE",
"931 315 OFFCURVE",
"931 218 CURVE SMOOTH",
"931 123 OFFCURVE",
"846 27 OFFCURVE",
"673 26 CURVE SMOOTH",
"304 25 LINE",
"304 0 LINE"
);
},
{
closed = 1;
nodes = (
"230 0 LINE",
"230 124 LINE",
"230 37 OFFCURVE",
"124 17 OFFCURVE",
"40 10 CURVE",
"40 0 LINE"
);
},
{
closed = 1;
nodes = (
"330 0 LINE",
"330 700 LINE",
"230 700 LINE",
"230 0 LINE"
);
},
{
closed = 1;
nodes = (
"230 700 LINE",
"40 700 LINE",
"40 690 LINE",
"124 683 OFFCURVE",
"230 663 OFFCURVE",
"230 576 CURVE"
);
}
);
width = 1101;
},
{
associatedMasterId = "1127FDDC-7967-4E0A-BDB2-81E1CCE90981";
layerId = "15A2FA70-C509-4BA9-B677-305654A27081";
name = "May 18 19, 18:00";
paths = (
{
closed = 1;
nodes = (
"914 430 OFFCURVE",
"998 481 OFFCURVE",
"998 554 CURVE SMOOTH",
"998 626 OFFCURVE",
"943 700 OFFCURVE",
"719 700 CURVE SMOOTH",
"40 700 LINE",
"40 690 LINE",
"124 683 OFFCURVE",
"230 663 OFFCURVE",
"230 576 CURVE SMOOTH",
"230 124 LINE SMOOTH",
"230 37 OFFCURVE",
"124 17 OFFCURVE",
"40 10 CURVE",
"40 0 LINE",
"732 1 LINE SMOOTH",
"929 2 OFFCURVE",
"1041 97 OFFCURVE",
"1041 217 CURVE SMOOTH",
"1041 314 OFFCURVE",
"963 387 OFFCURVE",
"807 421 CURVE"
);
},
{
closed = 1;
nodes = (
"855 675 OFFCURVE",
"894 616 OFFCURVE",
"894 556 CURVE SMOOTH",
"894 496 OFFCURVE",
"854 436 OFFCURVE",
"657 436 CURVE SMOOTH",
"330 436 LINE",
"330 675 LINE",
"657 675 LINE SMOOTH"
);
},
{
closed = 1;
nodes = (
"330 25 LINE",
"330 411 LINE",
"673 411 LINE SMOOTH",
"846 411 OFFCURVE",
"931 315 OFFCURVE",
"931 218 CURVE SMOOTH",
"931 123 OFFCURVE",
"846 27 OFFCURVE",
"673 26 CURVE SMOOTH"
);
}
);
width = 1101;
},
{
layerId = "1127FDDC-7967-4E0A-BDB2-81E1CCE90981";
paths = (
{
closed = 1;
nodes = (
"861 432 OFFCURVE",
"1007 467 OFFCURVE",
"1007 561 CURVE SMOOTH",
"1007 644 OFFCURVE",
"932 700 OFFCURVE",
"708 700 CURVE SMOOTH",
"49 700 LINE",
"49 690 LINE",
"133 683 OFFCURVE",
"239 663 OFFCURVE",
"239 576 CURVE SMOOTH",
"239 124 LINE SMOOTH",
"239 37 OFFCURVE",
"133 17 OFFCURVE",
"49 10 CURVE",
"49 0 LINE",
"711 0 LINE SMOOTH",
"908 0 OFFCURVE",
"1050 79 OFFCURVE",
"1050 219 CURVE SMOOTH",
"1050 336 OFFCURVE",
"927 419 OFFCURVE",
"785 429 CURVE"
);
},
{
closed = 1;
nodes = (
"864 675 OFFCURVE",
"903 617 OFFCURVE",
"903 556 CURVE SMOOTH",
"903 497 OFFCURVE",
"853 436 OFFCURVE",
"661 436 CURVE SMOOTH",
"339 436 LINE",
"339 675 LINE",
"661 675 LINE SMOOTH"
);
},
{
closed = 1;
nodes = (
"339 25 LINE",
"339 411 LINE",
"672 411 LINE SMOOTH",
"845 411 OFFCURVE",
"940 327 OFFCURVE",
"940 220 CURVE SMOOTH",
"940 115 OFFCURVE",
"845 25 OFFCURVE",
"672 25 CURVE SMOOTH"
);
}
);
width = 1137;
}
);
leftKerningGroup = H;
rightKerningGroup = B;
unicode = 0042;
},
{
glyphname = C;
lastChange = "2020-01-09 10:19:01 +0000";
layers = (
{
layerId = "1127FDDC-7967-4E0A-BDB2-81E1CCE90981";
paths = (
{
closed = 1;
nodes = (
"355 715 OFFCURVE",
"66 578 OFFCURVE",
"66 345 CURVE SMOOTH",
"66 143 OFFCURVE",
"331 -15 OFFCURVE",
"651 -15 CURVE SMOOTH",
"782 -15 OFFCURVE",
"989 0 OFFCURVE",
"1145 127 CURVE",
"1131 148 LINE",
"985 30 OFFCURVE",
"793 10 OFFCURVE",
"651 10 CURVE SMOOTH",
"368 10 OFFCURVE",
"186 150 OFFCURVE",
"186 345 CURVE SMOOTH",
"186 566 OFFCURVE",
"417 690 OFFCURVE",
"656 690 CURVE SMOOTH",
"850 690 OFFCURVE",
"1047 621 OFFCURVE",
"1123 470 CURVE",
"1133 470 LINE",
"1106 637 LINE",
"981 690 OFFCURVE",
"821 715 OFFCURVE",
"671 715 CURVE SMOOTH"
);
}
);
width = 1211;
},
{
layerId = "B6803316-6B37-45A2-910F-F0CA711B465A";
paths = (
{
closed = 1;
nodes = (
"183 715 OFFCURVE",
"60 574 OFFCURVE",
"60 345 CURVE SMOOTH",
"60 143 OFFCURVE",
"166 -15 OFFCURVE",
"341 -13 CURVE SMOOTH",
"451 -12 OFFCURVE",
"523 76 OFFCURVE",
"558 179 CURVE",
"536 191 LINE",
"498 79 OFFCURVE",
"425 10 OFFCURVE",
"340 12 CURVE SMOOTH",
"228 14 OFFCURVE",
"160 142 OFFCURVE",
"160 345 CURVE SMOOTH",
"160 565 OFFCURVE",
"243 690 OFFCURVE",
"344 690 CURVE SMOOTH",
"420 690 OFFCURVE",
"492 619 OFFCURVE",
"538 470 CURVE",
"548 470 LINE",
"527 637 LINE",
"496 679 OFFCURVE",
"433 715 OFFCURVE",
"333 715 CURVE SMOOTH"
);
}
);
width = 609;
},
{
associatedMasterId = "1127FDDC-7967-4E0A-BDB2-81E1CCE90981";
layerId = "6E4D13E0-BE61-4882-9688-5E3D56BC5952";
name = "Feb 9 19, 17:53";
paths = (
{
closed = 1;
nodes = (
"844 176 LINE",
"771 71 OFFCURVE",
"629 10 OFFCURVE",
"503 10 CURVE SMOOTH",
"309 10 OFFCURVE",
"175 150 OFFCURVE",
"175 350 CURVE SMOOTH",
"175 549 OFFCURVE",
"310 690 OFFCURVE",
"491 690 CURVE SMOOTH",
"643 690 OFFCURVE",
"739 620 OFFCURVE",
"811 470 CURVE",
"821 470 LINE",
"794 637 LINE",
"717 687 OFFCURVE",
"613 715 OFFCURVE",
"503 715 CURVE SMOOTH",
"259 715 OFFCURVE",
"60 546 OFFCURVE",
"60 350 CURVE SMOOTH",
"60 143 OFFCURVE",
"259 -15 OFFCURVE",
"503 -15 CURVE SMOOTH",
"648 -15 OFFCURVE",
"787 55 OFFCURVE",
"864 161 CURVE"
);
}
);
width = 914;
},
{
associatedMasterId = "1127FDDC-7967-4E0A-BDB2-81E1CCE90981";
layerId = "A9A59328-D1D9-479B-8982-C7B5E6AB17F1";
name = "Feb 18 19, 14:29";
paths = (
{
closed = 1;
nodes = (
"784 -15 OFFCURVE",
"947 8 OFFCURVE",
"1048 60 CURVE",
"1048 88 LINE",
"945 33 OFFCURVE",
"798 10 OFFCURVE",
"656 10 CURVE SMOOTH",
"373 10 OFFCURVE",
"170 150 OFFCURVE",
"170 345 CURVE SMOOTH",
"170 549 OFFCURVE",
"373 690 OFFCURVE",
"674 690 CURVE SMOOTH",
"858 690 OFFCURVE",
"1036 633 OFFCURVE",
"1114 470 CURVE",
"1124 470 LINE",
"1097 637 LINE",
"957 694 OFFCURVE",
"832 715 OFFCURVE",
"674 715 CURVE SMOOTH",
"334 715 OFFCURVE",
"60 546 OFFCURVE",
"60 345 CURVE SMOOTH",
"60 143 OFFCURVE",
"334 -15 OFFCURVE",
"656 -15 CURVE SMOOTH"
);
}
);
width = 1164;
},
{
layerId = "52EA2D2A-A4E3-47AA-B963-53B6A9E26FA1";
paths = (
{
closed = 1;
nodes = (
"179 715 OFFCURVE",
"42 574 OFFCURVE",
"42 345 CURVE SMOOTH",
"42 107 OFFCURVE",
"220 -14 OFFCURVE",
"399 -14 CURVE SMOOTH",
"583 -14 OFFCURVE",
"632 107 OFFCURVE",
"641 172 CURVE",
"606 179 LINE",
"583 102 OFFCURVE",
"530 62 OFFCURVE",
"467 62 CURVE SMOOTH",
"338 62 OFFCURVE",
"264 189 OFFCURVE",
"264 373 CURVE SMOOTH",
"264 563 OFFCURVE",
"313 680 OFFCURVE",
"407 680 CURVE SMOOTH",
"480 680 OFFCURVE",
"544 619 OFFCURVE",
"590 470 CURVE",
"630 470 LINE",
"609 637 LINE",
"585 671 OFFCURVE",
"512 715 OFFCURVE",
"384 715 CURVE SMOOTH"
);
}
);
width = 671;
},
{
layerId = "ECEC25EE-2268-427F-924A-A8A033D1E43A";
paths = (
{
closed = 1;
nodes = (
"201 715 OFFCURVE",
"78 574 OFFCURVE",
"78 345 CURVE SMOOTH",
"78 143 OFFCURVE",
"197 -15 OFFCURVE",
"349 -15 CURVE SMOOTH",
"522 -15 OFFCURVE",
"565 121 OFFCURVE",
"576 179 CURVE",
"562 184 LINE",
"543 98 OFFCURVE",
"493 0 OFFCURVE",
"349 0 CURVE SMOOTH",
"201 0 OFFCURVE",
"128 179 OFFCURVE",
"128 344 CURVE SMOOTH",
"128 516 OFFCURVE",
"207 700 OFFCURVE",
"362 700 CURVE SMOOTH",
"438 700 OFFCURVE",
"525 619 OFFCURVE",
"556 470 CURVE",
"566 470 LINE",
"545 637 LINE",
"514 679 OFFCURVE",
"451 715 OFFCURVE",
"351 715 CURVE SMOOTH"
);
}
);
width = 647;
},
{
layerId = "C70D92E6-6044-4AAB-ADF3-B84826DC9CB7";
paths = (
{
closed = 1;
nodes = (
"362 715 OFFCURVE",
"73 578 OFFCURVE",
"73 345 CURVE SMOOTH",
"73 143 OFFCURVE",
"338 -15 OFFCURVE",
"658 -15 CURVE SMOOTH",
"929 -15 OFFCURVE",
"1077 58 OFFCURVE",
"1152 127 CURVE",
"1144 140 LINE",
"1079 80 OFFCURVE",
"940 0 OFFCURVE",
"658 0 CURVE SMOOTH",
"298 0 OFFCURVE",
"123 171 OFFCURVE",
"123 343 CURVE SMOOTH",
"123 521 OFFCURVE",
"307 700 OFFCURVE",
"663 700 CURVE SMOOTH",
"897 700 OFFCURVE",
"1085 647 OFFCURVE",
"1130 470 CURVE",
"1140 470 LINE",
"1113 637 LINE",
"988 690 OFFCURVE",
"828 715 OFFCURVE",
"678 715 CURVE SMOOTH"
);
}
);
width = 1223;
},
{
associatedMasterId = "ECEC25EE-2268-427F-924A-A8A033D1E43A";
layerId = "B4E5BBCC-0FA4-4CD9-8AF9-181B86EDFE20";
name = "Mar 26 19, 14:11";
paths = (
{
closed = 1;
nodes = (
"445 -15 OFFCURVE",
"513 76 OFFCURVE",
"548 179 CURVE",
"534 184 LINE",
"488 76 OFFCURVE",
"415 0 OFFCURVE",
"321 0 CURVE SMOOTH",
"173 0 OFFCURVE",
"100 179 OFFCURVE",
"100 344 CURVE SMOOTH",
"100 516 OFFCURVE",
"179 700 OFFCURVE",
"334 700 CURVE SMOOTH",
"410 700 OFFCURVE",
"497 619 OFFCURVE",
"528 470 CURVE",
"538 470 LINE",
"517 637 LINE",
"486 679 OFFCURVE",
"423 715 OFFCURVE",
"323 715 CURVE SMOOTH",
"173 715 OFFCURVE",
"50 574 OFFCURVE",
"50 345 CURVE SMOOTH",
"50 143 OFFCURVE",
"169 -15 OFFCURVE",
"321 -15 CURVE SMOOTH"
);
}
);
width = 600;
},
{
associatedMasterId = "C70D92E6-6044-4AAB-ADF3-B84826DC9CB7";
layerId = "87E3277C-7F4B-44FF-8158-981FE226DE29";
name = "Mar 27 19, 14:12";
paths = (
{
closed = 1;
nodes = (
"776 -15 OFFCURVE",
"978 6 OFFCURVE",
"1139 127 CURVE",
"1131 140 LINE",
"979 30 OFFCURVE",
"787 0 OFFCURVE",
"645 0 CURVE SMOOTH",
"285 0 OFFCURVE",
"110 171 OFFCURVE",
"110 343 CURVE SMOOTH",
"110 521 OFFCURVE",
"294 700 OFFCURVE",
"650 700 CURVE SMOOTH",
"884 700 OFFCURVE",
"1072 647 OFFCURVE",
"1117 470 CURVE",
"1127 470 LINE",
"1100 637 LINE",
"975 690 OFFCURVE",
"815 715 OFFCURVE",
"665 715 CURVE SMOOTH",
"349 715 OFFCURVE",
"60 578 OFFCURVE",
"60 345 CURVE SMOOTH",
"60 143 OFFCURVE",
"325 -15 OFFCURVE",
"645 -15 CURVE SMOOTH"
);
}
);
width = 1169;
},
{
layerId = "92782D03-6C32-4A0E-AEF4-B0D65DFAA275";
paths = (
{
closed = 1;
nodes = (
"335 715 OFFCURVE",
"44 578 OFFCURVE",
"44 345 CURVE SMOOTH",
"44 82 OFFCURVE",
"335 -15 OFFCURVE",
"677 -15 CURVE SMOOTH",
"921 -15 OFFCURVE",
"1050 78 OFFCURVE",
"1093 127 CURVE",
"1067 151 LINE",
"1022 102 OFFCURVE",
"915 46 OFFCURVE",
"748 46 CURVE SMOOTH",
"482 46 OFFCURVE",
"324 179 OFFCURVE",
"324 378 CURVE SMOOTH",
"324 519 OFFCURVE",
"437 680 OFFCURVE",
"677 680 CURVE SMOOTH",
"800 680 OFFCURVE",
"957 621 OFFCURVE",
"1051 470 CURVE",
"1081 470 LINE",
"1054 637 LINE",
"929 690 OFFCURVE",
"769 715 OFFCURVE",
"649 715 CURVE SMOOTH"
);
}
);
width = 1134;
},
{
associatedMasterId = "52EA2D2A-A4E3-47AA-B963-53B6A9E26FA1";
layerId = "77F6607D-948F-46AD-AFAD-B1EF918C7F51";
name = "May 5 19, 16:37";
paths = (
{
closed = 1;
nodes = (
"187 715 OFFCURVE",
"50 574 OFFCURVE",
"50 345 CURVE SMOOTH",
"50 143 OFFCURVE",
"169 -15 OFFCURVE",
"429 -15 CURVE SMOOTH",
"610 -15 OFFCURVE",
"636 118 OFFCURVE",
"649 172 CURVE",
"614 179 LINE",
"598 93 OFFCURVE",
"549 21 OFFCURVE",
"453 21 CURVE SMOOTH",
"334 21 OFFCURVE",
"274 183 OFFCURVE",
"274 347 CURVE SMOOTH",
"274 513 OFFCURVE",
"335 680 OFFCURVE",
"423 680 CURVE SMOOTH",
"498 680 OFFCURVE",
"552 619 OFFCURVE",
"598 470 CURVE",
"638 470 LINE",
"617 637 LINE",
"586 679 OFFCURVE",
"535 715 OFFCURVE",
"415 715 CURVE SMOOTH"
);
}
);
width = 688;
},
{
associatedMasterId = "92782D03-6C32-4A0E-AEF4-B0D65DFAA275";
layerId = "3DA4A995-1573-42F8-B7A7-DC2D80CF5DD7";
name = "May 5 19, 16:56";
paths = (
{
closed = 1;
nodes = (
"329 715 OFFCURVE",
"40 578 OFFCURVE",
"40 345 CURVE SMOOTH",
"40 117 OFFCURVE",
"332 -15 OFFCURVE",
"673 -15 CURVE SMOOTH",
"900 -15 OFFCURVE",
"1023 53 OFFCURVE",
"1089 127 CURVE",
"1063 151 LINE",
"978 49 OFFCURVE",
"804 20 OFFCURVE",
"711 20 CURVE SMOOTH",
"474 20 OFFCURVE",
"325 140 OFFCURVE",
"325 341 CURVE SMOOTH",
"325 509 OFFCURVE",
"430 680 OFFCURVE",
"681 680 CURVE SMOOTH",
"788 680 OFFCURVE",
"953 621 OFFCURVE",
"1047 470 CURVE",
"1077 470 LINE",
"1050 637 LINE",
"925 690 OFFCURVE",
"765 715 OFFCURVE",
"645 715 CURVE SMOOTH"
);
}
);
width = 1119;
}
);
leftKerningGroup = O;
leftMetricsKey = O;
rightKerningGroup = C;
unicode = 0043;
},
{
glyphname = D;
lastChange = "2020-01-09 15:46:40 +0000";
layers = (
{
layerId = "1127FDDC-7967-4E0A-BDB2-81E1CCE90981";
paths = (
{
closed = 1;
nodes = (
"49 700 LINE",
"49 690 LINE",
"115 684 OFFCURVE",
"150 665 OFFCURVE",
"149 616 CURVE SMOOTH",
"149 84 LINE SMOOTH",
"149 36 OFFCURVE",
"114 17 OFFCURVE",
"49 10 CURVE",
"49 0 LINE",
"662 0 LINE SMOOTH",
"953 0 OFFCURVE",
"1115 133 OFFCURVE",
"1115 345 CURVE SMOOTH",
"1115 581 OFFCURVE",
"938 700 OFFCURVE",
"649 700 CURVE SMOOTH"
);
},
{
closed = 1;
nodes = (
"249 25 LINE",
"249 675 LINE",
"631 675 LINE SMOOTH",
"888 675 OFFCURVE",
"1005 562 OFFCURVE",
"1005 345 CURVE SMOOTH",
"1005 150 OFFCURVE",
"889 25 OFFCURVE",
"646 25 CURVE SMOOTH"
);
}
);
width = 1189;
},
{
layerId = "B6803316-6B37-45A2-910F-F0CA711B465A";
paths = (
{
closed = 1;
nodes = (
"25 700 LINE",
"25 690 LINE",
"91 684 OFFCURVE",
"126 665 OFFCURVE",
"125 616 CURVE SMOOTH",
"125 84 LINE SMOOTH",
"125 36 OFFCURVE",
"90 17 OFFCURVE",
"25 10 CURVE",
"25 0 LINE",
"296 0 LINE SMOOTH",
"503 0 OFFCURVE",
"618 140 OFFCURVE",
"618 346 CURVE SMOOTH",
"618 565 OFFCURVE",
"511 700 OFFCURVE",
"287 700 CURVE SMOOTH"
);
},
{
closed = 1;
nodes = (
"220 25 LINE",
"220 675 LINE",
"251 675 LINE SMOOTH",
"461 675 OFFCURVE",
"518 537 OFFCURVE",
"518 346 CURVE SMOOTH",
"518 157 OFFCURVE",
"467 25 OFFCURVE",
"251 25 CURVE SMOOTH"
);
}
);
width = 677;
},
{
layerId = "52EA2D2A-A4E3-47AA-B963-53B6A9E26FA1";
paths = (
{
closed = 1;
nodes = (
"25 700 LINE",
"25 680 LINE",
"50 679 OFFCURVE",
"85 674 OFFCURVE",
"85 616 CURVE SMOOTH",
"85 84 LINE SMOOTH",
"85 26 OFFCURVE",
"50 21 OFFCURVE",
"25 20 CURVE",
"25 0 LINE",
"368 0 LINE SMOOTH",
"576 0 OFFCURVE",
"680 175 OFFCURVE",
"680 350 CURVE SMOOTH",
"680 525 OFFCURVE",
"576 700 OFFCURVE",
"368 700 CURVE SMOOTH"
);
},
{
closed = 1;
nodes = (
"305 35 LINE",
"305 665 LINE",
"316 665 LINE SMOOTH",
"411 665 OFFCURVE",
"454 504 OFFCURVE",
"454 345 CURVE SMOOTH",
"454 189 OFFCURVE",
"413 35 OFFCURVE",
"316 35 CURVE SMOOTH"
);
}
);
width = 714;
},
{
layerId = "ECEC25EE-2268-427F-924A-A8A033D1E43A";
paths = (
{
closed = 1;
nodes = (
"44 700 LINE",
"44 690 LINE",
"120 683 OFFCURVE",
"144 679 OFFCURVE",
"144 631 CURVE SMOOTH",
"144 69 LINE SMOOTH",
"144 21 OFFCURVE",
"119 17 OFFCURVE",
"44 10 CURVE",
"44 0 LINE",
"311 0 LINE SMOOTH",
"549 0 OFFCURVE",
"637 175 OFFCURVE",
"637 350 CURVE SMOOTH",
"637 525 OFFCURVE",
"549 700 OFFCURVE",
"311 700 CURVE SMOOTH"
);
},
{
closed = 1;
nodes = (
"189 15 LINE",
"189 685 LINE",
"270 685 LINE SMOOTH",
"499 685 OFFCURVE",
"587 525 OFFCURVE",
"587 346 CURVE SMOOTH",
"587 170 OFFCURVE",
"503 15 OFFCURVE",
"270 15 CURVE SMOOTH"
);
}
);
width = 712;
},
{
layerId = "92782D03-6C32-4A0E-AEF4-B0D65DFAA275";
paths = (
{
closed = 1;
nodes = (
"27 700 LINE",
"27 676 LINE",
"113 669 OFFCURVE",
"177 676 OFFCURVE",
"177 576 CURVE SMOOTH",
"177 124 LINE SMOOTH",
"177 24 OFFCURVE",
"113 31 OFFCURVE",
"27 24 CURVE",
"27 0 LINE",
"680 0 LINE SMOOTH",
"994 0 OFFCURVE",
"1123 174 OFFCURVE",
"1123 348 CURVE SMOOTH",
"1123 524 OFFCURVE",
"992 700 OFFCURVE",
"667 700 CURVE SMOOTH"
);
},
{
closed = 1;
nodes = (
"457 25 LINE",
"457 675 LINE",
"549 675 LINE SMOOTH",
"742 675 OFFCURVE",
"838 509 OFFCURVE",
"838 344 CURVE SMOOTH",
"838 184 OFFCURVE",
"746 25 OFFCURVE",
"564 25 CURVE SMOOTH"
);
}
);
width = 1170;
},
{
layerId = "C70D92E6-6044-4AAB-ADF3-B84826DC9CB7";
paths = (
{
closed = 1;
nodes = (
"54 700 LINE",
"54 690 LINE",
"150 683 OFFCURVE",
"224 682 OFFCURVE",
"224 596 CURVE SMOOTH",
"224 104 LINE SMOOTH",
"224 18 OFFCURVE",
"150 17 OFFCURVE",
"54 10 CURVE",
"54 0 LINE",
"677 0 LINE SMOOTH",
"971 0 OFFCURVE",
"1120 164 OFFCURVE",
"1120 348 CURVE SMOOTH",
"1120 534 OFFCURVE",
"969 700 OFFCURVE",
"664 700 CURVE SMOOTH"
);
},
{
closed = 1;
nodes = (
"269 15 LINE",
"269 685 LINE",
"646 685 LINE SMOOTH",
"929 685 OFFCURVE",
"1070 525 OFFCURVE",
"1070 346 CURVE SMOOTH",
"1070 170 OFFCURVE",
"933 15 OFFCURVE",
"661 15 CURVE SMOOTH"
);
}
);
width = 1196;
},
{
associatedMasterId = "B6803316-6B37-45A2-910F-F0CA711B465A";
layerId = "0AC782C4-2677-410D-A218-D459D801D44E";
name = "Mar 28 19, 13:59";
paths = (
{
closed = 1;
nodes = (
"311 0 LINE SMOOTH",
"518 0 OFFCURVE",
"633 140 OFFCURVE",
"633 346 CURVE SMOOTH",
"633 565 OFFCURVE",
"526 700 OFFCURVE",
"302 700 CURVE SMOOTH",
"141 700 LINE",
"141 675 LINE",
"266 675 LINE SMOOTH",
"476 675 OFFCURVE",
"523 537 OFFCURVE",
"523 346 CURVE SMOOTH",
"523 157 OFFCURVE",
"482 25 OFFCURVE",
"266 25 CURVE SMOOTH",
"141 25 LINE",
"141 0 LINE"
);
},
{
closed = 1;
nodes = (
"140 0 LINE",
"140 84 LINE",
"140 36 OFFCURVE",
"105 17 OFFCURVE",
"40 10 CURVE",
"40 0 LINE"
);
},
{
closed = 1;
nodes = (
"240 0 LINE",
"240 700 LINE",
"140 700 LINE",
"140 0 LINE"
);
},
{
closed = 1;
nodes = (
"140 700 LINE",
"40 700 LINE",
"40 690 LINE",
"106 684 OFFCURVE",
"141 665 OFFCURVE",
"140 616 CURVE"
);
}
);
width = 678;
},
{
associatedMasterId = "ECEC25EE-2268-427F-924A-A8A033D1E43A";
layerId = "2BB6A533-9BCA-4B87-A4D7-B6D976DCD735";
name = "Mar 28 19, 14:05";
paths = (
{
closed = 1;
nodes = (
"307 0 LINE SMOOTH",
"545 0 OFFCURVE",
"633 175 OFFCURVE",
"633 350 CURVE SMOOTH",
"633 525 OFFCURVE",
"545 700 OFFCURVE",
"307 700 CURVE SMOOTH",
"141 700 LINE",
"141 685 LINE",
"266 685 LINE SMOOTH",
"495 685 OFFCURVE",
"583 525 OFFCURVE",
"583 346 CURVE SMOOTH",
"583 170 OFFCURVE",
"499 15 OFFCURVE",
"266 15 CURVE SMOOTH",
"141 15 LINE",
"141 0 LINE"
);
},
{
closed = 1;
nodes = (
"140 0 LINE",
"140 69 LINE",
"140 21 OFFCURVE",
"115 17 OFFCURVE",
"40 10 CURVE",
"40 0 LINE"
);
},
{
closed = 1;
nodes = (
"185 0 LINE",
"185 700 LINE",
"140 700 LINE",
"140 0 LINE"
);
},
{
closed = 1;
nodes = (
"140 700 LINE",
"40 700 LINE",
"40 690 LINE",
"116 683 OFFCURVE",
"140 679 OFFCURVE",
"140 631 CURVE"
);
}
);
width = 693;
},
{
associatedMasterId = "52EA2D2A-A4E3-47AA-B963-53B6A9E26FA1";
layerId = "B3D268A9-B9B9-48F1-87B2-DBB8D47D0067";
name = "Mar 28 19, 14:06";
paths = (
{
closed = 1;
nodes = (
"290 700 LINE",
"10 700 LINE",
"10 690 LINE",
"35 683 OFFCURVE",
"70 674 OFFCURVE",
"70 616 CURVE SMOOTH",
"70 84 LINE SMOOTH",
"70 26 OFFCURVE",
"35 17 OFFCURVE",
"10 10 CURVE",
"10 0 LINE",
"290 0 LINE"
);
},
{
closed = 1;
nodes = (
"353 0 LINE SMOOTH",
"561 0 OFFCURVE",
"665 175 OFFCURVE",
"665 350 CURVE SMOOTH",
"665 525 OFFCURVE",
"561 700 OFFCURVE",
"353 700 CURVE SMOOTH",
"147 700 LINE",
"147 665 LINE",
"301 665 LINE SMOOTH",
"396 665 OFFCURVE",
"439 504 OFFCURVE",
"439 345 CURVE SMOOTH",
"439 189 OFFCURVE",
"398 35 OFFCURVE",
"301 35 CURVE SMOOTH",
"147 35 LINE",
"147 0 LINE"
);
}
);
width = 679;
},
{
associatedMasterId = "C70D92E6-6044-4AAB-ADF3-B84826DC9CB7";
layerId = "FD1859C0-6D14-4BB0-ADA9-0A4BAAF2E60E";
name = "Mar 28 19, 14:08";
paths = (
{
closed = 1;
nodes = (
"265 700 LINE",
"50 700 LINE",
"50 690 LINE",
"146 683 OFFCURVE",
"220 682 OFFCURVE",
"220 596 CURVE SMOOTH",
"220 104 LINE SMOOTH",
"220 18 OFFCURVE",
"146 17 OFFCURVE",
"50 10 CURVE",
"50 0 LINE",
"265 0 LINE"
);
},
{
closed = 1;
nodes = (
"673 0 LINE SMOOTH",
"967 0 OFFCURVE",
"1116 164 OFFCURVE",
"1116 348 CURVE SMOOTH",
"1116 534 OFFCURVE",
"965 700 OFFCURVE",
"660 700 CURVE SMOOTH",
"230 700 LINE",
"230 685 LINE",
"642 685 LINE SMOOTH",
"925 685 OFFCURVE",
"1066 525 OFFCURVE",
"1066 346 CURVE SMOOTH",
"1066 170 OFFCURVE",
"929 15 OFFCURVE",
"657 15 CURVE SMOOTH",
"230 15 LINE",
"230 0 LINE"
);
}
);
width = 1196;
},
{
associatedMasterId = "1127FDDC-7967-4E0A-BDB2-81E1CCE90981";
layerId = "15C7B122-761B-4850-A82C-11B5199D4849";
name = "Mar 28 19, 14:08";
paths = (
{
closed = 1;
nodes = (
"553 0 LINE SMOOTH",
"884 0 OFFCURVE",
"1076 123 OFFCURVE",
"1076 345 CURVE SMOOTH",
"1076 591 OFFCURVE",
"869 700 OFFCURVE",
"540 700 CURVE SMOOTH",
"230 700 LINE",
"230 675 LINE",
"532 675 LINE SMOOTH",
"849 675 OFFCURVE",
"966 572 OFFCURVE",
"966 345 CURVE SMOOTH",
"966 140 OFFCURVE",
"850 25 OFFCURVE",
"547 25 CURVE SMOOTH",
"230 25 LINE",
"230 0 LINE"
);
},
{
closed = 1;
nodes = (
"140 0 LINE",
"140 84 LINE",
"140 36 OFFCURVE",
"105 17 OFFCURVE",
"40 10 CURVE",
"40 0 LINE"
);
},
{
closed = 1;
nodes = (
"240 0 LINE",
"240 700 LINE",
"140 700 LINE",
"140 0 LINE"
);
},
{
closed = 1;
nodes = (
"140 700 LINE",
"40 700 LINE",
"40 690 LINE",
"106 684 OFFCURVE",
"141 665 OFFCURVE",
"140 616 CURVE"
);
}
);
width = 1146;
},
{
associatedMasterId = "92782D03-6C32-4A0E-AEF4-B0D65DFAA275";
layerId = "BBA175DA-5296-42FC-B0A8-08758A9775C0";
name = "Mar 28 19, 14:26";
paths = (
{
closed = 1;
nodes = (
"450 700 LINE",
"20 700 LINE",
"20 686 LINE",
"106 679 OFFCURVE",
"170 676 OFFCURVE",
"170 576 CURVE SMOOTH",
"170 124 LINE SMOOTH",
"170 24 OFFCURVE",
"106 21 OFFCURVE",
"20 14 CURVE",
"20 0 LINE",
"450 0 LINE"
);
},
{
closed = 1;
nodes = (
"673 0 LINE SMOOTH",
"987 0 OFFCURVE",
"1116 174 OFFCURVE",
"1116 348 CURVE SMOOTH",
"1116 524 OFFCURVE",
"985 700 OFFCURVE",
"660 700 CURVE SMOOTH",
"230 700 LINE",
"230 675 LINE",
"542 675 LINE SMOOTH",
"735 675 OFFCURVE",
"831 509 OFFCURVE",
"831 344 CURVE SMOOTH",
"831 184 OFFCURVE",
"739 25 OFFCURVE",
"557 25 CURVE SMOOTH",
"230 25 LINE",
"230 0 LINE"
);
}
);
width = 1206;
}
);
leftKerningGroup = H;
rightKerningGroup = O;
unicode = 0044;
},
{
glyphname = Eth;
lastChange = "2019-11-11 18:57:59 +0000";
layers = (
{
components = (
{
name = D;
}
);
guideLines = (
{
position = "{674, 350}";
}
);
layerId = "ECEC25EE-2268-427F-924A-A8A033D1E43A";
paths = (
{
closed = 1;
nodes = (
"30 342 LINE",
"342 342 LINE",
"342 358 LINE",
"30 358 LINE"
);
}
);
width = 712;
},
{
components = (
{
name = D;
}
);
layerId = "B6803316-6B37-45A2-910F-F0CA711B465A";
paths = (
{
closed = 1;
nodes = (
"30 337 LINE",
"342 337 LINE",
"342 363 LINE",
"30 363 LINE"
);
}
);
width = 677;
},
{
components = (
{
name = D;
}
);
layerId = "52EA2D2A-A4E3-47AA-B963-53B6A9E26FA1";
paths = (
{
closed = 1;
nodes = (
"30 332 LINE",
"372 332 LINE",
"372 368 LINE",
"30 368 LINE"
);
}
);
width = 714;
},
{
components = (
{
name = D;
}
);
layerId = "C70D92E6-6044-4AAB-ADF3-B84826DC9CB7";
paths = (
{
closed = 1;
nodes = (
"30 342 LINE",
"551 342 LINE",
"551 358 LINE",
"30 358 LINE"
);
}
);
width = 1196;
},
{
components = (
{
name = D;
}
);
layerId = "1127FDDC-7967-4E0A-BDB2-81E1CCE90981";
paths = (
{
closed = 1;
nodes = (
"30 337 LINE",
"562 337 LINE",
"562 363 LINE",
"30 363 LINE"
);
}
);
width = 1189;
},
{
components = (
{
name = D;
}
);
layerId = "92782D03-6C32-4A0E-AEF4-B0D65DFAA275";
paths = (
{
closed = 1;
nodes = (
"30 332 LINE",
"620 332 LINE",
"620 368 LINE",
"30 368 LINE"
);
}
);
width = 1170;
}
);
unicode = 00D0;
},
{
glyphname = E;
lastChange = "2020-01-08 17:36:37 +0000";
layers = (
{
layerId = "B6803316-6B37-45A2-910F-F0CA711B465A";
paths = (
{
closed = 1;
nodes = (
"427 675 OFFCURVE",
"470 574 OFFCURVE",
"477 475 CURVE",
"487 475 LINE",
"487 700 LINE",
"25 700 LINE",
"25 690 LINE",
"90 683 OFFCURVE",
"125 664 OFFCURVE",
"125 616 CURVE SMOOTH",
"125 84 LINE SMOOTH",
"125 36 OFFCURVE",
"90 17 OFFCURVE",
"25 10 CURVE",
"25 0 LINE",
"487 0 LINE",
"487 225 LINE",
"477 225 LINE",
"470 126 OFFCURVE",
"427 25 OFFCURVE",
"334 25 CURVE SMOOTH",
"220 25 LINE",
"220 475 LINE",
"234 475 LINE SMOOTH",
"305 475 OFFCURVE",
"385 381 OFFCURVE",
"414 307 CURVE",
"424 310 LINE",
"319 620 LINE",
"309 617 LINE",
"331 536 OFFCURVE",
"314 500 OFFCURVE",
"234 500 CURVE SMOOTH",
"220 500 LINE",
"220 675 LINE",
"334 675 LINE SMOOTH"
);
}
);
width = 569;
},
{
associatedMasterId = "B6803316-6B37-45A2-910F-F0CA711B465A";
layerId = "215F09D6-0B66-4DB9-B491-307CC3E15E8E";
name = "Feb 10 19, 18:09";
paths = (
{
closed = 1;
nodes = (
"240 0 LINE",
"240 700 LINE",
"140 700 LINE",
"140 0 LINE"
);
},
{
closed = 1;
nodes = (
"140 0 LINE",
"140 84 LINE",
"140 36 OFFCURVE",
"105 17 OFFCURVE",
"40 10 CURVE",
"40 0 LINE"
);
},
{
closed = 1;
nodes = (
"502 0 LINE",
"502 25 LINE",
"209 25 LINE",
"209 0 LINE"
);
},
{
closed = 1;
nodes = (
"502 25 LINE",
"502 225 LINE",
"492 225 LINE",
"485 126 OFFCURVE",
"442 25 OFFCURVE",
"349 25 CURVE"
);
},
{
closed = 1;
nodes = (
"140 700 LINE",
"40 700 LINE",
"40 690 LINE",
"105 683 OFFCURVE",
"140 664 OFFCURVE",
"140 616 CURVE"
);
},
{
closed = 1;
nodes = (
"320 475 LINE",
"320 500 LINE",
"209 500 LINE",
"209 475 LINE"
);
},
{
closed = 1;
nodes = (
"439 310 LINE",
"334 620 LINE",
"324 617 LINE",
"346 536 OFFCURVE",
"329 500 OFFCURVE",
"249 500 CURVE",
"249 475 LINE",
"320 475 OFFCURVE",
"400 381 OFFCURVE",
"429 307 CURVE"
);
},
{
closed = 1;
nodes = (
"502 475 LINE",
"502 675 LINE",
"349 675 LINE",
"442 675 OFFCURVE",
"485 574 OFFCURVE",
"492 475 CURVE"
);
},
{
closed = 1;
nodes = (
"502 675 LINE",
"502 700 LINE",
"220 700 LINE",
"220 675 LINE"
);
}
);
width = 552;
},
{
layerId = "1127FDDC-7967-4E0A-BDB2-81E1CCE90981";
paths = (
{
closed = 1;
nodes = (
"895 675 OFFCURVE",
"954 574 OFFCURVE",
"961 455 CURVE",
"971 455 LINE",
"971 700 LINE",
"49 700 LINE",
"49 690 LINE",
"132 683 OFFCURVE",
"238 663 OFFCURVE",
"239 576 CURVE SMOOTH",
"239 124 LINE SMOOTH",
"239 37 OFFCURVE",
"133 17 OFFCURVE",
"49 10 CURVE",
"49 0 LINE",
"971 0 LINE",
"971 245 LINE",
"961 245 LINE",
"954 125 OFFCURVE",
"895 25 OFFCURVE",
"758 25 CURVE SMOOTH",
"339 25 LINE",
"339 475 LINE",
"548 475 LINE SMOOTH",
"623 475 OFFCURVE",
"690 415 OFFCURVE",
"747 274 CURVE",
"757 277 LINE",
"643 620 LINE",
"633 617 LINE",
"651 536 OFFCURVE",
"629 500 OFFCURVE",
"548 500 CURVE SMOOTH",
"339 500 LINE",
"339 675 LINE",
"758 675 LINE SMOOTH"
);
}
);
width = 1074;
},
{
layerId = "52EA2D2A-A4E3-47AA-B963-53B6A9E26FA1";
paths = (
{
closed = 1;
nodes = (
"517 665 OFFCURVE",
"540 544 OFFCURVE",
"547 455 CURVE",
"567 455 LINE",
"567 700 LINE",
"25 700 LINE",
"25 680 LINE",
"50 679 OFFCURVE",
"85 674 OFFCURVE",
"85 616 CURVE SMOOTH",
"85 84 LINE SMOOTH",
"85 26 OFFCURVE",
"50 21 OFFCURVE",
"25 20 CURVE",
"25 0 LINE",
"567 0 LINE",
"567 245 LINE",
"547 245 LINE",
"540 156 OFFCURVE",
"517 35 OFFCURVE",
"354 35 CURVE SMOOTH",
"305 35 LINE",
"305 465 LINE",
"314 465 LINE SMOOTH",
"365 465 OFFCURVE",
"441 395 OFFCURVE",
"486 297 CURVE",
"504 300 LINE",
"399 620 LINE",
"381 617 LINE",
"393 541 OFFCURVE",
"374 500 OFFCURVE",
"314 500 CURVE SMOOTH",
"305 500 LINE",
"305 665 LINE",
"354 665 LINE SMOOTH"
);
}
);
width = 629;
},
{
layerId = "ECEC25EE-2268-427F-924A-A8A033D1E43A";
paths = (
{
closed = 1;
nodes = (
"466 685 OFFCURVE",
"489 635 OFFCURVE",
"496 485 CURVE",
"506 485 LINE",
"506 700 LINE",
"44 700 LINE",
"44 690 LINE",
"110 683 OFFCURVE",
"144 679 OFFCURVE",
"144 631 CURVE SMOOTH",
"144 69 LINE SMOOTH",
"144 21 OFFCURVE",
"109 17 OFFCURVE",
"44 10 CURVE",
"44 0 LINE",
"506 0 LINE",
"506 214 LINE",
"496 214 LINE",
"490 76 OFFCURVE",
"470 15 OFFCURVE",
"379 15 CURVE SMOOTH",
"189 15 LINE",
"189 485 LINE",
"198 485 LINE SMOOTH",
"339 485 OFFCURVE",
"364 478 OFFCURVE",
"433 307 CURVE",
"443 310 LINE",
"338 620 LINE",
"328 617 LINE",
"355 500 OFFCURVE",
"338 500 OFFCURVE",
"198 500 CURVE SMOOTH",
"189 500 LINE",
"189 685 LINE",
"353 685 LINE SMOOTH"
);
}
);
width = 601;
},
{
layerId = "92782D03-6C32-4A0E-AEF4-B0D65DFAA275";
paths = (
{
closed = 1;
nodes = (
"853 665 OFFCURVE",
"932 574 OFFCURVE",
"939 455 CURVE",
"959 455 LINE",
"959 700 LINE",
"27 700 LINE",
"27 676 LINE",
"113 669 OFFCURVE",
"177 676 OFFCURVE",
"177 576 CURVE SMOOTH",
"177 124 LINE SMOOTH",
"177 24 OFFCURVE",
"113 31 OFFCURVE",
"27 24 CURVE",
"27 0 LINE",
"959 0 LINE",
"959 245 LINE",
"939 245 LINE",
"932 125 OFFCURVE",
"853 35 OFFCURVE",
"686 35 CURVE SMOOTH",
"457 35 LINE",
"457 465 LINE",
"524 465 LINE SMOOTH",
"601 465 OFFCURVE",
"673 395 OFFCURVE",
"727 274 CURVE",
"745 277 LINE",
"631 620 LINE",
"613 617 LINE",
"623 545 OFFCURVE",
"607 500 OFFCURVE",
"524 500 CURVE SMOOTH",
"457 500 LINE",
"457 665 LINE",
"686 665 LINE SMOOTH"
);
}
);
width = 1037;
},
{
layerId = "C70D92E6-6044-4AAB-ADF3-B84826DC9CB7";
paths = (
{
closed = 1;
nodes = (
"917 685 OFFCURVE",
"940 605 OFFCURVE",
"947 455 CURVE",
"957 455 LINE",
"957 700 LINE",
"54 700 LINE",
"54 690 LINE",
"150 683 OFFCURVE",
"224 682 OFFCURVE",
"224 596 CURVE SMOOTH",
"224 104 LINE SMOOTH",
"224 18 OFFCURVE",
"150 17 OFFCURVE",
"54 10 CURVE",
"54 0 LINE",
"957 0 LINE",
"957 244 LINE",
"947 244 LINE",
"941 106 OFFCURVE",
"921 15 OFFCURVE",
"830 15 CURVE SMOOTH",
"269 15 LINE",
"269 485 LINE",
"542 484 LINE SMOOTH",
"638 484 OFFCURVE",
"664 453 OFFCURVE",
"724 307 CURVE",
"734 310 LINE",
"629 620 LINE",
"619 617 LINE",
"642 517 OFFCURVE",
"633 500 OFFCURVE",
"542 500 CURVE SMOOTH",
"269 500 LINE",
"269 685 LINE",
"804 685 LINE SMOOTH"
);
}
);
width = 1065;
},
{
associatedMasterId = "ECEC25EE-2268-427F-924A-A8A033D1E43A";
layerId = "B8EA55B3-ECF0-4351-B46B-76630A797EDD";
name = "Mar 26 19, 14:25";
paths = (
{
closed = 1;
nodes = (
"185 0 LINE",
"185 700 LINE",
"140 700 LINE",
"140 0 LINE"
);
},
{
closed = 1;
nodes = (
"502 0 LINE",
"502 15 LINE",
"154 15 LINE",
"154 0 LINE"
);
},
{
closed = 1;
nodes = (
"502 485 LINE",
"502 685 LINE",
"349 685 LINE",
"462 685 OFFCURVE",
"485 635 OFFCURVE",
"492 485 CURVE"
);
},
{
closed = 1;
nodes = (
"502 685 LINE",
"502 700 LINE",
"165 700 LINE",
"165 685 LINE"
);
},
{
closed = 1;
nodes = (
"140 0 LINE",
"140 69 LINE",
"140 21 OFFCURVE",
"105 17 OFFCURVE",
"40 10 CURVE",
"40 0 LINE"
);
},
{
closed = 1;
nodes = (
"140 700 LINE",
"40 700 LINE",
"40 690 LINE",
"106 683 OFFCURVE",
"140 679 OFFCURVE",
"140 631 CURVE"
);
},
{
closed = 1;
nodes = (
"194 485 LINE SMOOTH",
"335 485 OFFCURVE",
"360 478 OFFCURVE",
"429 307 CURVE",
"439 310 LINE",
"334 620 LINE",
"324 617 LINE",
"351 500 OFFCURVE",
"334 500 OFFCURVE",
"194 500 CURVE SMOOTH",
"154 500 LINE",
"154 485 LINE"
);
},
{
closed = 1;
nodes = (
"485 64 OFFCURVE",
"462 14 OFFCURVE",
"349 14 CURVE",
"502 14 LINE",
"502 214 LINE",
"492 214 LINE"
);
}
);
width = 602;
},
{
associatedMasterId = "52EA2D2A-A4E3-47AA-B963-53B6A9E26FA1";
layerId = "1182D38C-F736-4F16-A06F-AD55AFF618D1";
name = "Mar 26 19, 14:56";
paths = (
{
closed = 1;
nodes = (
"290 0 LINE",
"290 700 LINE",
"10 700 LINE",
"10 690 LINE",
"35 683 OFFCURVE",
"70 674 OFFCURVE",
"70 616 CURVE SMOOTH",
"70 84 LINE SMOOTH",
"70 26 OFFCURVE",
"35 17 OFFCURVE",
"10 10 CURVE",
"10 0 LINE"
);
},
{
closed = 1;
nodes = (
"552 0 LINE",
"552 25 LINE",
"259 25 LINE",
"259 0 LINE"
);
},
{
closed = 1;
nodes = (
"552 25 LINE",
"552 245 LINE",
"542 245 LINE",
"535 156 OFFCURVE",
"502 25 OFFCURVE",
"339 25 CURVE"
);
},
{
closed = 1;
nodes = (
"552 455 LINE",
"552 675 LINE",
"339 675 LINE",
"502 675 OFFCURVE",
"535 544 OFFCURVE",
"542 455 CURVE"
);
},
{
closed = 1;
nodes = (
"552 675 LINE",
"552 700 LINE",
"270 700 LINE",
"270 675 LINE"
);
},
{
closed = 1;
nodes = (
"299 475 LINE SMOOTH",
"350 475 OFFCURVE",
"434 406 OFFCURVE",
"479 307 CURVE",
"489 310 LINE",
"384 620 LINE",
"374 617 LINE",
"386 541 OFFCURVE",
"359 500 OFFCURVE",
"299 500 CURVE SMOOTH",
"259 500 LINE",
"259 475 LINE"
);
}
);
width = 600;
},
{
associatedMasterId = "C70D92E6-6044-4AAB-ADF3-B84826DC9CB7";
layerId = "94087BAE-AE4E-4478-9FF2-2534ED250D62";
name = "Mar 27 19, 13:53";
paths = (
{
closed = 1;
nodes = (
"260 0 LINE",
"953 0 LINE",
"953 244 LINE",
"943 244 LINE",
"937 106 OFFCURVE",
"917 23 OFFCURVE",
"826 15 CURVE",
"260 15 LINE"
);
},
{
closed = 1;
nodes = (
"260 485 LINE",
"538 484 LINE SMOOTH",
"634 484 OFFCURVE",
"660 453 OFFCURVE",
"720 307 CURVE",
"730 310 LINE",
"625 620 LINE",
"615 617 LINE",
"638 517 OFFCURVE",
"629 500 OFFCURVE",
"538 500 CURVE SMOOTH",
"260 500 LINE"
);
},
{
closed = 1;
nodes = (
"260 685 LINE",
"800 685 LINE SMOOTH",
"913 685 OFFCURVE",
"936 605 OFFCURVE",
"943 455 CURVE",
"953 455 LINE",
"953 700 LINE",
"260 700 LINE"
);
},
{
closed = 1;
nodes = (
"265 700 LINE",
"50 700 LINE",
"50 690 LINE",
"146 683 OFFCURVE",
"220 682 OFFCURVE",
"220 596 CURVE SMOOTH",
"220 104 LINE SMOOTH",
"220 18 OFFCURVE",
"146 17 OFFCURVE",
"50 10 CURVE",
"50 0 LINE",
"265 0 LINE"
);
}
);
width = 1103;
},
{
associatedMasterId = "1127FDDC-7967-4E0A-BDB2-81E1CCE90981";
layerId = "AEF2644C-09BC-42F1-9D7F-940D6476D831";
name = "Mar 27 19, 15:15";
paths = (
{
closed = 1;
nodes = (
"330 0 LINE",
"962 0 LINE",
"962 245 LINE",
"952 245 LINE",
"945 125 OFFCURVE",
"886 25 OFFCURVE",
"749 25 CURVE SMOOTH",
"324 25 LINE"
);
},
{
closed = 1;
nodes = (
"324 675 LINE",
"749 675 LINE SMOOTH",
"886 675 OFFCURVE",
"945 574 OFFCURVE",
"952 455 CURVE",
"962 455 LINE",
"962 700 LINE",
"330 700 LINE"
);
},
{
closed = 1;
nodes = (
"324 475 LINE",
"539 475 LINE SMOOTH",
"614 475 OFFCURVE",
"681 415 OFFCURVE",
"738 274 CURVE",
"748 277 LINE",
"634 620 LINE",
"624 617 LINE",
"642 536 OFFCURVE",
"620 500 OFFCURVE",
"539 500 CURVE SMOOTH",
"324 500 LINE"
);
},
{
closed = 1;
nodes = (
"330 681 LINE",
"330 700 LINE",
"40 700 LINE",
"40 690 LINE",
"123 683 OFFCURVE",
"229 663 OFFCURVE",
"230 576 CURVE SMOOTH",
"230 124 LINE SMOOTH",
"230 37 OFFCURVE",
"124 17 OFFCURVE",
"40 10 CURVE",
"40 0 LINE",
"330 0 LINE",
"330 19 LINE"
);
}
);
width = 1112;
},
{
associatedMasterId = "92782D03-6C32-4A0E-AEF4-B0D65DFAA275";
layerId = "211E878B-43BF-4F51-847E-DC81DE24F448";
name = "Mar 27 19, 15:18";
paths = (
{
closed = 1;
nodes = (
"460 700 LINE",
"30 700 LINE",
"30 686 LINE",
"116 679 OFFCURVE",
"180 676 OFFCURVE",
"180 576 CURVE SMOOTH",
"180 124 LINE SMOOTH",
"180 24 OFFCURVE",
"116 21 OFFCURVE",
"30 14 CURVE",
"30 0 LINE",
"460 0 LINE"
);
},
{
closed = 1;
nodes = (
"330 0 LINE",
"962 0 LINE",
"962 245 LINE",
"952 245 LINE",
"945 125 OFFCURVE",
"856 35 OFFCURVE",
"689 35 CURVE SMOOTH",
"324 35 LINE"
);
},
{
closed = 1;
nodes = (
"324 665 LINE",
"689 665 LINE SMOOTH",
"856 665 OFFCURVE",
"945 574 OFFCURVE",
"952 455 CURVE",
"962 455 LINE",
"962 700 LINE",
"330 700 LINE"
);
},
{
closed = 1;
nodes = (
"324 465 LINE",
"527 465 LINE SMOOTH",
"604 465 OFFCURVE",
"684 395 OFFCURVE",
"738 274 CURVE",
"748 277 LINE",
"634 620 LINE",
"624 617 LINE",
"634 545 OFFCURVE",
"610 500 OFFCURVE",
"527 500 CURVE SMOOTH",
"324 500 LINE"
);
}
);
width = 1092;
}
);
leftKerningGroup = H;
rightKerningGroup = E;
unicode = 0045;
},
{
glyphname = F;
lastChange = "2020-01-08 17:37:25 +0000";
layers = (
{
layerId = "1127FDDC-7967-4E0A-BDB2-81E1CCE90981";
paths = (
{
closed = 1;
nodes = (
"49 700 LINE",
"49 690 LINE",
"132 683 OFFCURVE",
"238 663 OFFCURVE",
"239 576 CURVE SMOOTH",
"239 124 LINE SMOOTH",
"239 39 OFFCURVE",
"133 19 OFFCURVE",
"49 10 CURVE",
"49 0 LINE",
"529 0 LINE",
"529 10 LINE",
"445 19 OFFCURVE",
"339 39 OFFCURVE",
"339 124 CURVE SMOOTH",
"339 475 LINE",
"548 475 LINE SMOOTH",
"623 475 OFFCURVE",
"690 415 OFFCURVE",
"747 274 CURVE",
"757 277 LINE",
"643 620 LINE",
"633 617 LINE",
"651 536 OFFCURVE",
"629 500 OFFCURVE",
"548 500 CURVE SMOOTH",
"339 500 LINE",
"339 675 LINE",
"758 675 LINE SMOOTH",
"895 675 OFFCURVE",
"954 574 OFFCURVE",
"961 455 CURVE",
"971 455 LINE",
"971 700 LINE"
);
}
);
width = 1042;
},
{
layerId = "B6803316-6B37-45A2-910F-F0CA711B465A";
paths = (
{
closed = 1;
nodes = (
"25 700 LINE",
"25 690 LINE",
"90 683 OFFCURVE",
"125 664 OFFCURVE",
"125 616 CURVE SMOOTH",
"125 84 LINE SMOOTH",
"125 36 OFFCURVE",
"90 17 OFFCURVE",
"25 10 CURVE",
"25 0 LINE",
"320 0 LINE",
"320 10 LINE",
"255 17 OFFCURVE",
"220 36 OFFCURVE",
"220 84 CURVE SMOOTH",
"220 475 LINE",
"234 475 LINE SMOOTH",
"305 475 OFFCURVE",
"385 381 OFFCURVE",
"414 307 CURVE",
"424 310 LINE",
"319 620 LINE",
"309 617 LINE",
"331 536 OFFCURVE",
"314 500 OFFCURVE",
"234 500 CURVE SMOOTH",
"220 500 LINE",
"220 675 LINE",
"334 675 LINE SMOOTH",
"427 675 OFFCURVE",
"470 574 OFFCURVE",
"477 475 CURVE",
"487 475 LINE",
"487 700 LINE"
);
}
);
width = 534;
},
{
associatedMasterId = "B6803316-6B37-45A2-910F-F0CA711B465A";
layerId = "2EDD9DE7-E8C5-4C5B-BF86-64CF10F2E998";
name = "Feb 10 19, 18:09";
paths = (
{
closed = 1;
nodes = (
"240 0 LINE",
"240 700 LINE",
"140 700 LINE",
"140 0 LINE"
);
},
{
closed = 1;
nodes = (
"140 0 LINE",
"140 84 LINE",
"140 36 OFFCURVE",
"105 17 OFFCURVE",
"40 10 CURVE",
"40 0 LINE"
);
},
{
closed = 1;
nodes = (
"340 0 LINE",
"340 10 LINE",
"275 17 OFFCURVE",
"240 36 OFFCURVE",
"240 84 CURVE",
"240 0 LINE"
);
},
{
closed = 1;
nodes = (
"140 700 LINE",
"40 700 LINE",
"40 690 LINE",
"105 683 OFFCURVE",
"140 664 OFFCURVE",
"140 616 CURVE"
);
},
{
closed = 1;
nodes = (
"330 475 LINE",
"330 500 LINE",
"209 500 LINE",
"209 475 LINE"
);
},
{
closed = 1;
nodes = (
"449 310 LINE",
"344 620 LINE",
"334 617 LINE",
"356 536 OFFCURVE",
"339 500 OFFCURVE",
"249 500 CURVE",
"249 475 LINE",
"330 475 OFFCURVE",
"410 381 OFFCURVE",
"439 307 CURVE"
);
},
{
closed = 1;
nodes = (
"512 475 LINE",
"512 675 LINE",
"359 675 LINE",
"452 675 OFFCURVE",
"495 574 OFFCURVE",
"502 475 CURVE"
);
},
{
closed = 1;
nodes = (
"512 675 LINE",
"512 700 LINE",
"220 700 LINE",
"220 675 LINE"
);
}
);
width = 552;
},
{
associatedMasterId = "1127FDDC-7967-4E0A-BDB2-81E1CCE90981";
layerId = "3FA07D11-59D9-417A-A07F-45DB1DE548BE";
name = "Feb 10 19, 18:09";
paths = (
{
closed = 1;
nodes = (
"758 277 LINE",
"644 620 LINE",
"634 617 LINE",
"652 536 OFFCURVE",
"630 500 OFFCURVE",
"549 500 CURVE",
"549 475 LINE",
"624 475 OFFCURVE",
"691 415 OFFCURVE",
"748 274 CURVE"
);
},
{
closed = 1;
nodes = (
"230 0 LINE",
"230 124 LINE",
"230 39 OFFCURVE",
"124 19 OFFCURVE",
"40 10 CURVE",
"40 0 LINE"
);
},
{
closed = 1;
nodes = (
"520 0 LINE",
"520 10 LINE",
"436 19 OFFCURVE",
"330 39 OFFCURVE",
"330 124 CURVE",
"330 0 LINE"
);
},
{
closed = 1;
nodes = (
"330 0 LINE",
"330 700 LINE",
"230 700 LINE",
"230 0 LINE"
);
},
{
closed = 1;
nodes = (
"230 700 LINE",
"40 700 LINE",
"40 690 LINE",
"123 683 OFFCURVE",
"229 663 OFFCURVE",
"230 576 CURVE"
);
},
{
closed = 1;
nodes = (
"560 475 LINE",
"560 500 LINE",
"249 500 LINE",
"249 475 LINE"
);
},
{
closed = 1;
nodes = (
"972 675 LINE",
"972 700 LINE",
"260 700 LINE",
"260 675 LINE"
);
},
{
closed = 1;
nodes = (
"972 455 LINE",
"972 675 LINE",
"759 675 LINE",
"896 675 OFFCURVE",
"955 574 OFFCURVE",
"962 455 CURVE"
);
}
);
width = 1072;
},
{
layerId = "52EA2D2A-A4E3-47AA-B963-53B6A9E26FA1";
paths = (
{
closed = 1;
nodes = (
"25 700 LINE",
"25 680 LINE",
"50 679 OFFCURVE",
"85 674 OFFCURVE",
"85 616 CURVE SMOOTH",
"85 84 LINE SMOOTH",
"85 26 OFFCURVE",
"50 21 OFFCURVE",
"25 20 CURVE",
"25 0 LINE",
"365 0 LINE",
"365 20 LINE",
"340 21 OFFCURVE",
"305 26 OFFCURVE",
"305 84 CURVE SMOOTH",
"305 475 LINE",
"314 475 LINE SMOOTH",
"365 475 OFFCURVE",
"441 405 OFFCURVE",
"486 307 CURVE",
"504 310 LINE",
"399 620 LINE",
"381 617 LINE",
"393 541 OFFCURVE",
"374 500 OFFCURVE",
"314 500 CURVE SMOOTH",
"305 500 LINE",
"305 675 LINE",
"354 675 LINE SMOOTH",
"517 675 OFFCURVE",
"540 544 OFFCURVE",
"547 455 CURVE",
"567 455 LINE",
"567 700 LINE"
);
}
);
width = 595;
},
{
layerId = "ECEC25EE-2268-427F-924A-A8A033D1E43A";
paths = (
{
closed = 1;
nodes = (
"44 700 LINE",
"44 690 LINE",
"110 683 OFFCURVE",
"144 679 OFFCURVE",
"144 631 CURVE SMOOTH",
"144 69 LINE SMOOTH",
"144 21 OFFCURVE",
"109 17 OFFCURVE",
"44 10 CURVE",
"44 0 LINE",
"289 0 LINE",
"289 10 LINE",
"224 17 OFFCURVE",
"189 21 OFFCURVE",
"189 69 CURVE SMOOTH",
"189 485 LINE",
"198 485 LINE SMOOTH",
"339 485 OFFCURVE",
"364 478 OFFCURVE",
"433 307 CURVE",
"443 310 LINE",
"338 620 LINE",
"328 617 LINE",
"355 500 OFFCURVE",
"338 500 OFFCURVE",
"198 500 CURVE SMOOTH",
"189 500 LINE",
"189 685 LINE",
"353 685 LINE SMOOTH",
"466 685 OFFCURVE",
"489 635 OFFCURVE",
"496 485 CURVE",
"506 485 LINE",
"506 700 LINE"
);
}
);
width = 570;
},
{
layerId = "92782D03-6C32-4A0E-AEF4-B0D65DFAA275";
paths = (
{
closed = 1;
nodes = (
"27 700 LINE",
"27 676 LINE",
"113 669 OFFCURVE",
"177 676 OFFCURVE",
"177 576 CURVE SMOOTH",
"177 124 LINE SMOOTH",
"177 24 OFFCURVE",
"113 31 OFFCURVE",
"27 24 CURVE",
"27 0 LINE",
"607 0 LINE",
"607 24 LINE",
"521 31 OFFCURVE",
"457 24 OFFCURVE",
"457 124 CURVE SMOOTH",
"457 465 LINE",
"524 465 LINE SMOOTH",
"601 465 OFFCURVE",
"673 395 OFFCURVE",
"727 274 CURVE",
"745 277 LINE",
"631 620 LINE",
"613 617 LINE",
"623 545 OFFCURVE",
"607 500 OFFCURVE",
"524 500 CURVE SMOOTH",
"457 500 LINE",
"457 665 LINE",
"686 665 LINE SMOOTH",
"853 665 OFFCURVE",
"932 574 OFFCURVE",
"939 455 CURVE",
"959 455 LINE",
"959 700 LINE"
);
}
);
width = 1005;
},
{
layerId = "C70D92E6-6044-4AAB-ADF3-B84826DC9CB7";
paths = (
{
closed = 1;
nodes = (
"54 700 LINE",
"54 690 LINE",
"150 683 OFFCURVE",
"224 682 OFFCURVE",
"224 596 CURVE SMOOTH",
"224 104 LINE SMOOTH",
"224 18 OFFCURVE",
"150 17 OFFCURVE",
"54 10 CURVE",
"54 0 LINE",
"439 0 LINE",
"439 10 LINE",
"343 17 OFFCURVE",
"269 18 OFFCURVE",
"269 104 CURVE SMOOTH",
"269 485 LINE",
"542 484 LINE SMOOTH",
"638 484 OFFCURVE",
"664 453 OFFCURVE",
"724 307 CURVE",
"734 310 LINE",
"629 620 LINE",
"619 617 LINE",
"642 517 OFFCURVE",
"633 500 OFFCURVE",
"542 500 CURVE SMOOTH",
"269 500 LINE",
"269 685 LINE",
"804 685 LINE SMOOTH",
"917 685 OFFCURVE",
"940 605 OFFCURVE",
"947 455 CURVE",
"957 455 LINE",
"957 700 LINE"
);
}
);
width = 1033;
},
{
associatedMasterId = "ECEC25EE-2268-427F-924A-A8A033D1E43A";
layerId = "ACBCCE74-38BC-4199-80EB-211661D74033";
name = "Mar 26 19, 17:25";
paths = (
{
closed = 1;
nodes = (
"185 0 LINE",
"185 700 LINE",
"140 700 LINE",
"140 0 LINE"
);
},
{
closed = 1;
nodes = (
"502 485 LINE",
"502 685 LINE",
"349 685 LINE",
"462 685 OFFCURVE",
"485 635 OFFCURVE",
"492 485 CURVE"
);
},
{
closed = 1;
nodes = (
"502 685 LINE",
"502 700 LINE",
"165 700 LINE",
"165 685 LINE"
);
},
{
closed = 1;
nodes = (
"140 0 LINE",
"140 69 LINE",
"140 21 OFFCURVE",
"105 17 OFFCURVE",
"40 10 CURVE",
"40 0 LINE"
);
},
{
closed = 1;
nodes = (
"140 700 LINE",
"40 700 LINE",
"40 690 LINE",
"106 683 OFFCURVE",
"140 679 OFFCURVE",
"140 631 CURVE"
);
},
{
closed = 1;
nodes = (
"194 485 LINE SMOOTH",
"335 485 OFFCURVE",
"360 478 OFFCURVE",
"429 307 CURVE",
"439 310 LINE",
"334 620 LINE",
"324 617 LINE",
"351 500 OFFCURVE",
"334 500 OFFCURVE",
"194 500 CURVE SMOOTH",
"154 500 LINE",
"154 485 LINE"
);
},
{
closed = 1;
nodes = (
"285 10 LINE",
"220 17 OFFCURVE",
"185 21 OFFCURVE",
"185 69 CURVE",
"185 0 LINE",
"285 0 LINE"
);
}
);
width = 600;
},
{
associatedMasterId = "52EA2D2A-A4E3-47AA-B963-53B6A9E26FA1";
layerId = "3242D926-6D69-42CA-88A0-B0B8E591C597";
name = "Mar 26 19, 19:28";
paths = (
{
closed = 1;
nodes = (
"290 0 LINE",
"290 700 LINE",
"10 700 LINE",
"10 690 LINE",
"35 683 OFFCURVE",
"70 674 OFFCURVE",
"70 616 CURVE SMOOTH",
"70 84 LINE SMOOTH",
"70 26 OFFCURVE",
"35 17 OFFCURVE",
"10 10 CURVE",
"10 0 LINE"
);
},
{
closed = 1;
nodes = (
"299 475 LINE SMOOTH",
"350 475 OFFCURVE",
"434 406 OFFCURVE",
"479 307 CURVE",
"489 310 LINE",
"384 620 LINE",
"374 617 LINE",
"386 541 OFFCURVE",
"359 500 OFFCURVE",
"299 500 CURVE SMOOTH",
"259 500 LINE",
"259 475 LINE"
);
},
{
closed = 1;
nodes = (
"552 455 LINE",
"552 675 LINE",
"339 675 LINE",
"502 675 OFFCURVE",
"535 544 OFFCURVE",
"542 455 CURVE"
);
},
{
closed = 1;
nodes = (
"552 675 LINE",
"552 700 LINE",
"270 700 LINE",
"270 675 LINE"
);
},
{
closed = 1;
nodes = (
"290 0 LINE",
"350 0 LINE",
"350 10 LINE",
"326 16 OFFCURVE",
"291 25 OFFCURVE",
"290 84 CURVE"
);
}
);
width = 600;
},
{
associatedMasterId = "C70D92E6-6044-4AAB-ADF3-B84826DC9CB7";
layerId = "D4B2A20A-4C23-48F7-8E06-B12CD27CF460";
name = "Mar 27 19, 14:04";
paths = (
{
closed = 1;
nodes = (
"260 485 LINE",
"538 484 LINE SMOOTH",
"634 484 OFFCURVE",
"660 453 OFFCURVE",
"720 307 CURVE",
"730 310 LINE",
"625 620 LINE",
"615 617 LINE",
"638 517 OFFCURVE",
"629 500 OFFCURVE",
"538 500 CURVE SMOOTH",
"260 500 LINE"
);
},
{
closed = 1;
nodes = (
"260 685 LINE",
"800 685 LINE SMOOTH",
"913 685 OFFCURVE",
"936 635 OFFCURVE",
"943 485 CURVE",
"953 485 LINE",
"953 700 LINE",
"260 700 LINE"
);
},
{
closed = 1;
nodes = (
"220 155 LINE",
"220 104 LINE SMOOTH",
"220 18 OFFCURVE",
"146 17 OFFCURVE",
"50 10 CURVE",
"50 0 LINE",
"265 0 LINE",
"265 155 LINE"
);
},
{
closed = 1;
nodes = (
"265 155 LINE",
"265 700 LINE",
"50 700 LINE",
"50 690 LINE",
"146 683 OFFCURVE",
"220 682 OFFCURVE",
"220 596 CURVE SMOOTH",
"220 155 LINE"
);
},
{
closed = 1;
nodes = (
"220 0 LINE",
"435 0 LINE",
"435 10 LINE",
"339 17 OFFCURVE",
"265 18 OFFCURVE",
"265 104 CURVE SMOOTH",
"265 155 LINE",
"220 155 LINE"
);
}
);
width = 600;
},
{
associatedMasterId = "92782D03-6C32-4A0E-AEF4-B0D65DFAA275";
layerId = "BF5A2E04-15AE-4854-95FA-05B27044BE5A";
name = "Mar 28 19, 15:16";
paths = (
{
closed = 1;
nodes = (
"324 665 LINE",
"689 665 LINE SMOOTH",
"856 665 OFFCURVE",
"945 574 OFFCURVE",
"952 455 CURVE",
"962 455 LINE",
"962 700 LINE",
"330 700 LINE"
);
},
{
closed = 1;
nodes = (
"324 465 LINE",
"527 465 LINE SMOOTH",
"604 465 OFFCURVE",
"684 395 OFFCURVE",
"738 274 CURVE",
"748 277 LINE",
"634 620 LINE",
"624 617 LINE",
"634 545 OFFCURVE",
"610 500 OFFCURVE",
"527 500 CURVE SMOOTH",
"324 500 LINE"
);
},
{
closed = 1;
nodes = (
"610 0 LINE",
"610 14 LINE",
"524 21 OFFCURVE",
"460 24 OFFCURVE",
"460 124 CURVE SMOOTH",
"460 700 LINE",
"30 700 LINE",
"30 686 LINE",
"116 679 OFFCURVE",
"180 676 OFFCURVE",
"180 576 CURVE SMOOTH",
"180 124 LINE SMOOTH",
"180 24 OFFCURVE",
"116 21 OFFCURVE",
"30 14 CURVE",
"30 0 LINE"
);
}
);
width = 1002;
}
);
leftKerningGroup = H;
rightKerningGroup = F;
unicode = 0046;
},
{
glyphname = G;
lastChange = "2020-01-08 17:53:21 +0000";
layers = (
{
layerId = "B6803316-6B37-45A2-910F-F0CA711B465A";
paths = (
{
closed = 1;
nodes = (
"375 433 LINE",
"441 426 OFFCURVE",
"475 407 OFFCURVE",
"475 359 CURVE SMOOTH",
"475 83 LINE",
"428 33 OFFCURVE",
"379 10 OFFCURVE",
"335 10 CURVE SMOOTH",
"230 10 OFFCURVE",
"160 139 OFFCURVE",
"160 345 CURVE SMOOTH",
"160 565 OFFCURVE",
"243 690 OFFCURVE",
"344 690 CURVE SMOOTH",
"420 690 OFFCURVE",
"492 619 OFFCURVE",
"538 470 CURVE",
"548 470 LINE",
"527 637 LINE",
"496 679 OFFCURVE",
"435 715 OFFCURVE",
"343 715 CURVE SMOOTH",
"183 715 OFFCURVE",
"60 574 OFFCURVE",
"60 345 CURVE SMOOTH",
"60 131 OFFCURVE",
"190 -15 OFFCURVE",
"329 -15 CURVE SMOOTH",
"382 -15 OFFCURVE",
"433 5 OFFCURVE",
"476 49 CURVE",
"570 -15 LINE",
"570 359 LINE SMOOTH",
"570 407 OFFCURVE",
"605 426 OFFCURVE",
"670 433 CURVE",
"670 443 LINE",
"375 443 LINE"
);
}
);
visible = 1;
width = 703;
},
{
layerId = "1127FDDC-7967-4E0A-BDB2-81E1CCE90981";
paths = (
{
closed = 1;
nodes = (
"843 419 LINE",
"927 412 OFFCURVE",
"1032 392 OFFCURVE",
"1033 305 CURVE SMOOTH",
"1033 78 LINE",
"932 30 OFFCURVE",
"795 10 OFFCURVE",
"662 10 CURVE SMOOTH",
"379 10 OFFCURVE",
"186 150 OFFCURVE",
"186 345 CURVE SMOOTH",
"186 549 OFFCURVE",
"379 690 OFFCURVE",
"680 690 CURVE SMOOTH",
"864 690 OFFCURVE",
"1042 633 OFFCURVE",
"1120 470 CURVE",
"1130 470 LINE",
"1103 637 LINE",
"963 694 OFFCURVE",
"838 715 OFFCURVE",
"680 715 CURVE SMOOTH",
"340 715 OFFCURVE",
"66 546 OFFCURVE",
"66 345 CURVE SMOOTH",
"66 143 OFFCURVE",
"340 -15 OFFCURVE",
"662 -15 CURVE SMOOTH",
"782 -15 OFFCURVE",
"932 5 OFFCURVE",
"1034 50 CURVE",
"1133 -20 LINE",
"1133 305 LINE SMOOTH",
"1134 389 OFFCURVE",
"1240 410 OFFCURVE",
"1323 419 CURVE",
"1323 429 LINE",
"843 429 LINE"
);
}
);
width = 1371;
},
{
layerId = "52EA2D2A-A4E3-47AA-B963-53B6A9E26FA1";
paths = (
{
closed = 1;
nodes = (
"374 422 LINE",
"399 421 OFFCURVE",
"434 416 OFFCURVE",
"434 358 CURVE SMOOTH",
"434 25 LINE",
"429 22 OFFCURVE",
"423 20 OFFCURVE",
"406 20 CURVE SMOOTH",
"319 20 OFFCURVE",
"259 183 OFFCURVE",
"259 347 CURVE SMOOTH",
"259 513 OFFCURVE",
"310 680 OFFCURVE",
"406 680 CURVE SMOOTH",
"480 680 OFFCURVE",
"537 619 OFFCURVE",
"583 470 CURVE",
"623 470 LINE",
"602 637 LINE",
"571 679 OFFCURVE",
"520 715 OFFCURVE",
"400 715 CURVE SMOOTH",
"172 715 OFFCURVE",
"35 574 OFFCURVE",
"35 345 CURVE SMOOTH",
"35 143 OFFCURVE",
"154 -15 OFFCURVE",
"377 -15 CURVE SMOOTH",
"423 -15 OFFCURVE",
"449 -4 OFFCURVE",
"469 15 CURVE",
"654 -14 LINE",
"654 358 LINE SMOOTH",
"654 416 OFFCURVE",
"689 421 OFFCURVE",
"714 422 CURVE",
"714 442 LINE",
"374 442 LINE"
);
}
);
width = 730;
},
{
layerId = "ECEC25EE-2268-427F-924A-A8A033D1E43A";
paths = (
{
closed = 1;
nodes = (
"448 433 LINE",
"514 426 OFFCURVE",
"548 422 OFFCURVE",
"548 374 CURVE SMOOTH",
"548 92 LINE",
"521 45 OFFCURVE",
"465 0 OFFCURVE",
"367 0 CURVE SMOOTH",
"203 0 OFFCURVE",
"128 179 OFFCURVE",
"128 344 CURVE SMOOTH",
"128 516 OFFCURVE",
"207 700 OFFCURVE",
"367 700 CURVE SMOOTH",
"452 700 OFFCURVE",
"535 619 OFFCURVE",
"566 475 CURVE",
"576 475 LINE",
"555 637 LINE",
"524 677 OFFCURVE",
"461 715 OFFCURVE",
"360 715 CURVE SMOOTH",
"201 715 OFFCURVE",
"78 574 OFFCURVE",
"78 345 CURVE SMOOTH",
"78 143 OFFCURVE",
"192 -15 OFFCURVE",
"359 -15 CURVE SMOOTH",
"464 -15 OFFCURVE",
"519 27 OFFCURVE",
"548 66 CURVE",
"593 -15 LINE",
"593 374 LINE SMOOTH",
"593 422 OFFCURVE",
"617 426 OFFCURVE",
"693 433 CURVE",
"693 443 LINE",
"448 443 LINE"
);
}
);
width = 736;
},
{
layerId = "92782D03-6C32-4A0E-AEF4-B0D65DFAA275";
paths = (
{
closed = 1;
nodes = (
"683 406 LINE",
"769 399 OFFCURVE",
"833 406 OFFCURVE",
"833 306 CURVE SMOOTH",
"833 62 LINE",
"787 35 OFFCURVE",
"731 21 OFFCURVE",
"676 21 CURVE SMOOTH",
"467 21 OFFCURVE",
"328 140 OFFCURVE",
"328 341 CURVE SMOOTH",
"328 509 OFFCURVE",
"423 680 OFFCURVE",
"674 680 CURVE SMOOTH",
"773 680 OFFCURVE",
"976 621 OFFCURVE",
"1070 470 CURVE",
"1100 470 LINE",
"1073 637 LINE",
"948 690 OFFCURVE",
"788 715 OFFCURVE",
"638 715 CURVE SMOOTH",
"322 715 OFFCURVE",
"43 578 OFFCURVE",
"43 345 CURVE SMOOTH",
"43 117 OFFCURVE",
"325 -15 OFFCURVE",
"638 -15 CURVE SMOOTH",
"730 -15 OFFCURVE",
"792 2 OFFCURVE",
"838 25 CURVE",
"1113 -15 LINE",
"1113 306 LINE SMOOTH",
"1113 408 OFFCURVE",
"1189 399 OFFCURVE",
"1263 406 CURVE",
"1263 430 LINE",
"683 430 LINE"
);
}
);
width = 1287;
},
{
layerId = "C70D92E6-6044-4AAB-ADF3-B84826DC9CB7";
paths = (
{
closed = 1;
nodes = (
"898 419 LINE",
"994 412 OFFCURVE",
"1068 411 OFFCURVE",
"1068 325 CURVE SMOOTH",
"1068 73 LINE",
"1015 48 OFFCURVE",
"885 0 OFFCURVE",
"667 0 CURVE SMOOTH",
"297 0 OFFCURVE",
"122 171 OFFCURVE",
"122 343 CURVE SMOOTH",
"122 521 OFFCURVE",
"306 700 OFFCURVE",
"662 700 CURVE SMOOTH",
"896 700 OFFCURVE",
"1084 647 OFFCURVE",
"1129 470 CURVE",
"1139 470 LINE",
"1112 637 LINE",
"987 690 OFFCURVE",
"827 715 OFFCURVE",
"677 715 CURVE SMOOTH",
"361 715 OFFCURVE",
"72 578 OFFCURVE",
"72 345 CURVE SMOOTH",
"72 143 OFFCURVE",
"337 -15 OFFCURVE",
"667 -15 CURVE SMOOTH",
"873 -15 OFFCURVE",
"1008 29 OFFCURVE",
"1069 56 CURVE",
"1113 -15 LINE",
"1113 325 LINE SMOOTH",
"1113 413 OFFCURVE",
"1189 412 OFFCURVE",
"1283 419 CURVE",
"1283 429 LINE",
"898 429 LINE"
);
}
);
width = 1336;
},
{
associatedMasterId = "ECEC25EE-2268-427F-924A-A8A033D1E43A";
layerId = "C4B57FB6-CA61-4FCA-B938-6C60F0D4FFDE";
name = "Mar 28 19, 15:21";
paths = (
{
closed = 1;
nodes = (
"173 0 OFFCURVE",
"100 179 OFFCURVE",
"100 344 CURVE SMOOTH",
"100 516 OFFCURVE",
"179 700 OFFCURVE",
"339 700 CURVE SMOOTH",
"420 700 OFFCURVE",
"507 619 OFFCURVE",
"538 475 CURVE",
"548 475 LINE",
"527 637 LINE",
"496 677 OFFCURVE",
"433 715 OFFCURVE",
"332 715 CURVE SMOOTH",
"173 715 OFFCURVE",
"50 574 OFFCURVE",
"50 345 CURVE SMOOTH",
"50 143 OFFCURVE",
"169 -15 OFFCURVE",
"321 -15 CURVE SMOOTH",
"503 -15 OFFCURVE",
"537 91 OFFCURVE",
"548 119 CURVE",
"534 124 LINE",
"515 68 OFFCURVE",
"465 0 OFFCURVE",
"321 0 CURVE SMOOTH"
);
},
{
closed = 1;
nodes = (
"486 426 OFFCURVE",
"520 422 OFFCURVE",
"520 374 CURVE SMOOTH",
"520 66 LINE",
"565 -15 LINE",
"565 374 LINE SMOOTH",
"565 422 OFFCURVE",
"589 426 OFFCURVE",
"665 433 CURVE",
"665 443 LINE",
"420 443 LINE",
"420 433 LINE"
);
}
);
width = 695;
},
{
associatedMasterId = "B6803316-6B37-45A2-910F-F0CA711B465A";
layerId = "1D6681AE-0C12-46F4-8771-AF1782D1D5B2";
name = "Mar 28 19, 15:21";
paths = (
{
closed = 1;
nodes = (
"220 10 OFFCURVE",
"160 139 OFFCURVE",
"160 345 CURVE SMOOTH",
"160 565 OFFCURVE",
"233 690 OFFCURVE",
"334 690 CURVE SMOOTH",
"410 690 OFFCURVE",
"482 619 OFFCURVE",
"528 470 CURVE",
"538 470 LINE",
"517 637 LINE",
"486 679 OFFCURVE",
"423 715 OFFCURVE",
"323 715 CURVE SMOOTH",
"173 715 OFFCURVE",
"50 574 OFFCURVE",
"50 345 CURVE SMOOTH",
"50 131 OFFCURVE",
"180 -15 OFFCURVE",
"316 -15 CURVE SMOOTH",
"376 -15 OFFCURVE",
"435 9 OFFCURVE",
"487 72 CURVE",
"476 95 LINE",
"426 37 OFFCURVE",
"373 10 OFFCURVE",
"325 10 CURVE SMOOTH"
);
},
{
closed = 1;
nodes = (
"431 426 OFFCURVE",
"465 407 OFFCURVE",
"465 359 CURVE SMOOTH",
"465 50 LINE",
"565 -15 LINE",
"565 359 LINE SMOOTH",
"565 407 OFFCURVE",
"600 426 OFFCURVE",
"665 433 CURVE",
"665 443 LINE",
"365 443 LINE",
"365 433 LINE"
);
}
);
width = 670;
},
{
associatedMasterId = "C70D92E6-6044-4AAB-ADF3-B84826DC9CB7";
layerId = "65EE5C82-96CB-46A6-BAAC-9EBB3BD4B2CB";
name = "Mar 28 19, 15:21";
paths = (
{
closed = 1;
nodes = (
"1012 412 OFFCURVE",
"1086 411 OFFCURVE",
"1086 325 CURVE SMOOTH",
"1086 57 LINE",
"1131 -15 LINE",
"1131 325 LINE SMOOTH",
"1131 413 OFFCURVE",
"1207 412 OFFCURVE",
"1301 419 CURVE",
"1301 429 LINE",
"916 429 LINE",
"916 419 LINE"
);
},
{
closed = 1;
nodes = (
"315 0 OFFCURVE",
"140 171 OFFCURVE",
"140 343 CURVE SMOOTH",
"140 521 OFFCURVE",
"324 700 OFFCURVE",
"680 700 CURVE SMOOTH",
"914 700 OFFCURVE",
"1102 647 OFFCURVE",
"1147 470 CURVE",
"1157 470 LINE",
"1130 637 LINE",
"1005 690 OFFCURVE",
"845 715 OFFCURVE",
"695 715 CURVE SMOOTH",
"379 715 OFFCURVE",
"90 578 OFFCURVE",
"90 345 CURVE SMOOTH",
"90 143 OFFCURVE",
"355 -15 OFFCURVE",
"685 -15 CURVE SMOOTH",
"946 -15 OFFCURVE",
"1094 55 OFFCURVE",
"1119 73 CURVE",
"1111 86 LINE",
"1092 74 OFFCURVE",
"957 0 OFFCURVE",
"685 0 CURVE SMOOTH"
);
}
);
width = 1351;
},
{
associatedMasterId = "1127FDDC-7967-4E0A-BDB2-81E1CCE90981";
layerId = "A4857D70-4FFD-49CF-822E-FE2EF98D7529";
name = "Mar 28 19, 15:21";
paths = (
{
closed = 1;
nodes = (
"373 10 OFFCURVE",
"180 150 OFFCURVE",
"180 345 CURVE SMOOTH",
"180 549 OFFCURVE",
"373 690 OFFCURVE",
"674 690 CURVE SMOOTH",
"858 690 OFFCURVE",
"1036 633 OFFCURVE",
"1114 470 CURVE",
"1124 470 LINE",
"1097 637 LINE",
"957 694 OFFCURVE",
"832 715 OFFCURVE",
"674 715 CURVE SMOOTH",
"334 715 OFFCURVE",
"60 546 OFFCURVE",
"60 345 CURVE SMOOTH",
"60 143 OFFCURVE",
"334 -15 OFFCURVE",
"656 -15 CURVE SMOOTH",
"784 -15 OFFCURVE",
"947 8 OFFCURVE",
"1048 60 CURVE",
"1048 88 LINE",
"945 33 OFFCURVE",
"798 10 OFFCURVE",
"656 10 CURVE SMOOTH"
);
},
{
closed = 1;
nodes = (
"921 412 OFFCURVE",
"1026 392 OFFCURVE",
"1027 305 CURVE SMOOTH",
"1027 51 LINE",
"1127 -20 LINE",
"1127 305 LINE SMOOTH",
"1128 389 OFFCURVE",
"1234 410 OFFCURVE",
"1317 419 CURVE",
"1317 429 LINE",
"837 429 LINE",
"837 419 LINE"
);
}
);
width = 1357;
},
{
associatedMasterId = "92782D03-6C32-4A0E-AEF4-B0D65DFAA275";
layerId = "BA705BCA-4854-485F-B779-D68C15CC372A";
name = "Mar 28 19, 15:21";
paths = (
{
closed = 1;
nodes = (
"474 21 OFFCURVE",
"325 140 OFFCURVE",
"325 341 CURVE SMOOTH",
"325 509 OFFCURVE",
"430 680 OFFCURVE",
"681 680 CURVE SMOOTH",
"780 680 OFFCURVE",
"1003 621 OFFCURVE",
"1097 470 CURVE",
"1107 470 LINE",
"1080 637 LINE",
"955 690 OFFCURVE",
"795 715 OFFCURVE",
"645 715 CURVE SMOOTH",
"329 715 OFFCURVE",
"40 578 OFFCURVE",
"40 345 CURVE SMOOTH",
"40 117 OFFCURVE",
"332 -15 OFFCURVE",
"645 -15 CURVE SMOOTH",
"779 -15 OFFCURVE",
"848 21 OFFCURVE",
"899 60 CURVE",
"881 93 LINE",
"830 45 OFFCURVE",
"755 21 OFFCURVE",
"683 21 CURVE SMOOTH"
);
},
{
closed = 1;
nodes = (
"776 409 OFFCURVE",
"840 406 OFFCURVE",
"840 306 CURVE SMOOTH",
"840 26 LINE",
"1120 -15 LINE",
"1120 306 LINE SMOOTH",
"1120 408 OFFCURVE",
"1196 409 OFFCURVE",
"1270 416 CURVE",
"1270 430 LINE",
"690 430 LINE",
"690 416 LINE"
);
}
);
width = 1280;
},
{
associatedMasterId = "52EA2D2A-A4E3-47AA-B963-53B6A9E26FA1";
layerId = "5A3D3182-5215-4E93-A2B2-C1541030C389";
name = "Mar 31 19, 15:57";
paths = (
{
closed = 1;
nodes = (
"279 432 LINE",
"304 425 OFFCURVE",
"339 416 OFFCURVE",
"339 358 CURVE SMOOTH",
"339 52 LINE",
"328 31 OFFCURVE",
"311 20 OFFCURVE",
"295 20 CURVE SMOOTH",
"248 20 OFFCURVE",
"240 84 OFFCURVE",
"240 364 CURVE SMOOTH",
"240 532 OFFCURVE",
"229 680 OFFCURVE",
"304 680 CURVE SMOOTH",
"380 680 OFFCURVE",
"450 613 OFFCURVE",
"488 470 CURVE",
"508 470 LINE",
"487 637 LINE",
"456 679 OFFCURVE",
"393 715 OFFCURVE",
"293 715 CURVE SMOOTH",
"114 715 OFFCURVE",
"15 583 OFFCURVE",
"15 345 CURVE SMOOTH",
"15 93 OFFCURVE",
"126 -15 OFFCURVE",
"289 -15 CURVE SMOOTH",
"321 -15 OFFCURVE",
"343 -2 OFFCURVE",
"359 17 CURVE",
"559 -14 LINE",
"559 358 LINE SMOOTH",
"559 416 OFFCURVE",
"594 425 OFFCURVE",
"619 432 CURVE",
"619 442 LINE",
"279 442 LINE"
);
}
);
width = 600;
},
{
associatedMasterId = "52EA2D2A-A4E3-47AA-B963-53B6A9E26FA1";
layerId = "F8F8B26C-2ADA-4D7F-871C-ED3456BD059F";
name = "Mar 31 19, 16:01";
paths = (
{
closed = 1;
nodes = (
"404 425 OFFCURVE",
"439 416 OFFCURVE",
"439 358 CURVE SMOOTH",
"439 20 LINE",
"659 -14 LINE",
"659 358 LINE SMOOTH",
"659 416 OFFCURVE",
"694 425 OFFCURVE",
"719 432 CURVE",
"719 442 LINE",
"379 442 LINE",
"379 432 LINE"
);
},
{
closed = 1;
nodes = (
"187 715 OFFCURVE",
"50 574 OFFCURVE",
"50 345 CURVE SMOOTH",
"50 143 OFFCURVE",
"169 -15 OFFCURVE",
"439 -15 CURVE SMOOTH",
"597 -15 OFFCURVE",
"636 121 OFFCURVE",
"647 172 CURVE",
"614 179 LINE",
"594 92 OFFCURVE",
"544 20 OFFCURVE",
"453 20 CURVE SMOOTH",
"334 20 OFFCURVE",
"274 183 OFFCURVE",
"274 347 CURVE SMOOTH",
"274 513 OFFCURVE",
"335 680 OFFCURVE",
"423 680 CURVE SMOOTH",
"498 680 OFFCURVE",
"542 619 OFFCURVE",
"588 470 CURVE",
"638 470 LINE",
"617 637 LINE",
"586 679 OFFCURVE",
"535 715 OFFCURVE",
"415 715 CURVE SMOOTH"
);
}
);
width = 729;
},
{
associatedMasterId = "ECEC25EE-2268-427F-924A-A8A033D1E43A";
layerId = "805FD5F7-CBE9-43A9-A0D1-CC2F03AA79CA";
name = "Apr 24 19, 16:11";
paths = (
{
closed = 1;
nodes = (
"420 433 LINE",
"486 426 OFFCURVE",
"520 422 OFFCURVE",
"520 374 CURVE SMOOTH",
"520 92 LINE",
"493 45 OFFCURVE",
"439 0 OFFCURVE",
"321 0 CURVE SMOOTH",
"173 0 OFFCURVE",
"100 179 OFFCURVE",
"100 344 CURVE SMOOTH",
"100 516 OFFCURVE",
"179 700 OFFCURVE",
"339 700 CURVE SMOOTH",
"420 700 OFFCURVE",
"507 619 OFFCURVE",
"538 475 CURVE",
"548 475 LINE",
"527 637 LINE",
"496 677 OFFCURVE",
"433 715 OFFCURVE",
"332 715 CURVE SMOOTH",
"173 715 OFFCURVE",
"50 574 OFFCURVE",
"50 345 CURVE SMOOTH",
"50 143 OFFCURVE",
"169 -15 OFFCURVE",
"321 -15 CURVE SMOOTH",
"436 -15 OFFCURVE",
"492 27 OFFCURVE",
"520 66 CURVE",
"565 -15 LINE",
"565 374 LINE SMOOTH",
"565 422 OFFCURVE",
"589 426 OFFCURVE",
"665 433 CURVE",
"665 443 LINE",
"420 443 LINE"
);
}
);
width = 695;
},
{
associatedMasterId = "B6803316-6B37-45A2-910F-F0CA711B465A";
layerId = "258F980D-379F-407F-98C2-B42D04619203";
name = "May 11 19, 17:21";
paths = (
{
closed = 1;
nodes = (
"365 433 LINE",
"431 426 OFFCURVE",
"465 407 OFFCURVE",
"465 359 CURVE SMOOTH",
"465 83 LINE",
"418 33 OFFCURVE",
"369 10 OFFCURVE",
"325 10 CURVE SMOOTH",
"220 10 OFFCURVE",
"160 139 OFFCURVE",
"160 345 CURVE SMOOTH",
"160 565 OFFCURVE",
"233 690 OFFCURVE",
"334 690 CURVE SMOOTH",
"410 690 OFFCURVE",
"482 619 OFFCURVE",
"528 470 CURVE",
"538 470 LINE",
"517 637 LINE",
"486 679 OFFCURVE",
"423 715 OFFCURVE",
"323 715 CURVE SMOOTH",
"173 715 OFFCURVE",
"50 574 OFFCURVE",
"50 345 CURVE SMOOTH",
"50 131 OFFCURVE",
"180 -15 OFFCURVE",
"319 -15 CURVE SMOOTH",
"368 -15 OFFCURVE",
"420 3 OFFCURVE",
"466 49 CURVE",
"565 -15 LINE",
"565 359 LINE SMOOTH",
"565 407 OFFCURVE",
"600 426 OFFCURVE",
"665 433 CURVE",
"665 443 LINE",
"365 443 LINE"
);
}
);
width = 670;
}
);
leftKerningGroup = O;
rightKerningGroup = G;
unicode = 0047;
},
{
glyphname = H;
lastChange = "2020-01-08 15:13:30 +0000";
layers = (
{
layerId = "B6803316-6B37-45A2-910F-F0CA711B465A";
paths = (
{
closed = 1;
nodes = (
"649 700 LINE",
"354 700 LINE",
"354 690 LINE",
"419 683 OFFCURVE",
"454 664 OFFCURVE",
"454 616 CURVE SMOOTH",
"454 500 LINE",
"220 500 LINE",
"220 616 LINE SMOOTH",
"220 666 OFFCURVE",
"255 685 OFFCURVE",
"320 690 CURVE",
"320 700 LINE",
"25 700 LINE",
"25 690 LINE",
"93 684 OFFCURVE",
"125 666 OFFCURVE",
"125 616 CURVE SMOOTH",
"125 84 LINE SMOOTH",
"125 36 OFFCURVE",
"90 17 OFFCURVE",
"25 10 CURVE",
"25 0 LINE",
"320 0 LINE",
"320 10 LINE",
"255 17 OFFCURVE",
"220 36 OFFCURVE",
"220 84 CURVE SMOOTH",
"220 475 LINE",
"454 475 LINE",
"454 84 LINE SMOOTH",
"454 36 OFFCURVE",
"419 17 OFFCURVE",
"354 10 CURVE",
"354 0 LINE",
"649 0 LINE",
"649 10 LINE",
"584 17 OFFCURVE",
"549 36 OFFCURVE",
"549 84 CURVE SMOOTH",
"549 616 LINE SMOOTH",
"549 664 OFFCURVE",
"584 683 OFFCURVE",
"649 690 CURVE"
);
}
);
width = 674;
},
{
associatedMasterId = "B6803316-6B37-45A2-910F-F0CA711B465A";
layerId = "2922077D-002D-4E4E-8883-881F200805CE";
name = "Feb 9 19, 16:16";
paths = (
{
closed = 1;
nodes = (
"245 0 LINE",
"245 700 LINE",
"140 700 LINE",
"140 0 LINE"
);
},
{
closed = 1;
nodes = (
"564 0 LINE",
"564 700 LINE",
"464 700 LINE",
"464 0 LINE"
);
},
{
closed = 1;
nodes = (
"179 475 LINE",
"524 475 LINE",
"524 500 LINE",
"179 500 LINE"
);
},
{
closed = 1;
nodes = (
"245 666 OFFCURVE",
"280 685 OFFCURVE",
"345 690 CURVE",
"345 700 LINE",
"245 700 LINE",
"245 616 LINE"
);
},
{
closed = 1;
nodes = (
"464 700 LINE",
"364 700 LINE",
"364 690 LINE",
"430 683 OFFCURVE",
"464 664 OFFCURVE",
"464 616 CURVE"
);
},
{
closed = 1;
nodes = (
"245 0 LINE",
"345 0 LINE",
"345 10 LINE",
"280 17 OFFCURVE",
"245 36 OFFCURVE",
"245 84 CURVE"
);
},
{
closed = 1;
nodes = (
"464 36 OFFCURVE",
"429 17 OFFCURVE",
"364 10 CURVE",
"364 0 LINE",
"464 0 LINE",
"464 84 LINE"
);
},
{
closed = 1;
nodes = (
"564 0 LINE",
"664 0 LINE",
"664 10 LINE",
"599 17 OFFCURVE",
"564 36 OFFCURVE",
"564 84 CURVE"
);
},
{
closed = 1;
nodes = (
"139 36 OFFCURVE",
"103 17 OFFCURVE",
"40 10 CURVE",
"40 0 LINE",
"140 0 LINE",
"140 84 LINE"
);
},
{
closed = 1;
nodes = (
"140 700 LINE",
"40 700 LINE",
"40 690 LINE",
"108 684 OFFCURVE",
"142 665 OFFCURVE",
"140 616 CURVE"
);
},
{
closed = 1;
nodes = (
"564 664 OFFCURVE",
"599 683 OFFCURVE",
"664 690 CURVE",
"664 700 LINE",
"564 700 LINE",
"564 616 LINE"
);
}
);
width = 704;
},
{
layerId = "1127FDDC-7967-4E0A-BDB2-81E1CCE90981";
paths = (
{
closed = 1;
nodes = (
"1280 700 LINE",
"800 700 LINE",
"800 690 LINE",
"884 683 OFFCURVE",
"990 663 OFFCURVE",
"990 576 CURVE SMOOTH",
"990 500 LINE",
"339 500 LINE",
"339 576 LINE SMOOTH",
"339 663 OFFCURVE",
"445 683 OFFCURVE",
"529 690 CURVE",
"529 700 LINE",
"49 700 LINE",
"49 690 LINE",
"133 683 OFFCURVE",
"239 663 OFFCURVE",
"239 576 CURVE SMOOTH",
"239 124 LINE SMOOTH",
"239 37 OFFCURVE",
"133 18 OFFCURVE",
"49 10 CURVE",
"49 0 LINE",
"529 0 LINE",
"529 10 LINE",
"445 17 OFFCURVE",
"339 37 OFFCURVE",
"339 124 CURVE SMOOTH",
"339 475 LINE",
"990 475 LINE",
"990 124 LINE SMOOTH",
"990 37 OFFCURVE",
"884 17 OFFCURVE",
"800 10 CURVE",
"800 0 LINE",
"1280 0 LINE",
"1280 10 LINE",
"1196 17 OFFCURVE",
"1090 37 OFFCURVE",
"1090 124 CURVE SMOOTH",
"1090 576 LINE SMOOTH",
"1090 663 OFFCURVE",
"1196 683 OFFCURVE",
"1280 690 CURVE"
);
}
);
width = 1329;
},
{
layerId = "52EA2D2A-A4E3-47AA-B963-53B6A9E26FA1";
paths = (
{
closed = 1;
nodes = (
"725 700 LINE",
"385 700 LINE",
"385 680 LINE",
"410 679 OFFCURVE",
"445 674 OFFCURVE",
"445 616 CURVE SMOOTH",
"445 500 LINE",
"305 500 LINE",
"305 616 LINE SMOOTH",
"305 674 OFFCURVE",
"340 679 OFFCURVE",
"365 680 CURVE",
"365 700 LINE",
"25 700 LINE",
"25 680 LINE",
"50 679 OFFCURVE",
"85 674 OFFCURVE",
"85 616 CURVE SMOOTH",
"85 84 LINE SMOOTH",
"85 26 OFFCURVE",
"50 21 OFFCURVE",
"25 20 CURVE",
"25 0 LINE",
"365 0 LINE",
"365 20 LINE",
"340 21 OFFCURVE",
"305 26 OFFCURVE",
"305 84 CURVE SMOOTH",
"305 465 LINE",
"445 465 LINE",
"445 84 LINE SMOOTH",
"445 26 OFFCURVE",
"410 21 OFFCURVE",
"385 20 CURVE",
"385 0 LINE",
"725 0 LINE",
"725 20 LINE",
"700 21 OFFCURVE",
"665 26 OFFCURVE",
"665 84 CURVE SMOOTH",
"665 616 LINE SMOOTH",
"665 674 OFFCURVE",
"700 679 OFFCURVE",
"725 680 CURVE"
);
}
);
width = 750;
},
{
layerId = "ECEC25EE-2268-427F-924A-A8A033D1E43A";
paths = (
{
closed = 1;
nodes = (
"668 699 LINE",
"423 699 LINE",
"423 689 LINE",
"489 682 OFFCURVE",
"523 678 OFFCURVE",
"523 630 CURVE SMOOTH",
"523 500 LINE",
"189 500 LINE",
"189 630 LINE SMOOTH",
"189 678 OFFCURVE",
"223 682 OFFCURVE",
"289 689 CURVE",
"289 699 LINE",
"44 699 LINE",
"44 689 LINE",
"120 682 OFFCURVE",
"144 678 OFFCURVE",
"144 630 CURVE SMOOTH",
"144 68 LINE SMOOTH",
"144 20 OFFCURVE",
"119 16 OFFCURVE",
"44 9 CURVE",
"44 -1 LINE",
"289 -1 LINE",
"289 9 LINE",
"224 16 OFFCURVE",
"189 20 OFFCURVE",
"189 68 CURVE SMOOTH",
"189 485 LINE",
"523 485 LINE",
"523 68 LINE SMOOTH",
"523 20 OFFCURVE",
"488 16 OFFCURVE",
"423 9 CURVE",
"423 -1 LINE",
"668 -1 LINE",
"668 9 LINE",
"593 16 OFFCURVE",
"568 20 OFFCURVE",
"568 68 CURVE SMOOTH",
"568 630 LINE SMOOTH",
"568 678 OFFCURVE",
"592 682 OFFCURVE",
"668 689 CURVE"
);
}
);
width = 712;
},
{
layerId = "92782D03-6C32-4A0E-AEF4-B0D65DFAA275";
paths = (
{
closed = 1;
nodes = (
"1247 700 LINE",
"667 700 LINE",
"667 676 LINE",
"753 669 OFFCURVE",
"817 676 OFFCURVE",
"817 576 CURVE SMOOTH",
"817 500 LINE",
"457 500 LINE",
"457 576 LINE SMOOTH",
"457 678 OFFCURVE",
"533 669 OFFCURVE",
"607 676 CURVE",
"607 700 LINE",
"27 700 LINE",
"27 676 LINE",
"113 669 OFFCURVE",
"177 676 OFFCURVE",
"177 576 CURVE SMOOTH",
"177 124 LINE SMOOTH",
"177 24 OFFCURVE",
"113 31 OFFCURVE",
"27 24 CURVE",
"27 0 LINE",
"607 0 LINE",
"607 24 LINE",
"533 31 OFFCURVE",
"457 22 OFFCURVE",
"457 124 CURVE SMOOTH",
"457 465 LINE",
"817 465 LINE",
"817 124 LINE SMOOTH",
"817 24 OFFCURVE",
"753 31 OFFCURVE",
"667 24 CURVE",
"667 0 LINE",
"1247 0 LINE",
"1247 24 LINE",
"1173 31 OFFCURVE",
"1097 22 OFFCURVE",
"1097 124 CURVE SMOOTH",
"1097 576 LINE SMOOTH",
"1097 678 OFFCURVE",
"1173 669 OFFCURVE",
"1247 676 CURVE"
);
}
);
width = 1274;
},
{
layerId = "C70D92E6-6044-4AAB-ADF3-B84826DC9CB7";
paths = (
{
closed = 1;
nodes = (
"1192 700 LINE",
"807 700 LINE",
"807 690 LINE",
"903 683 OFFCURVE",
"977 682 OFFCURVE",
"977 596 CURVE SMOOTH",
"977 500 LINE",
"269 500 LINE",
"269 596 LINE SMOOTH",
"269 684 OFFCURVE",
"345 683 OFFCURVE",
"439 690 CURVE",
"439 700 LINE",
"54 700 LINE",
"54 690 LINE",
"150 683 OFFCURVE",
"224 682 OFFCURVE",
"224 596 CURVE SMOOTH",
"224 104 LINE SMOOTH",
"224 18 OFFCURVE",
"150 17 OFFCURVE",
"54 10 CURVE",
"54 0 LINE",
"439 0 LINE",
"439 10 LINE",
"345 17 OFFCURVE",
"269 16 OFFCURVE",
"269 104 CURVE SMOOTH",
"269 485 LINE",
"977 485 LINE",
"977 104 LINE SMOOTH",
"977 18 OFFCURVE",
"903 17 OFFCURVE",
"807 10 CURVE",
"807 0 LINE",
"1192 0 LINE",
"1192 10 LINE",
"1098 17 OFFCURVE",
"1022 16 OFFCURVE",
"1022 104 CURVE SMOOTH",
"1022 596 LINE SMOOTH",
"1022 684 OFFCURVE",
"1098 683 OFFCURVE",
"1192 690 CURVE"
);
}
);
width = 1246;
},
{
associatedMasterId = "1127FDDC-7967-4E0A-BDB2-81E1CCE90981";
layerId = "10182D28-0B70-4DC9-A877-455D5E9CD68C";
name = "Mar 26 19, 12:37";
paths = (
{
closed = 1;
nodes = (
"330 576 LINE SMOOTH",
"330 663 OFFCURVE",
"436 683 OFFCURVE",
"520 690 CURVE",
"520 700 LINE",
"40 700 LINE",
"40 690 LINE",
"124 683 OFFCURVE",
"230 663 OFFCURVE",
"230 576 CURVE SMOOTH",
"230 124 LINE SMOOTH",
"230 37 OFFCURVE",
"124 18 OFFCURVE",
"40 10 CURVE",
"40 0 LINE",
"520 0 LINE",
"520 10 LINE",
"436 17 OFFCURVE",
"330 37 OFFCURVE",
"330 124 CURVE SMOOTH"
);
},
{
closed = 1;
nodes = (
"981 124 LINE SMOOTH",
"981 37 OFFCURVE",
"875 17 OFFCURVE",
"791 10 CURVE",
"791 0 LINE",
"1271 0 LINE",
"1271 10 LINE",
"1187 17 OFFCURVE",
"1081 37 OFFCURVE",
"1081 124 CURVE SMOOTH",
"1081 576 LINE SMOOTH",
"1081 663 OFFCURVE",
"1187 683 OFFCURVE",
"1271 690 CURVE",
"1271 700 LINE",
"791 700 LINE",
"791 690 LINE",
"875 683 OFFCURVE",
"981 663 OFFCURVE",
"981 576 CURVE SMOOTH"
);
},
{
closed = 1;
nodes = (
"324 475 LINE",
"987 475 LINE",
"987 500 LINE",
"324 500 LINE"
);
}
);
width = 1311;
},
{
associatedMasterId = "ECEC25EE-2268-427F-924A-A8A033D1E43A";
layerId = "54DCE338-5D1D-43DE-BE9D-6343E91E3322";
name = "Mar 26 19, 12:37";
paths = (
{
closed = 1;
nodes = (
"140 0 LINE",
"140 69 LINE",
"138 21 OFFCURVE",
"114 17 OFFCURVE",
"40 10 CURVE",
"40 0 LINE"
);
},
{
closed = 1;
nodes = (
"285 0 LINE",
"285 10 LINE",
"220 17 OFFCURVE",
"185 21 OFFCURVE",
"185 69 CURVE",
"185 0 LINE"
);
},
{
closed = 1;
nodes = (
"185 0 LINE",
"185 700 LINE",
"140 700 LINE",
"140 0 LINE"
);
},
{
closed = 1;
nodes = (
"140 700 LINE",
"40 700 LINE",
"40 690 LINE",
"115 683 OFFCURVE",
"139 679 OFFCURVE",
"140 631 CURVE"
);
},
{
closed = 1;
nodes = (
"174 486 LINE",
"550 486 LINE",
"550 501 LINE",
"174 501 LINE"
);
},
{
closed = 1;
nodes = (
"185 679 OFFCURVE",
"219 683 OFFCURVE",
"285 690 CURVE",
"285 700 LINE",
"185 700 LINE",
"185 631 LINE"
);
},
{
closed = 1;
nodes = (
"519 0 LINE",
"519 69 LINE",
"519 21 OFFCURVE",
"484 17 OFFCURVE",
"419 10 CURVE",
"419 0 LINE"
);
},
{
closed = 1;
nodes = (
"664 0 LINE",
"664 10 LINE",
"590 17 OFFCURVE",
"565 21 OFFCURVE",
"564 69 CURVE",
"564 0 LINE"
);
},
{
closed = 1;
nodes = (
"564 0 LINE",
"564 700 LINE",
"519 700 LINE",
"519 0 LINE"
);
},
{
closed = 1;
nodes = (
"519 700 LINE",
"419 700 LINE",
"419 690 LINE",
"485 683 OFFCURVE",
"519 679 OFFCURVE",
"519 631 CURVE"
);
},
{
closed = 1;
nodes = (
"564 679 OFFCURVE",
"588 683 OFFCURVE",
"664 690 CURVE",
"664 700 LINE",
"564 700 LINE",
"564 631 LINE"
);
}
);
width = 704;
},
{
associatedMasterId = "C70D92E6-6044-4AAB-ADF3-B84826DC9CB7";
layerId = "8D5DD2C3-151C-465C-9A39-FA1B443FEF43";
name = "Mar 27 19, 13:50";
paths = (
{
closed = 1;
nodes = (
"265 596 LINE SMOOTH",
"265 684 OFFCURVE",
"341 683 OFFCURVE",
"435 690 CURVE",
"435 700 LINE",
"50 700 LINE",
"50 690 LINE",
"146 683 OFFCURVE",
"220 682 OFFCURVE",
"220 596 CURVE SMOOTH",
"220 104 LINE SMOOTH",
"220 18 OFFCURVE",
"146 17 OFFCURVE",
"50 10 CURVE",
"50 0 LINE",
"435 0 LINE",
"435 10 LINE",
"341 17 OFFCURVE",
"265 16 OFFCURVE",
"265 104 CURVE SMOOTH"
);
},
{
closed = 1;
nodes = (
"1018 104 LINE",
"1018 596 LINE SMOOTH",
"1018 684 OFFCURVE",
"1094 683 OFFCURVE",
"1188 690 CURVE",
"1188 700 LINE",
"803 700 LINE",
"803 690 LINE",
"899 683 OFFCURVE",
"973 682 OFFCURVE",
"973 596 CURVE SMOOTH",
"973 104 LINE SMOOTH",
"973 18 OFFCURVE",
"899 17 OFFCURVE",
"803 10 CURVE",
"803 0 LINE",
"1018 0 LINE"
);
},
{
closed = 1;
nodes = (
"244 485 LINE",
"987 485 LINE",
"987 500 LINE",
"244 500 LINE"
);
},
{
closed = 1;
nodes = (
"1018 0 LINE",
"1188 0 LINE",
"1188 10 LINE",
"1094 17 OFFCURVE",
"1018 16 OFFCURVE",
"1018 104 CURVE"
);
}
);
width = 1238;
},
{
associatedMasterId = "92782D03-6C32-4A0E-AEF4-B0D65DFAA275";
layerId = "7C679EB4-DF02-4E8A-BBE0-4B71C936E269";
name = "Mar 31 19, 18:15";
paths = (
{
closed = 1;
nodes = (
"450 576 LINE SMOOTH",
"450 678 OFFCURVE",
"526 669 OFFCURVE",
"600 676 CURVE",
"600 700 LINE",
"20 700 LINE",
"20 676 LINE",
"106 669 OFFCURVE",
"170 676 OFFCURVE",
"170 576 CURVE SMOOTH",
"170 124 LINE SMOOTH",
"170 24 OFFCURVE",
"106 31 OFFCURVE",
"20 24 CURVE",
"20 0 LINE",
"600 0 LINE",
"600 24 LINE",
"526 31 OFFCURVE",
"450 22 OFFCURVE",
"450 124 CURVE SMOOTH"
);
},
{
closed = 1;
nodes = (
"1090 0 LINE",
"1240 0 LINE",
"1240 24 LINE",
"1166 31 OFFCURVE",
"1090 22 OFFCURVE",
"1090 124 CURVE"
);
},
{
closed = 1;
nodes = (
"441 465 LINE",
"819 465 LINE",
"819 500 LINE",
"441 500 LINE"
);
},
{
closed = 1;
nodes = (
"1090 124 LINE",
"1090 576 LINE SMOOTH",
"1090 678 OFFCURVE",
"1166 669 OFFCURVE",
"1240 676 CURVE",
"1240 700 LINE",
"660 700 LINE",
"660 676 LINE",
"746 669 OFFCURVE",
"810 676 OFFCURVE",
"810 576 CURVE SMOOTH",
"810 124 LINE SMOOTH",
"810 24 OFFCURVE",
"746 31 OFFCURVE",
"660 24 CURVE",
"660 0 LINE",
"1090 0 LINE"
);
}
);
width = 1260;
},
{
associatedMasterId = "52EA2D2A-A4E3-47AA-B963-53B6A9E26FA1";
layerId = "04D1EAEA-525D-441D-AB50-5D64168A1456";
name = "Apr 11 19, 16:29";
paths = (
{
closed = 1;
nodes = (
"305 616 LINE SMOOTH",
"305 674 OFFCURVE",
"340 679 OFFCURVE",
"365 680 CURVE",
"365 700 LINE",
"25 700 LINE",
"25 680 LINE",
"50 679 OFFCURVE",
"85 674 OFFCURVE",
"85 616 CURVE SMOOTH",
"85 84 LINE SMOOTH",
"85 26 OFFCURVE",
"50 21 OFFCURVE",
"25 20 CURVE",
"25 0 LINE",
"365 0 LINE",
"365 20 LINE",
"340 21 OFFCURVE",
"305 26 OFFCURVE",
"305 84 CURVE SMOOTH"
);
},
{
closed = 1;
nodes = (
"665 0 LINE",
"725 0 LINE",
"725 20 LINE",
"700 21 OFFCURVE",
"664 25 OFFCURVE",
"665 84 CURVE"
);
},
{
closed = 1;
nodes = (
"296 465 LINE",
"454 465 LINE",
"454 500 LINE",
"296 500 LINE"
);
},
{
closed = 1;
nodes = (
"665 84 LINE",
"665 616 LINE SMOOTH",
"665 674 OFFCURVE",
"700 679 OFFCURVE",
"725 680 CURVE",
"725 700 LINE",
"385 700 LINE",
"385 680 LINE",
"410 679 OFFCURVE",
"445 674 OFFCURVE",
"445 616 CURVE SMOOTH",
"445 84 LINE SMOOTH",
"445 26 OFFCURVE",
"410 21 OFFCURVE",
"385 20 CURVE",
"385 0 LINE",
"665 0 LINE"
);
}
);
width = 750;
}
);
leftKerningGroup = H;
rightKerningGroup = H;
unicode = 0048;
},
{
glyphname = I;
lastChange = "2019-12-02 19:35:11 +0000";
layers = (
{
layerId = "1127FDDC-7967-4E0A-BDB2-81E1CCE90981";
paths = (
{
closed = 1;
nodes = (
"489 0 LINE",
"489 10 LINE",
"405 17 OFFCURVE",
"319 37 OFFCURVE",
"319 124 CURVE SMOOTH",
"319 576 LINE SMOOTH",
"319 663 OFFCURVE",
"405 683 OFFCURVE",
"489 690 CURVE",
"489 700 LINE",
"49 700 LINE",
"49 690 LINE",
"133 683 OFFCURVE",
"219 663 OFFCURVE",
"219 576 CURVE SMOOTH",
"219 124 LINE SMOOTH",
"219 37 OFFCURVE",
"133 17 OFFCURVE",
"49 10 CURVE",
"49 0 LINE"
);
}
);
width = 538;
},
{
layerId = "B6803316-6B37-45A2-910F-F0CA711B465A";
paths = (
{
closed = 1;
nodes = (
"325 0 LINE",
"325 10 LINE",
"260 17 OFFCURVE",
"225 36 OFFCURVE",
"225 84 CURVE SMOOTH",
"225 616 LINE SMOOTH",
"225 664 OFFCURVE",
"260 683 OFFCURVE",
"325 690 CURVE",
"325 700 LINE",
"30 700 LINE",
"30 690 LINE",
"95 683 OFFCURVE",
"130 664 OFFCURVE",
"130 616 CURVE SMOOTH",
"130 84 LINE SMOOTH",
"130 36 OFFCURVE",
"95 17 OFFCURVE",
"30 10 CURVE",
"30 0 LINE"
);
}
);
width = 355;
},
{
layerId = "52EA2D2A-A4E3-47AA-B963-53B6A9E26FA1";
paths = (
{
closed = 1;
nodes = (
"365 0 LINE",
"365 20 LINE",
"340 21 OFFCURVE",
"305 26 OFFCURVE",
"305 84 CURVE SMOOTH",
"305 616 LINE SMOOTH",
"305 674 OFFCURVE",
"340 679 OFFCURVE",
"365 680 CURVE",
"365 700 LINE",
"25 700 LINE",
"25 680 LINE",
"50 679 OFFCURVE",
"85 674 OFFCURVE",
"85 616 CURVE SMOOTH",
"85 84 LINE SMOOTH",
"85 26 OFFCURVE",
"50 21 OFFCURVE",
"25 20 CURVE",
"25 0 LINE"
);
}
);
width = 390;
},
{
layerId = "ECEC25EE-2268-427F-924A-A8A033D1E43A";
paths = (
{
closed = 1;
nodes = (
"289 0 LINE",
"289 10 LINE",
"224 17 OFFCURVE",
"189 21 OFFCURVE",
"189 69 CURVE SMOOTH",
"189 631 LINE SMOOTH",
"189 679 OFFCURVE",
"223 683 OFFCURVE",
"289 690 CURVE",
"289 700 LINE",
"44 700 LINE",
"44 690 LINE",
"120 683 OFFCURVE",
"144 679 OFFCURVE",
"144 631 CURVE SMOOTH",
"144 69 LINE SMOOTH",
"144 21 OFFCURVE",
"119 17 OFFCURVE",
"44 10 CURVE",
"44 0 LINE"
);
}
);
width = 333;
},
{
layerId = "92782D03-6C32-4A0E-AEF4-B0D65DFAA275";
paths = (
{
closed = 1;
nodes = (
"607 0 LINE",
"607 24 LINE",
"533 31 OFFCURVE",
"457 22 OFFCURVE",
"457 124 CURVE SMOOTH",
"457 576 LINE SMOOTH",
"457 678 OFFCURVE",
"533 669 OFFCURVE",
"607 676 CURVE",
"607 700 LINE",
"27 700 LINE",
"27 676 LINE",
"113 669 OFFCURVE",
"177 676 OFFCURVE",
"177 576 CURVE SMOOTH",
"177 124 LINE SMOOTH",
"177 24 OFFCURVE",
"113 31 OFFCURVE",
"27 24 CURVE",
"27 0 LINE"
);
}
);
width = 634;
},
{
layerId = "C70D92E6-6044-4AAB-ADF3-B84826DC9CB7";
paths = (
{
closed = 1;
nodes = (
"439 0 LINE",
"439 10 LINE",
"345 17 OFFCURVE",
"269 16 OFFCURVE",
"269 104 CURVE SMOOTH",
"269 596 LINE SMOOTH",
"269 684 OFFCURVE",
"345 683 OFFCURVE",
"439 690 CURVE",
"439 700 LINE",
"54 700 LINE",
"54 690 LINE",
"150 683 OFFCURVE",
"224 682 OFFCURVE",
"224 596 CURVE SMOOTH",
"224 104 LINE SMOOTH",
"224 18 OFFCURVE",
"150 17 OFFCURVE",
"54 10 CURVE",
"54 0 LINE"
);
}
);
width = 493;
},
{
associatedMasterId = "ECEC25EE-2268-427F-924A-A8A033D1E43A";
layerId = "5C10B663-43DE-4BF3-9BFD-F5F58954CE6F";
name = "Mar 27 19, 13:47";
paths = (
{
closed = 1;
nodes = (
"150 0 LINE",
"150 69 LINE",
"150 21 OFFCURVE",
"125 17 OFFCURVE",
"50 10 CURVE",
"50 0 LINE"
);
},
{
closed = 1;
nodes = (
"295 0 LINE",
"295 10 LINE",
"230 17 OFFCURVE",
"195 21 OFFCURVE",
"195 69 CURVE",
"195 0 LINE"
);
},
{
closed = 1;
nodes = (
"195 0 LINE",
"195 700 LINE",
"150 700 LINE",
"150 0 LINE"
);
},
{
closed = 1;
nodes = (
"150 700 LINE",
"50 700 LINE",
"50 690 LINE",
"126 683 OFFCURVE",
"150 679 OFFCURVE",
"150 631 CURVE"
);
},
{
closed = 1;
nodes = (
"195 679 OFFCURVE",
"229 683 OFFCURVE",
"295 690 CURVE",
"295 700 LINE",
"195 700 LINE",
"195 631 LINE"
);
}
);
width = 345;
},
{
associatedMasterId = "B6803316-6B37-45A2-910F-F0CA711B465A";
layerId = "7FBA88B1-D2E5-421E-9D0C-4511EBDE82DB";
name = "Mar 27 19, 13:47";
paths = (
{
closed = 1;
nodes = (
"240 0 LINE",
"240 700 LINE",
"140 700 LINE",
"140 0 LINE"
);
},
{
closed = 1;
nodes = (
"140 0 LINE",
"140 84 LINE",
"140 36 OFFCURVE",
"105 17 OFFCURVE",
"40 10 CURVE",
"40 0 LINE"
);
},
{
closed = 1;
nodes = (
"340 0 LINE",
"340 10 LINE",
"275 17 OFFCURVE",
"240 36 OFFCURVE",
"240 84 CURVE",
"240 0 LINE"
);
},
{
closed = 1;
nodes = (
"140 700 LINE",
"40 700 LINE",
"40 690 LINE",
"105 683 OFFCURVE",
"140 664 OFFCURVE",
"140 616 CURVE"
);
},
{
closed = 1;
nodes = (
"240 664 OFFCURVE",
"275 683 OFFCURVE",
"340 690 CURVE",
"340 700 LINE",
"240 700 LINE",
"240 616 LINE"
);
}
);
width = 380;
},
{
associatedMasterId = "1127FDDC-7967-4E0A-BDB2-81E1CCE90981";
layerId = "2D137380-BB53-4989-B389-17542F335D0F";
name = "Mar 27 19, 13:48";
paths = (
{
closed = 1;
nodes = (
"310 0 LINE",
"310 700 LINE",
"210 700 LINE",
"210 0 LINE"
);
},
{
closed = 1;
nodes = (
"210 0 LINE",
"210 124 LINE",
"210 37 OFFCURVE",
"124 17 OFFCURVE",
"40 10 CURVE",
"40 0 LINE"
);
},
{
closed = 1;
nodes = (
"480 0 LINE",
"480 10 LINE",
"396 17 OFFCURVE",
"310 37 OFFCURVE",
"310 124 CURVE",
"310 0 LINE"
);
},
{
closed = 1;
nodes = (
"210 700 LINE",
"40 700 LINE",
"40 690 LINE",
"124 683 OFFCURVE",
"210 663 OFFCURVE",
"210 576 CURVE"
);
},
{
closed = 1;
nodes = (
"310 663 OFFCURVE",
"396 683 OFFCURVE",
"480 690 CURVE",
"480 700 LINE",
"310 700 LINE",
"310 576 LINE"
);
}
);
width = 520;
}
);
leftKerningGroup = H;
rightKerningGroup = H;
unicode = 0049;
},
{
glyphname = J;
lastChange = "2020-01-08 17:39:37 +0000";
layers = (
{
guideLines = (
{
angle = 90;
position = "{-236, 195}";
}
);
layerId = "1127FDDC-7967-4E0A-BDB2-81E1CCE90981";
paths = (
{
closed = 1;
nodes = (
"44 700 LINE",
"44 690 LINE",
"123 683 OFFCURVE",
"213 663 OFFCURVE",
"213 576 CURVE SMOOTH",
"213 13 LINE SMOOTH",
"213 -123 OFFCURVE",
"117 -189 OFFCURVE",
"24 -189 CURVE SMOOTH",
"-72 -189 OFFCURVE",
"-151 -139 OFFCURVE",
"-189 -74 CURVE",
"-210 -87 LINE",
"-167 -163 OFFCURVE",
"-72 -216 OFFCURVE",
"39 -216 CURVE SMOOTH",
"191 -216 OFFCURVE",
"313 -132 OFFCURVE",
"313 54 CURVE SMOOTH",
"313 576 LINE SMOOTH",
"313 663 OFFCURVE",
"399 683 OFFCURVE",
"483 690 CURVE",
"483 700 LINE"
);
}
);
width = 526;
},
{
layerId = "B6803316-6B37-45A2-910F-F0CA711B465A";
paths = (
{
closed = 1;
nodes = (
"19 700 LINE",
"19 690 LINE",
"84 683 OFFCURVE",
"119 665 OFFCURVE",
"119 616 CURVE SMOOTH",
"119 4 LINE SMOOTH",
"119 -120 OFFCURVE",
"95 -180 OFFCURVE",
"13 -180 CURVE SMOOTH",
"-52 -180 OFFCURVE",
"-105 -148 OFFCURVE",
"-129 -105 CURVE",
"-150 -117 LINE",
"-123 -171 OFFCURVE",
"-53 -215 OFFCURVE",
"35 -215 CURVE SMOOTH",
"145 -215 OFFCURVE",
"214 -147 OFFCURVE",
"214 4 CURVE SMOOTH",
"214 616 LINE SMOOTH",
"214 664 OFFCURVE",
"249 683 OFFCURVE",
"314 690 CURVE",
"314 700 LINE"
);
}
);
width = 332;
},
{
associatedMasterId = "1127FDDC-7967-4E0A-BDB2-81E1CCE90981";
layerId = "A5C4C99E-5087-45EA-87B9-BA082439198B";
name = "Feb 10 19, 18:01";
paths = (
{
closed = 1;
nodes = (
"-133 -171 OFFCURVE",
"-63 -215 OFFCURVE",
"25 -215 CURVE SMOOTH",
"127 -215 OFFCURVE",
"209 -136 OFFCURVE",
"209 4 CURVE SMOOTH",
"209 700 LINE",
"109 700 LINE",
"109 4 LINE SMOOTH",
"109 -120 OFFCURVE",
"51 -180 OFFCURVE",
"3 -180 CURVE SMOOTH",
"-62 -180 OFFCURVE",
"-115 -148 OFFCURVE",
"-139 -105 CURVE",
"-160 -117 LINE"
);
},
{
closed = 1;
nodes = (
"110 700 LINE",
"-60 700 LINE",
"-60 690 LINE",
"24 683 OFFCURVE",
"110 663 OFFCURVE",
"110 576 CURVE"
);
},
{
closed = 1;
nodes = (
"209 663 OFFCURVE",
"295 683 OFFCURVE",
"379 690 CURVE",
"379 700 LINE",
"209 700 LINE",
"209 576 LINE"
);
}
);
width = 319;
},
{
layerId = "52EA2D2A-A4E3-47AA-B963-53B6A9E26FA1";
paths = (
{
closed = 1;
nodes = (
"22 700 LINE",
"22 680 LINE",
"47 679 OFFCURVE",
"82 674 OFFCURVE",
"82 616 CURVE SMOOTH",
"82 15 LINE SMOOTH",
"82 -120 OFFCURVE",
"58 -165 OFFCURVE",
"-24 -165 CURVE SMOOTH",
"-89 -165 OFFCURVE",
"-133 -129 OFFCURVE",
"-158 -87 CURVE",
"-187 -107 LINE",
"-160 -161 OFFCURVE",
"-90 -215 OFFCURVE",
"52 -215 CURVE SMOOTH",
"248 -215 OFFCURVE",
"302 -104 OFFCURVE",
"302 44 CURVE SMOOTH",
"302 616 LINE SMOOTH",
"302 674 OFFCURVE",
"337 679 OFFCURVE",
"362 680 CURVE",
"362 700 LINE"
);
}
);
width = 383;
},
{
layerId = "ECEC25EE-2268-427F-924A-A8A033D1E43A";
paths = (
{
closed = 1;
nodes = (
"39 700 LINE",
"39 690 LINE",
"115 683 OFFCURVE",
"139 679 OFFCURVE",
"139 631 CURVE SMOOTH",
"139 4 LINE SMOOTH",
"139 -120 OFFCURVE",
"105 -190 OFFCURVE",
"13 -190 CURVE SMOOTH",
"-42 -190 OFFCURVE",
"-102 -148 OFFCURVE",
"-128 -108 CURVE",
"-140 -117 LINE",
"-113 -171 OFFCURVE",
"-43 -215 OFFCURVE",
"35 -215 CURVE SMOOTH",
"135 -215 OFFCURVE",
"184 -142 OFFCURVE",
"184 4 CURVE SMOOTH",
"184 631 LINE SMOOTH",
"184 679 OFFCURVE",
"218 683 OFFCURVE",
"284 690 CURVE",
"284 700 LINE"
);
}
);
width = 322;
},
{
layerId = "C70D92E6-6044-4AAB-ADF3-B84826DC9CB7";
paths = (
{
closed = 1;
nodes = (
"49 700 LINE",
"49 690 LINE",
"145 683 OFFCURVE",
"219 682 OFFCURVE",
"219 596 CURVE SMOOTH",
"219 13 LINE SMOOTH",
"219 -143 OFFCURVE",
"123 -193 OFFCURVE",
"-25 -193 CURVE SMOOTH",
"-121 -193 OFFCURVE",
"-207 -143 OFFCURVE",
"-246 -79 CURVE",
"-259 -87 LINE",
"-216 -163 OFFCURVE",
"-121 -216 OFFCURVE",
"-10 -216 CURVE SMOOTH",
"143 -216 OFFCURVE",
"264 -171 OFFCURVE",
"264 22 CURVE SMOOTH",
"264 596 LINE SMOOTH",
"264 684 OFFCURVE",
"340 683 OFFCURVE",
"434 690 CURVE",
"434 700 LINE"
);
}
);
width = 482;
},
{
associatedMasterId = "ECEC25EE-2268-427F-924A-A8A033D1E43A";
layerId = "EFD0B519-7F09-4AA9-9AC4-22CC6E8765BE";
name = "Apr 12 19, 19:12";
paths = (
{
closed = 1;
nodes = (
"39 700 LINE",
"39 690 LINE",
"115 683 OFFCURVE",
"139 679 OFFCURVE",
"139 631 CURVE SMOOTH",
"139 4 LINE SMOOTH",
"139 -120 OFFCURVE",
"105 -190 OFFCURVE",
"3 -190 CURVE SMOOTH",
"-62 -190 OFFCURVE",
"-122 -148 OFFCURVE",
"-148 -108 CURVE",
"-160 -117 LINE",
"-133 -171 OFFCURVE",
"-63 -215 OFFCURVE",
"25 -215 CURVE SMOOTH",
"135 -215 OFFCURVE",
"184 -147 OFFCURVE",
"184 4 CURVE SMOOTH",
"184 631 LINE SMOOTH",
"184 679 OFFCURVE",
"218 683 OFFCURVE",
"284 690 CURVE",
"284 700 LINE"
);
}
);
width = 324;
},
{
associatedMasterId = "B6803316-6B37-45A2-910F-F0CA711B465A";
layerId = "7972A9FC-DDC1-4E3F-95AD-B2DBE044DAF4";
name = "Apr 12 19, 19:15";
paths = (
{
closed = 1;
nodes = (
"135 -215 OFFCURVE",
"209 -147 OFFCURVE",
"209 4 CURVE SMOOTH",
"209 700 LINE",
"109 700 LINE",
"109 4 LINE SMOOTH",
"109 -120 OFFCURVE",
"85 -180 OFFCURVE",
"3 -180 CURVE SMOOTH",
"-62 -180 OFFCURVE",
"-115 -148 OFFCURVE",
"-139 -105 CURVE",
"-160 -117 LINE",
"-133 -171 OFFCURVE",
"-63 -215 OFFCURVE",
"25 -215 CURVE SMOOTH"
);
},
{
closed = 1;
nodes = (
"109 700 LINE",
"9 700 LINE",
"9 690 LINE",
"74 683 OFFCURVE",
"109 665 OFFCURVE",
"109 616 CURVE"
);
},
{
closed = 1;
nodes = (
"209 664 OFFCURVE",
"244 683 OFFCURVE",
"309 690 CURVE",
"309 700 LINE",
"209 700 LINE",
"209 616 LINE"
);
}
);
width = 319;
},
{
associatedMasterId = "52EA2D2A-A4E3-47AA-B963-53B6A9E26FA1";
layerId = "EA229042-3DE0-4D7A-9FFD-BA6AB6FF0792";
name = "Apr 12 19, 19:19";
paths = (
{
closed = 1;
nodes = (
"29 680 LINE",
"54 679 OFFCURVE",
"89 674 OFFCURVE",
"89 616 CURVE SMOOTH",
"89 15 LINE SMOOTH",
"89 -120 OFFCURVE",
"65 -165 OFFCURVE",
"-17 -165 CURVE SMOOTH",
"-82 -165 OFFCURVE",
"-127 -130 OFFCURVE",
"-151 -87 CURVE",
"-180 -107 LINE",
"-153 -161 OFFCURVE",
"-83 -215 OFFCURVE",
"59 -215 CURVE SMOOTH",
"255 -215 OFFCURVE",
"309 -97 OFFCURVE",
"309 51 CURVE SMOOTH",
"309 616 LINE SMOOTH",
"309 674 OFFCURVE",
"344 679 OFFCURVE",
"369 680 CURVE",
"369 700 LINE",
"29 700 LINE"
);
}
);
width = 384;
},
{
associatedMasterId = "C70D92E6-6044-4AAB-ADF3-B84826DC9CB7";
layerId = "3AB79D18-F12E-4EDC-8977-67FB27D5B6A1";
name = "Apr 12 19, 19:22";
paths = (
{
closed = 1;
nodes = (
"220 191 LINE",
"220 13 LINE SMOOTH",
"220 -143 OFFCURVE",
"124 -193 OFFCURVE",
"-24 -193 CURVE SMOOTH",
"-120 -193 OFFCURVE",
"-207 -144 OFFCURVE",
"-245 -79 CURVE",
"-258 -87 LINE",
"-215 -163 OFFCURVE",
"-120 -216 OFFCURVE",
"-9 -216 CURVE SMOOTH",
"143 -216 OFFCURVE",
"265 -168 OFFCURVE",
"265 54 CURVE SMOOTH",
"265 191 LINE"
);
},
{
closed = 1;
nodes = (
"265 191 LINE",
"265 596 LINE SMOOTH",
"265 684 OFFCURVE",
"341 683 OFFCURVE",
"435 690 CURVE",
"435 700 LINE",
"50 700 LINE",
"50 690 LINE",
"146 683 OFFCURVE",
"220 682 OFFCURVE",
"220 596 CURVE SMOOTH",
"220 191 LINE"
);
}
);
width = 600;
},
{
associatedMasterId = "92782D03-6C32-4A0E-AEF4-B0D65DFAA275";
layerId = "53D5E494-412A-448D-AF08-146CF5FADD3A";
name = "Apr 12 19, 19:43";
paths = (
{
closed = 1;
nodes = (
"20 700 LINE",
"20 676 LINE",
"106 669 OFFCURVE",
"170 676 OFFCURVE",
"170 576 CURVE SMOOTH",
"170 33 LINE SMOOTH",
"170 -103 OFFCURVE",
"110 -171 OFFCURVE",
"5 -171 CURVE SMOOTH",
"-71 -171 OFFCURVE",
"-185 -126 OFFCURVE",
"-222 -69 CURVE",
"-253 -87 LINE",
"-192 -178 OFFCURVE",
"-61 -216 OFFCURVE",
"115 -216 CURVE SMOOTH",
"348 -216 OFFCURVE",
"450 -148 OFFCURVE",
"450 74 CURVE SMOOTH",
"450 576 LINE SMOOTH",
"450 678 OFFCURVE",
"526 669 OFFCURVE",
"600 676 CURVE",
"600 700 LINE"
);
}
);
width = 600;
},
{
layerId = "92782D03-6C32-4A0E-AEF4-B0D65DFAA275";
paths = (
{
closed = 1;
nodes = (
"20 700 LINE",
"20 676 LINE",
"106 669 OFFCURVE",
"170 676 OFFCURVE",
"170 576 CURVE SMOOTH",
"170 13 LINE SMOOTH",
"170 -123 OFFCURVE",
"84 -171 OFFCURVE",
"5 -171 CURVE SMOOTH",
"-71 -171 OFFCURVE",
"-185 -126 OFFCURVE",
"-222 -69 CURVE",
"-253 -87 LINE",
"-139 -257 OFFCURVE",
"210 -265 OFFCURVE",
"370 -94 CURVE SMOOTH",
"431 -28 OFFCURVE",
"450 72 OFFCURVE",
"450 164 CURVE SMOOTH",
"450 576 LINE SMOOTH",
"450 678 OFFCURVE",
"526 669 OFFCURVE",
"600 676 CURVE",
"600 700 LINE"
);
}
);
width = 620;
},
{
associatedMasterId = "92782D03-6C32-4A0E-AEF4-B0D65DFAA275";
layerId = "4724B82E-D970-48C3-8F48-A6B6E160D000";
name = "Apr 12 19, 19:44";
paths = (
{
closed = 1;
nodes = (
"20 700 LINE",
"20 676 LINE",
"106 669 OFFCURVE",
"170 676 OFFCURVE",
"170 576 CURVE SMOOTH",
"170 13 LINE SMOOTH",
"170 -123 OFFCURVE",
"84 -171 OFFCURVE",
"5 -171 CURVE SMOOTH",
"-71 -171 OFFCURVE",
"-185 -126 OFFCURVE",
"-222 -69 CURVE",
"-253 -87 LINE",
"-192 -178 OFFCURVE",
"-61 -216 OFFCURVE",
"115 -216 CURVE SMOOTH",
"338 -216 OFFCURVE",
"450 -132 OFFCURVE",
"450 54 CURVE SMOOTH",
"450 576 LINE SMOOTH",
"450 678 OFFCURVE",
"526 669 OFFCURVE",
"600 676 CURVE",
"600 700 LINE"
);
}
);
width = 600;
}
);
leftKerningGroup = J;
rightKerningGroup = J;
unicode = 004A;
},
{
glyphname = K;
lastChange = "2020-01-09 10:58:10 +0000";
layers = (
{
guideLines = (
{
angle = 90;
position = "{633, 265}";
}
);
layerId = "1127FDDC-7967-4E0A-BDB2-81E1CCE90981";
paths = (
{
closed = 1;
nodes = (
"599 490 LINE",
"811 588 LINE SMOOTH",
"961 655 OFFCURVE",
"1070 683 OFFCURVE",
"1152 690 CURVE",
"1152 700 LINE",
"808 700 LINE",
"808 690 LINE",
"899 683 OFFCURVE",
"876 649 OFFCURVE",
"735 582 CURVE SMOOTH",
"324 392 LINE",
"324 576 LINE SMOOTH",
"324 663 OFFCURVE",
"410 683 OFFCURVE",
"494 690 CURVE",
"494 700 LINE",
"49 700 LINE",
"49 690 LINE",
"133 683 OFFCURVE",
"219 663 OFFCURVE",
"219 576 CURVE SMOOTH",
"219 124 LINE SMOOTH",
"219 37 OFFCURVE",
"133 17 OFFCURVE",
"49 10 CURVE",
"49 0 LINE",
"494 0 LINE",
"494 10 LINE",
"410 17 OFFCURVE",
"324 37 OFFCURVE",
"324 124 CURVE SMOOTH",
"324 362 LINE",
"500 443 LINE",
"783 136 LINE SMOOTH",
"848 63 OFFCURVE",
"821 17 OFFCURVE",
"739 10 CURVE",
"739 0 LINE",
"1192 0 LINE",
"1192 10 LINE",
"1113 17 OFFCURVE",
"1020 35 OFFCURVE",
"930 132 CURVE SMOOTH"
);
}
);
width = 1207;
},
{
guideLines = (
{
angle = 90;
position = "{584, 265}";
}
);
layerId = "B6803316-6B37-45A2-910F-F0CA711B465A";
paths = (
{
closed = 1;
nodes = (
"327 526 LINE",
"426 615 LINE SMOOTH",
"459 645 OFFCURVE",
"553 683 OFFCURVE",
"618 690 CURVE",
"618 700 LINE",
"381 700 LINE",
"381 690 LINE",
"442 683 OFFCURVE",
"437 662 OFFCURVE",
"402 628 CURVE",
"220 464 LINE",
"220 616 LINE SMOOTH",
"220 664 OFFCURVE",
"255 683 OFFCURVE",
"320 690 CURVE",
"320 700 LINE",
"25 700 LINE",
"25 690 LINE",
"90 683 OFFCURVE",
"125 664 OFFCURVE",
"125 616 CURVE SMOOTH",
"125 84 LINE SMOOTH",
"125 36 OFFCURVE",
"90 17 OFFCURVE",
"25 10 CURVE",
"25 0 LINE",
"320 0 LINE",
"320 10 LINE",
"255 17 OFFCURVE",
"220 36 OFFCURVE",
"220 84 CURVE SMOOTH",
"220 428 LINE",
"249 457 LINE",
"430 82 LINE SMOOTH",
"452 33 OFFCURVE",
"434 17 OFFCURVE",
"370 10 CURVE",
"370 0 LINE",
"678 0 LINE",
"678 10 LINE",
"619 16 OFFCURVE",
"560 35 OFFCURVE",
"529 101 CURVE SMOOTH"
);
}
);
width = 702;
},
{
associatedMasterId = "B6803316-6B37-45A2-910F-F0CA711B465A";
guideLines = (
{
angle = 90;
position = "{604, 265}";
}
);
layerId = "1084F063-1C1F-4272-A61F-024CA50C5376";
name = "Feb 10 19, 17:46";
paths = (
{
closed = 1;
nodes = (
"604 0 LINE",
"345 541 LINE",
"263 470 LINE",
"490 0 LINE"
);
},
{
closed = 1;
nodes = (
"140 0 LINE",
"140 84 LINE",
"140 36 OFFCURVE",
"105 17 OFFCURVE",
"40 10 CURVE",
"40 0 LINE"
);
},
{
closed = 1;
nodes = (
"340 0 LINE",
"340 10 LINE",
"275 17 OFFCURVE",
"240 36 OFFCURVE",
"240 84 CURVE",
"240 0 LINE"
);
},
{
closed = 1;
nodes = (
"490 0 LINE",
"449 85 LINE",
"473 34 OFFCURVE",
"455 17 OFFCURVE",
"390 10 CURVE",
"390 0 LINE"
);
},
{
closed = 1;
nodes = (
"240 0 LINE",
"240 700 LINE",
"140 700 LINE",
"140 0 LINE"
);
},
{
closed = 1;
nodes = (
"704 0 LINE",
"704 10 LINE",
"639 17 OFFCURVE",
"581 49 OFFCURVE",
"559 94 CURVE",
"604 0 LINE"
);
},
{
closed = 1;
nodes = (
"140 700 LINE",
"40 700 LINE",
"40 690 LINE",
"105 683 OFFCURVE",
"140 664 OFFCURVE",
"140 616 CURVE"
);
},
{
closed = 1;
nodes = (
"537 700 LINE",
"501 700 LINE",
"194 422 LINE",
"199 394 LINE"
);
},
{
closed = 1;
nodes = (
"240 664 OFFCURVE",
"275 683 OFFCURVE",
"340 690 CURVE",
"340 700 LINE",
"240 700 LINE",
"240 616 LINE"
);
},
{
closed = 1;
nodes = (
"501 700 LINE",
"401 700 LINE",
"401 690 LINE",
"466 683 OFFCURVE",
"456 659 OFFCURVE",
"415 622 CURVE"
);
},
{
closed = 1;
nodes = (
"474 643 OFFCURVE",
"572 683 OFFCURVE",
"637 690 CURVE",
"637 700 LINE",
"537 700 LINE",
"442 614 LINE"
);
}
);
width = 704;
},
{
associatedMasterId = "1127FDDC-7967-4E0A-BDB2-81E1CCE90981";
guideLines = (
{
angle = 90;
position = "{604, 265}";
}
);
layerId = "B640D8F3-1F7B-430D-A734-A40D39DD8E65";
name = "Feb 10 19, 17:52";
paths = (
{
closed = 1;
nodes = (
"1023 0 LINE",
"561 500 LINE",
"462 453 LINE",
"880 0 LINE"
);
},
{
closed = 1;
nodes = (
"190 0 LINE",
"190 124 LINE",
"190 37 OFFCURVE",
"104 17 OFFCURVE",
"20 10 CURVE",
"20 0 LINE"
);
},
{
closed = 1;
nodes = (
"465 0 LINE",
"465 10 LINE",
"381 17 OFFCURVE",
"295 37 OFFCURVE",
"295 124 CURVE",
"295 0 LINE"
);
},
{
closed = 1;
nodes = (
"295 0 LINE",
"295 700 LINE",
"190 700 LINE",
"190 0 LINE"
);
},
{
closed = 1;
nodes = (
"190 700 LINE",
"20 700 LINE",
"20 690 LINE",
"104 683 OFFCURVE",
"190 663 OFFCURVE",
"190 576 CURVE"
);
},
{
closed = 1;
nodes = (
"880 0 LINE",
"750 141 LINE",
"820 65 OFFCURVE",
"794 17 OFFCURVE",
"710 10 CURVE",
"710 0 LINE"
);
},
{
closed = 1;
nodes = (
"295 663 OFFCURVE",
"381 683 OFFCURVE",
"465 690 CURVE",
"465 700 LINE",
"295 700 LINE",
"295 576 LINE"
);
},
{
closed = 1;
nodes = (
"1193 0 LINE",
"1193 10 LINE",
"1109 17 OFFCURVE",
"961 67 OFFCURVE",
"891 143 CURVE",
"1023 0 LINE"
);
},
{
closed = 1;
nodes = (
"1023 700 LINE",
"959 700 LINE",
"261 376 LINE",
"274 352 LINE"
);
},
{
closed = 1;
nodes = (
"959 700 LINE",
"789 700 LINE",
"789 690 LINE",
"873 683 OFFCURVE",
"845 647 OFFCURVE",
"692 576 CURVE"
);
},
{
closed = 1;
nodes = (
"924 654 OFFCURVE",
"1079 683 OFFCURVE",
"1163 690 CURVE",
"1163 700 LINE",
"1023 700 LINE",
"771 583 LINE"
);
}
);
width = 1193;
},
{
layerId = "52EA2D2A-A4E3-47AA-B963-53B6A9E26FA1";
paths = (
{
closed = 1;
nodes = (
"494 604 LINE",
"516 623 LINE",
"583 674 OFFCURVE",
"644 679 OFFCURVE",
"668 680 CURVE",
"668 700 LINE",
"494 700 LINE",
"494 680 LINE",
"516 679 OFFCURVE",
"521 675 OFFCURVE",
"478 636 CURVE",
"305 490 LINE",
"305 616 LINE SMOOTH",
"305 674 OFFCURVE",
"340 679 OFFCURVE",
"365 680 CURVE",
"365 700 LINE",
"25 700 LINE",
"25 680 LINE",
"50 679 OFFCURVE",
"85 674 OFFCURVE",
"85 616 CURVE SMOOTH",
"85 84 LINE SMOOTH",
"85 26 OFFCURVE",
"50 21 OFFCURVE",
"25 20 CURVE",
"25 0 LINE",
"365 0 LINE",
"365 20 LINE",
"340 21 OFFCURVE",
"305 26 OFFCURVE",
"305 84 CURVE SMOOTH",
"305 444 LINE",
"316 454 LINE",
"458 78 LINE SMOOTH",
"474 25 OFFCURVE",
"450 21 OFFCURVE",
"426 20 CURVE",
"426 0 LINE",
"784 0 LINE",
"784 20 LINE",
"759 21 OFFCURVE",
"719 25 OFFCURVE",
"695 75 CURVE SMOOTH"
);
}
);
width = 783;
},
{
layerId = "ECEC25EE-2268-427F-924A-A8A033D1E43A";
paths = (
{
closed = 1;
nodes = (
"340 538 LINE",
"451 639 LINE SMOOTH",
"501 681 OFFCURVE",
"546 683 OFFCURVE",
"618 690 CURVE",
"618 700 LINE",
"395 700 LINE",
"395 690 LINE",
"458 683 OFFCURVE",
"469 679 OFFCURVE",
"423 635 CURVE SMOOTH",
"189 423 LINE",
"189 630 LINE SMOOTH",
"189 678 OFFCURVE",
"223 682 OFFCURVE",
"289 689 CURVE",
"289 699 LINE",
"44 699 LINE",
"44 689 LINE",
"120 682 OFFCURVE",
"144 678 OFFCURVE",
"144 630 CURVE SMOOTH",
"144 68 LINE SMOOTH",
"144 20 OFFCURVE",
"119 16 OFFCURVE",
"44 9 CURVE",
"44 -1 LINE",
"289 -1 LINE",
"289 9 LINE",
"224 16 OFFCURVE",
"189 20 OFFCURVE",
"189 68 CURVE SMOOTH",
"189 401 LINE",
"304 506 LINE",
"519 62 LINE SMOOTH",
"539 21 OFFCURVE",
"511 17 OFFCURVE",
"449 10 CURVE",
"449 0 LINE",
"698 0 LINE",
"698 10 LINE",
"629 16 OFFCURVE",
"588 21 OFFCURVE",
"570 59 CURVE SMOOTH"
);
}
);
width = 736;
},
{
layerId = "92782D03-6C32-4A0E-AEF4-B0D65DFAA275";
paths = (
{
closed = 1;
nodes = (
"772 548 LINE",
"880 598 LINE SMOOTH",
"1054 677 OFFCURVE",
"1138 675 OFFCURVE",
"1209 676 CURVE",
"1209 700 LINE",
"866 700 LINE",
"866 676 LINE",
"928 675 OFFCURVE",
"948 671 OFFCURVE",
"791 596 CURVE SMOOTH",
"457 441 LINE",
"457 576 LINE SMOOTH",
"457 678 OFFCURVE",
"533 675 OFFCURVE",
"607 676 CURVE",
"607 700 LINE",
"27 700 LINE",
"27 676 LINE",
"113 675 OFFCURVE",
"177 676 OFFCURVE",
"177 576 CURVE SMOOTH",
"177 124 LINE SMOOTH",
"177 24 OFFCURVE",
"113 28 OFFCURVE",
"27 24 CURVE",
"27 0 LINE",
"607 0 LINE",
"607 24 LINE",
"533 28 OFFCURVE",
"457 22 OFFCURVE",
"457 124 CURVE SMOOTH",
"457 402 LINE",
"514 428 LINE",
"726 111 LINE SMOOTH",
"780 18 OFFCURVE",
"720 26 OFFCURVE",
"650 24 CURVE",
"650 0 LINE",
"1276 0 LINE",
"1276 24 LINE",
"1214 25 OFFCURVE",
"1130 20 OFFCURVE",
"1059 117 CURVE SMOOTH"
);
}
);
width = 1296;
},
{
layerId = "C70D92E6-6044-4AAB-ADF3-B84826DC9CB7";
paths = (
{
closed = 1;
nodes = (
"606 498 LINE",
"832 603 LINE SMOOTH",
"1013 684 OFFCURVE",
"1095 683 OFFCURVE",
"1186 690 CURVE",
"1186 700 LINE",
"832 700 LINE",
"832 690 LINE",
"921 683 OFFCURVE",
"961 684 OFFCURVE",
"807 610 CURVE SMOOTH",
"269 359 LINE",
"269 596 LINE SMOOTH",
"269 684 OFFCURVE",
"345 683 OFFCURVE",
"439 690 CURVE",
"439 700 LINE",
"54 700 LINE",
"54 690 LINE",
"150 683 OFFCURVE",
"224 682 OFFCURVE",
"224 596 CURVE SMOOTH",
"224 104 LINE SMOOTH",
"224 18 OFFCURVE",
"150 17 OFFCURVE",
"54 10 CURVE",
"54 0 LINE",
"439 0 LINE",
"439 10 LINE",
"345 17 OFFCURVE",
"269 16 OFFCURVE",
"269 104 CURVE SMOOTH",
"269 341 LINE",
"563 478 LINE",
"910 102 LINE SMOOTH",
"987 16 OFFCURVE",
"927 17 OFFCURVE",
"834 10 CURVE",
"834 0 LINE",
"1210 0 LINE",
"1210 10 LINE",
"1122 17 OFFCURVE",
"1059 16 OFFCURVE",
"985 88 CURVE SMOOTH"
);
}
);
width = 1262;
},
{
associatedMasterId = "52EA2D2A-A4E3-47AA-B963-53B6A9E26FA1";
layerId = "7BDC78B7-C495-4995-9E3A-EED1E917F6AC";
name = "Mar 31 19, 17:18";
paths = (
{
closed = 1;
nodes = (
"598 700 LINE",
"544 700 LINE",
"214 422 LINE",
"234 393 LINE"
);
},
{
closed = 1;
nodes = (
"713 0 LINE",
"481 613 LINE",
"296 481 LINE",
"477 0 LINE"
);
},
{
closed = 1;
nodes = (
"713 0 LINE",
"774 0 LINE",
"774 20 LINE",
"748 21 OFFCURVE",
"705 25 OFFCURVE",
"681 83 CURVE"
);
},
{
closed = 1;
nodes = (
"355 0 LINE",
"355 20 LINE",
"330 21 OFFCURVE",
"295 26 OFFCURVE",
"295 84 CURVE SMOOTH",
"295 616 LINE SMOOTH",
"295 674 OFFCURVE",
"330 679 OFFCURVE",
"355 680 CURVE",
"355 700 LINE",
"15 700 LINE",
"15 680 LINE",
"40 679 OFFCURVE",
"75 674 OFFCURVE",
"75 616 CURVE SMOOTH",
"75 84 LINE SMOOTH",
"75 26 OFFCURVE",
"40 21 OFFCURVE",
"15 20 CURVE",
"15 0 LINE"
);
},
{
closed = 1;
nodes = (
"466 25 OFFCURVE",
"441 21 OFFCURVE",
"416 20 CURVE",
"416 0 LINE",
"477 0 LINE",
"446 83 LINE"
);
},
{
closed = 1;
nodes = (
"568 674 OFFCURVE",
"633 679 OFFCURVE",
"658 680 CURVE",
"658 700 LINE",
"598 700 LINE",
"498 616 LINE"
);
},
{
closed = 1;
nodes = (
"544 700 LINE",
"484 700 LINE",
"484 680 LINE",
"509 679 OFFCURVE",
"512 673 OFFCURVE",
"444 615 CURVE"
);
}
);
width = 774;
},
{
associatedMasterId = "ECEC25EE-2268-427F-924A-A8A033D1E43A";
layerId = "77EE3D35-2C30-41D5-AC96-B088FFB2FC98";
name = "Mar 31 19, 17:18";
paths = (
{
closed = 1;
nodes = (
"195 630 LINE",
"195 678 OFFCURVE",
"229 682 OFFCURVE",
"295 689 CURVE",
"295 699 LINE",
"50 699 LINE",
"50 689 LINE",
"126 682 OFFCURVE",
"150 678 OFFCURVE",
"150 630 CURVE SMOOTH",
"150 68 LINE",
"150 20 OFFCURVE",
"125 16 OFFCURVE",
"50 9 CURVE",
"50 -1 LINE",
"295 -1 LINE",
"295 9 LINE",
"230 16 OFFCURVE",
"195 20 OFFCURVE",
"195 68 CURVE"
);
},
{
closed = 1;
nodes = (
"604 0 LINE",
"345 541 LINE",
"307 513 LINE",
"555 0 LINE"
);
},
{
closed = 1;
nodes = (
"525 700 LINE",
"501 700 LINE",
"194 422 LINE",
"187 394 LINE"
);
},
{
closed = 1;
nodes = (
"555 0 LINE",
"522 69 LINE",
"544 21 OFFCURVE",
"520 17 OFFCURVE",
"455 10 CURVE",
"455 0 LINE"
);
},
{
closed = 1;
nodes = (
"704 0 LINE",
"704 10 LINE",
"629 17 OFFCURVE",
"595 22 OFFCURVE",
"571 69 CURVE",
"604 0 LINE"
);
},
{
closed = 1;
nodes = (
"401 690 LINE",
"466 683 OFFCURVE",
"476 679 OFFCURVE",
"425 631 CURVE",
"501 700 LINE",
"401 700 LINE"
);
},
{
closed = 1;
nodes = (
"451 633 LINE",
"504 681 OFFCURVE",
"549 683 OFFCURVE",
"624 690 CURVE",
"624 700 LINE",
"525 700 LINE"
);
}
);
width = 704;
},
{
associatedMasterId = "C70D92E6-6044-4AAB-ADF3-B84826DC9CB7";
layerId = "50539929-E58C-47DD-B4E2-D538BA4EF9A4";
name = "Mar 31 19, 17:25";
paths = (
{
closed = 1;
nodes = (
"1062 0 LINE",
"600 500 LINE",
"554 483 LINE",
"1000 0 LINE"
);
},
{
closed = 1;
nodes = (
"1037 700 LINE",
"998 700 LINE",
"264 359 LINE",
"252 335 LINE"
);
},
{
closed = 1;
nodes = (
"265 596 LINE SMOOTH",
"265 684 OFFCURVE",
"341 683 OFFCURVE",
"435 690 CURVE",
"435 700 LINE",
"50 700 LINE",
"50 690 LINE",
"146 683 OFFCURVE",
"220 682 OFFCURVE",
"220 596 CURVE SMOOTH",
"220 104 LINE SMOOTH",
"220 18 OFFCURVE",
"146 17 OFFCURVE",
"50 10 CURVE",
"50 0 LINE",
"435 0 LINE",
"435 10 LINE",
"341 17 OFFCURVE",
"265 16 OFFCURVE",
"265 104 CURVE SMOOTH"
);
},
{
closed = 1;
nodes = (
"1062 0 LINE",
"1206 0 LINE",
"1206 10 LINE",
"1112 17 OFFCURVE",
"1048 16 OFFCURVE",
"966 104 CURVE"
);
},
{
closed = 1;
nodes = (
"984 16 OFFCURVE",
"924 17 OFFCURVE",
"830 10 CURVE",
"830 0 LINE",
"1000 0 LINE",
"904 104 LINE"
);
},
{
closed = 1;
nodes = (
"1004 684 OFFCURVE",
"1088 683 OFFCURVE",
"1182 690 CURVE",
"1182 700 LINE",
"1037 700 LINE",
"813 596 LINE"
);
},
{
closed = 1;
nodes = (
"998 700 LINE",
"828 700 LINE",
"828 690 LINE",
"922 683 OFFCURVE",
"961 684 OFFCURVE",
"775 596 CURVE"
);
}
);
width = 1206;
},
{
associatedMasterId = "92782D03-6C32-4A0E-AEF4-B0D65DFAA275";
layerId = "3FFC66BD-5B8C-45A5-B2D5-174CBA7C0CCC";
name = "Mar 31 19, 17:45";
paths = (
{
closed = 1;
nodes = (
"1093 700 LINE",
"1009 700 LINE",
"311 376 LINE",
"343 352 LINE"
);
},
{
closed = 1;
nodes = (
"1130 0 LINE",
"748 573 LINE",
"494 448 LINE",
"793 0 LINE"
);
},
{
closed = 1;
nodes = (
"1130 0 LINE",
"1269 0 LINE",
"1269 24 LINE",
"1206 25 OFFCURVE",
"1119 20 OFFCURVE",
"1047 124 CURVE"
);
},
{
closed = 1;
nodes = (
"779 17 OFFCURVE",
"716 26 OFFCURVE",
"643 24 CURVE",
"643 0 LINE",
"793 0 LINE",
"711 124 LINE"
);
},
{
closed = 1;
nodes = (
"450 576 LINE SMOOTH",
"450 678 OFFCURVE",
"526 675 OFFCURVE",
"600 676 CURVE",
"600 700 LINE",
"20 700 LINE",
"20 676 LINE",
"106 675 OFFCURVE",
"170 676 OFFCURVE",
"170 576 CURVE SMOOTH",
"170 124 LINE SMOOTH",
"170 24 OFFCURVE",
"106 28 OFFCURVE",
"20 24 CURVE",
"20 0 LINE",
"600 0 LINE",
"600 24 LINE",
"526 28 OFFCURVE",
"450 22 OFFCURVE",
"450 124 CURVE SMOOTH"
);
},
{
closed = 1;
nodes = (
"1042 677 OFFCURVE",
"1129 676 OFFCURVE",
"1202 676 CURVE",
"1202 700 LINE",
"1092 700 LINE",
"858 591 LINE"
);
},
{
closed = 1;
nodes = (
"1009 700 LINE",
"859 700 LINE",
"859 676 LINE",
"923 675 OFFCURVE",
"943 671 OFFCURVE",
"764 586 CURVE"
);
}
);
width = 1269;
}
);
leftKerningGroup = H;
rightKerningGroup = K;
unicode = 004B;
},
{
glyphname = L;
lastChange = "2020-01-08 16:00:35 +0000";
layers = (
{
layerId = "1127FDDC-7967-4E0A-BDB2-81E1CCE90981";
paths = (
{
closed = 1;
nodes = (
"864 145 OFFCURVE",
"835 24 OFFCURVE",
"698 25 CURVE SMOOTH",
"319 25 LINE",
"319 576 LINE",
"319 665 OFFCURVE",
"411 684 OFFCURVE",
"487 690 CURVE",
"487 700 LINE",
"49 700 LINE",
"49 690 LINE",
"133 683 OFFCURVE",
"219 665 OFFCURVE",
"219 576 CURVE SMOOTH",
"219 124 LINE SMOOTH",
"219 37 OFFCURVE",
"133 17 OFFCURVE",
"49 10 CURVE",
"49 0 LINE",
"881 0 LINE",
"881 245 LINE",
"871 245 LINE"
);
}
);
width = 952;
},
{
layerId = "B6803316-6B37-45A2-910F-F0CA711B465A";
paths = (
{
closed = 1;
nodes = (
"480 126 OFFCURVE",
"437 25 OFFCURVE",
"344 25 CURVE SMOOTH",
"225 25 LINE",
"225 616 LINE SMOOTH",
"225 664 OFFCURVE",
"260 683 OFFCURVE",
"325 690 CURVE",
"325 700 LINE",
"30 700 LINE",
"30 690 LINE",
"95 683 OFFCURVE",
"130 664 OFFCURVE",
"130 616 CURVE SMOOTH",
"130 84 LINE SMOOTH",
"130 36 OFFCURVE",
"95 17 OFFCURVE",
"30 10 CURVE",
"30 0 LINE",
"497 0 LINE",
"497 225 LINE",
"487 225 LINE"
);
}
);
width = 542;
},
{
layerId = "52EA2D2A-A4E3-47AA-B963-53B6A9E26FA1";
paths = (
{
closed = 1;
nodes = (
"540 156 OFFCURVE",
"517 25 OFFCURVE",
"354 25 CURVE SMOOTH",
"305 25 LINE",
"305 616 LINE SMOOTH",
"305 674 OFFCURVE",
"340 679 OFFCURVE",
"365 680 CURVE",
"365 700 LINE",
"25 700 LINE",
"25 680 LINE",
"50 679 OFFCURVE",
"85 674 OFFCURVE",
"85 616 CURVE SMOOTH",
"85 84 LINE SMOOTH",
"85 26 OFFCURVE",
"50 21 OFFCURVE",
"25 20 CURVE",
"25 0 LINE",
"567 0 LINE",
"567 245 LINE",
"547 245 LINE"
);
}
);
width = 594;
},
{
layerId = "ECEC25EE-2268-427F-924A-A8A033D1E43A";
paths = (
{
closed = 1;
nodes = (
"490 76 OFFCURVE",
"470 23 OFFCURVE",
"379 15 CURVE",
"189 15 LINE",
"189 631 LINE SMOOTH",
"189 679 OFFCURVE",
"223 683 OFFCURVE",
"289 690 CURVE",
"289 700 LINE",
"44 700 LINE",
"44 690 LINE",
"110 683 OFFCURVE",
"144 679 OFFCURVE",
"144 631 CURVE SMOOTH",
"144 69 LINE SMOOTH",
"144 21 OFFCURVE",
"109 17 OFFCURVE",
"44 10 CURVE",
"44 0 LINE",
"506 0 LINE",
"506 214 LINE",
"496 214 LINE"
);
}
);
width = 559;
},
{
layerId = "92782D03-6C32-4A0E-AEF4-B0D65DFAA275";
paths = (
{
closed = 1;
nodes = (
"932 126 OFFCURVE",
"853 35 OFFCURVE",
"686 35 CURVE SMOOTH",
"457 35 LINE",
"457 576 LINE SMOOTH",
"457 676 OFFCURVE",
"521 669 OFFCURVE",
"607 676 CURVE",
"607 700 LINE",
"27 700 LINE",
"27 676 LINE",
"113 669 OFFCURVE",
"177 676 OFFCURVE",
"177 576 CURVE SMOOTH",
"177 124 LINE SMOOTH",
"177 24 OFFCURVE",
"113 31 OFFCURVE",
"27 24 CURVE",
"27 0 LINE",
"959 0 LINE",
"959 245 LINE",
"939 245 LINE"
);
}
);
width = 1005;
},
{
layerId = "C70D92E6-6044-4AAB-ADF3-B84826DC9CB7";
paths = (
{
closed = 1;
nodes = (
"931 106 OFFCURVE",
"911 23 OFFCURVE",
"820 15 CURVE",
"269 15 LINE",
"269 596 LINE SMOOTH",
"269 682 OFFCURVE",
"343 683 OFFCURVE",
"439 690 CURVE",
"439 700 LINE",
"54 700 LINE",
"54 690 LINE",
"150 683 OFFCURVE",
"224 682 OFFCURVE",
"224 596 CURVE SMOOTH",
"224 104 LINE SMOOTH",
"224 18 OFFCURVE",
"150 17 OFFCURVE",
"54 10 CURVE",
"54 0 LINE",
"947 0 LINE",
"947 244 LINE",
"937 244 LINE"
);
}
);
width = 1022;
},
{
associatedMasterId = "ECEC25EE-2268-427F-924A-A8A033D1E43A";
layerId = "8E75D47F-84FB-446D-83B0-795984CA3B66";
name = "Mar 26 19, 17:27";
paths = (
{
closed = 1;
nodes = (
"185 0 LINE",
"185 700 LINE",
"140 700 LINE",
"140 0 LINE"
);
},
{
closed = 1;
nodes = (
"502 0 LINE",
"502 15 LINE",
"154 15 LINE",
"154 0 LINE"
);
},
{
closed = 1;
nodes = (
"140 0 LINE",
"140 69 LINE",
"140 21 OFFCURVE",
"105 17 OFFCURVE",
"40 10 CURVE",
"40 0 LINE"
);
},
{
closed = 1;
nodes = (
"140 700 LINE",
"40 700 LINE",
"40 690 LINE",
"106 683 OFFCURVE",
"140 679 OFFCURVE",
"140 631 CURVE"
);
},
{
closed = 1;
nodes = (
"485 64 OFFCURVE",
"462 14 OFFCURVE",
"349 14 CURVE",
"502 14 LINE",
"502 214 LINE",
"492 214 LINE"
);
},
{
closed = 1;
nodes = (
"185 679 OFFCURVE",
"219 683 OFFCURVE",
"285 690 CURVE",
"285 700 LINE",
"185 700 LINE",
"185 631 LINE"
);
}
);
width = 600;
},
{
associatedMasterId = "1127FDDC-7967-4E0A-BDB2-81E1CCE90981";
layerId = "5279052B-4B24-422F-94FC-81B37E42A5AC";
name = "Mar 26 19, 17:27";
paths = (
{
closed = 1;
nodes = (
"310 0 LINE",
"310 700 LINE",
"210 700 LINE",
"210 0 LINE"
);
},
{
closed = 1;
nodes = (
"210 0 LINE",
"210 124 LINE",
"210 37 OFFCURVE",
"124 17 OFFCURVE",
"40 10 CURVE",
"40 0 LINE"
);
},
{
closed = 1;
nodes = (
"872 0 LINE",
"872 25 LINE",
"229 25 LINE",
"229 0 LINE"
);
},
{
closed = 1;
nodes = (
"872 25 LINE",
"872 245 LINE",
"862 245 LINE",
"855 145 OFFCURVE",
"826 24 OFFCURVE",
"689 25 CURVE"
);
},
{
closed = 1;
nodes = (
"210 700 LINE",
"40 700 LINE",
"40 690 LINE",
"124 683 OFFCURVE",
"210 663 OFFCURVE",
"210 576 CURVE"
);
},
{
closed = 1;
nodes = (
"308 663 OFFCURVE",
"394 683 OFFCURVE",
"478 690 CURVE",
"478 700 LINE",
"308 700 LINE",
"308 576 LINE"
);
}
);
width = 892;
},
{
associatedMasterId = "B6803316-6B37-45A2-910F-F0CA711B465A";
layerId = "14E8AD30-420D-432B-A3FF-48D255AF3D29";
name = "Mar 26 19, 17:27";
paths = (
{
closed = 1;
nodes = (
"240 0 LINE",
"240 700 LINE",
"140 700 LINE",
"140 0 LINE"
);
},
{
closed = 1;
nodes = (
"140 0 LINE",
"140 84 LINE",
"140 36 OFFCURVE",
"105 17 OFFCURVE",
"40 10 CURVE",
"40 0 LINE"
);
},
{
closed = 1;
nodes = (
"512 0 LINE",
"512 25 LINE",
"209 25 LINE",
"209 0 LINE"
);
},
{
closed = 1;
nodes = (
"512 25 LINE",
"512 225 LINE",
"502 225 LINE",
"495 126 OFFCURVE",
"452 25 OFFCURVE",
"359 25 CURVE"
);
},
{
closed = 1;
nodes = (
"140 700 LINE",
"40 700 LINE",
"40 690 LINE",
"105 683 OFFCURVE",
"140 664 OFFCURVE",
"140 616 CURVE"
);
},
{
closed = 1;
nodes = (
"240 664 OFFCURVE",
"275 683 OFFCURVE",
"340 690 CURVE",
"340 700 LINE",
"240 700 LINE",
"240 616 LINE"
);
}
);
width = 522;
},
{
associatedMasterId = "C70D92E6-6044-4AAB-ADF3-B84826DC9CB7";
layerId = "53B744E0-2299-4DC1-9929-9DAAD8BD933B";
name = "Mar 27 19, 14:09";
paths = (
{
closed = 1;
nodes = (
"260 0 LINE",
"943 0 LINE",
"943 244 LINE",
"933 244 LINE",
"927 106 OFFCURVE",
"907 23 OFFCURVE",
"816 15 CURVE",
"260 15 LINE"
);
},
{
closed = 1;
nodes = (
"220 540 LINE",
"220 104 LINE SMOOTH",
"220 18 OFFCURVE",
"146 17 OFFCURVE",
"50 10 CURVE",
"50 0 LINE",
"265 0 LINE",
"265 540 LINE"
);
},
{
closed = 1;
nodes = (
"265 540 LINE",
"265 700 LINE",
"50 700 LINE",
"50 690 LINE",
"146 683 OFFCURVE",
"220 682 OFFCURVE",
"220 596 CURVE SMOOTH",
"220 540 LINE"
);
},
{
closed = 1;
nodes = (
"265 596 LINE SMOOTH",
"265 682 OFFCURVE",
"339 683 OFFCURVE",
"435 690 CURVE",
"435 700 LINE",
"220 700 LINE",
"220 540 LINE",
"265 540 LINE"
);
}
);
width = 1003;
},
{
associatedMasterId = "92782D03-6C32-4A0E-AEF4-B0D65DFAA275";
layerId = "0FE16B6A-0096-4EC1-BBBA-AD6D2B780154";
name = "Mar 27 19, 15:20";
paths = (
{
closed = 1;
nodes = (
"972 0 LINE",
"972 245 LINE",
"962 245 LINE",
"955 126 OFFCURVE",
"866 35 OFFCURVE",
"699 35 CURVE SMOOTH",
"334 35 LINE",
"340 0 LINE"
);
},
{
closed = 1;
nodes = (
"40 686 LINE",
"126 679 OFFCURVE",
"190 676 OFFCURVE",
"190 576 CURVE SMOOTH",
"190 124 LINE SMOOTH",
"190 24 OFFCURVE",
"126 21 OFFCURVE",
"40 14 CURVE",
"40 0 LINE",
"470 0 LINE",
"470 576 LINE SMOOTH",
"470 676 OFFCURVE",
"534 679 OFFCURVE",
"620 686 CURVE",
"620 700 LINE",
"40 700 LINE"
);
}
);
width = 982;
}
);
leftKerningGroup = H;
rightKerningGroup = L;
unicode = 004C;
},
{
glyphname = M;
lastChange = "2019-12-02 19:37:38 +0000";
layers = (
{
layerId = "B6803316-6B37-45A2-910F-F0CA711B465A";
paths = (
{
closed = 1;
nodes = (
"663 700 LINE",
"463 700 LINE",
"343 398 LINE",
"214 700 LINE",
"22 700 LINE",
"22 690 LINE",
"87 683 OFFCURVE",
"122 665 OFFCURVE",
"122 616 CURVE SMOOTH",
"122 84 LINE SMOOTH",
"122 36 OFFCURVE",
"87 17 OFFCURVE",
"42 10 CURVE",
"42 0 LINE",
"247 0 LINE",
"247 10 LINE",
"182 17 OFFCURVE",
"147 36 OFFCURVE",
"147 84 CURVE SMOOTH",
"147 604 LINE",
"308 234 LINE",
"463 628 LINE",
"463 84 LINE SMOOTH",
"463 36 OFFCURVE",
"428 17 OFFCURVE",
"383 10 CURVE",
"383 0 LINE",
"663 0 LINE",
"663 10 LINE",
"598 17 OFFCURVE",
"563 36 OFFCURVE",
"563 84 CURVE SMOOTH",
"563 616 LINE SMOOTH",
"563 665 OFFCURVE",
"598 683 OFFCURVE",
"663 690 CURVE"
);
}
);
width = 688;
},
{
associatedMasterId = "B6803316-6B37-45A2-910F-F0CA711B465A";
layerId = "AD0C133C-909E-4DD4-AE7E-6AF75C624443";
name = "Feb 10 19, 18:09";
paths = (
{
closed = 1;
nodes = (
"508 700 LINE",
"480 700 LINE",
"385 407 LINE",
"234 700 LINE",
"115 700 LINE",
"357 233 LINE"
);
},
{
closed = 1;
nodes = (
"140 0 LINE",
"140 84 LINE",
"140 36 OFFCURVE",
"105 17 OFFCURVE",
"60 10 CURVE",
"60 0 LINE"
);
},
{
closed = 1;
nodes = (
"265 0 LINE",
"265 10 LINE",
"200 17 OFFCURVE",
"165 36 OFFCURVE",
"165 84 CURVE",
"165 0 LINE"
);
},
{
closed = 1;
nodes = (
"480 0 LINE",
"480 84 LINE",
"480 36 OFFCURVE",
"445 17 OFFCURVE",
"400 10 CURVE",
"400 0 LINE"
);
},
{
closed = 1;
nodes = (
"165 0 LINE",
"165 700 LINE",
"140 700 LINE",
"140 0 LINE"
);
},
{
closed = 1;
nodes = (
"680 0 LINE",
"680 10 LINE",
"615 17 OFFCURVE",
"580 36 OFFCURVE",
"580 84 CURVE",
"580 0 LINE"
);
},
{
closed = 1;
nodes = (
"140 700 LINE",
"40 700 LINE",
"40 690 LINE",
"105 683 OFFCURVE",
"140 665 OFFCURVE",
"140 616 CURVE"
);
},
{
closed = 1;
nodes = (
"580 0 LINE",
"580 700 LINE",
"480 700 LINE",
"480 0 LINE"
);
},
{
closed = 1;
nodes = (
"580 665 OFFCURVE",
"615 683 OFFCURVE",
"680 690 CURVE",
"680 700 LINE",
"580 700 LINE",
"580 616 LINE"
);
}
);
width = 720;
},
{
associatedMasterId = "B6803316-6B37-45A2-910F-F0CA711B465A";
layerId = "2CBEE010-C4D1-4D1E-8657-E438B64F5496";
name = "Jan 24 19, 14:15";
paths = (
{
closed = 1;
nodes = (
"165 0 LINE",
"165 700 LINE",
"140 700 LINE",
"140 0 LINE"
);
},
{
closed = 1;
nodes = (
"580 0 LINE",
"580 700 LINE",
"480 700 LINE",
"480 0 LINE"
);
},
{
closed = 1;
nodes = (
"580 665 OFFCURVE",
"615 683 OFFCURVE",
"680 690 CURVE",
"680 700 LINE",
"580 700 LINE",
"580 616 LINE"
);
},
{
closed = 1;
nodes = (
"580 0 LINE",
"680 0 LINE",
"680 10 LINE",
"615 17 OFFCURVE",
"580 36 OFFCURVE",
"580 84 CURVE"
);
},
{
closed = 1;
nodes = (
"480 36 OFFCURVE",
"445 17 OFFCURVE",
"400 10 CURVE",
"400 0 LINE",
"480 0 LINE",
"480 84 LINE"
);
},
{
closed = 1;
nodes = (
"451 279 LINE",
"234 700 LINE",
"115 700 LINE",
"357 233 LINE"
);
},
{
closed = 1;
nodes = (
"289 27 LINE",
"506 693 LINE",
"480 700 LINE",
"264 35 LINE"
);
}
);
width = 700;
},
{
guideLines = (
{
angle = 90;
position = "{699, 10}";
}
);
layerId = "1127FDDC-7967-4E0A-BDB2-81E1CCE90981";
paths = (
{
closed = 1;
nodes = (
"1424 700 LINE",
"1134 700 LINE",
"740 103 LINE",
"328 700 LINE",
"49 700 LINE",
"49 690 LINE",
"133 683 OFFCURVE",
"239 663 OFFCURVE",
"239 576 CURVE SMOOTH",
"239 124 LINE SMOOTH",
"239 37 OFFCURVE",
"133 17 OFFCURVE",
"49 10 CURVE",
"49 0 LINE",
"454 0 LINE",
"454 10 LINE",
"370 17 OFFCURVE",
"264 37 OFFCURVE",
"264 124 CURVE SMOOTH",
"264 617 LINE",
"699 -15 LINE",
"1134 648 LINE",
"1134 124 LINE SMOOTH",
"1134 37 OFFCURVE",
"1028 17 OFFCURVE",
"944 10 CURVE",
"944 0 LINE",
"1424 0 LINE",
"1424 10 LINE",
"1340 17 OFFCURVE",
"1234 37 OFFCURVE",
"1234 124 CURVE SMOOTH",
"1234 576 LINE SMOOTH",
"1234 663 OFFCURVE",
"1340 683 OFFCURVE",
"1424 690 CURVE"
);
}
);
width = 1473;
},
{
associatedMasterId = "1127FDDC-7967-4E0A-BDB2-81E1CCE90981";
guideLines = (
{
angle = 90;
position = "{690, 10}";
}
);
layerId = "53A1A97F-2EB3-479B-B788-3DE2F73C5EB4";
name = "Feb 10 19, 18:09";
paths = (
{
closed = 1;
nodes = (
"1159 700 LINE",
"1125 700 LINE",
"735 105 LINE",
"326 700 LINE",
"198 700 LINE",
"690 -15 LINE"
);
},
{
closed = 1;
nodes = (
"230 0 LINE",
"230 124 LINE",
"230 37 OFFCURVE",
"124 17 OFFCURVE",
"40 10 CURVE",
"40 0 LINE"
);
},
{
closed = 1;
nodes = (
"445 0 LINE",
"445 10 LINE",
"361 17 OFFCURVE",
"255 37 OFFCURVE",
"255 124 CURVE",
"255 0 LINE"
);
},
{
closed = 1;
nodes = (
"255 0 LINE",
"255 700 LINE",
"230 700 LINE",
"230 0 LINE"
);
},
{
closed = 1;
nodes = (
"230 700 LINE",
"40 700 LINE",
"40 690 LINE",
"124 683 OFFCURVE",
"230 663 OFFCURVE",
"230 576 CURVE"
);
},
{
closed = 1;
nodes = (
"1125 0 LINE",
"1125 124 LINE",
"1125 37 OFFCURVE",
"1019 17 OFFCURVE",
"935 10 CURVE",
"935 0 LINE"
);
},
{
closed = 1;
nodes = (
"1415 0 LINE",
"1415 10 LINE",
"1331 17 OFFCURVE",
"1225 37 OFFCURVE",
"1225 124 CURVE",
"1225 0 LINE"
);
},
{
closed = 1;
nodes = (
"1225 0 LINE",
"1225 700 LINE",
"1125 700 LINE",
"1125 0 LINE"
);
},
{
closed = 1;
nodes = (
"1225 663 OFFCURVE",
"1331 683 OFFCURVE",
"1415 690 CURVE",
"1415 700 LINE",
"1225 700 LINE",
"1225 576 LINE"
);
}
);
width = 1455;
},
{
layerId = "52EA2D2A-A4E3-47AA-B963-53B6A9E26FA1";
paths = (
{
closed = 1;
nodes = (
"725 700 LINE",
"445 700 LINE",
"377 513 LINE",
"304 700 LINE",
"25 700 LINE",
"25 680 LINE",
"50 679 OFFCURVE",
"85 674 OFFCURVE",
"85 616 CURVE SMOOTH",
"85 84 LINE SMOOTH",
"85 26 OFFCURVE",
"50 21 OFFCURVE",
"25 20 CURVE",
"25 0 LINE",
"180 0 LINE",
"180 20 LINE",
"155 21 OFFCURVE",
"120 26 OFFCURVE",
"120 84 CURVE SMOOTH",
"120 564 LINE",
"283 153 LINE",
"445 596 LINE",
"445 84 LINE SMOOTH",
"445 26 OFFCURVE",
"410 21 OFFCURVE",
"385 20 CURVE",
"385 0 LINE",
"725 0 LINE",
"725 20 LINE",
"700 21 OFFCURVE",
"665 26 OFFCURVE",
"665 84 CURVE SMOOTH",
"665 616 LINE SMOOTH",
"665 674 OFFCURVE",
"700 679 OFFCURVE",
"725 680 CURVE"
);
}
);
width = 750;
},
{
guideLines = (
{
angle = 90;
position = "{351, 257}";
}
);
layerId = "ECEC25EE-2268-427F-924A-A8A033D1E43A";
paths = (
{
closed = 1;
nodes = (
"684 700 LINE",
"539 700 LINE",
"366 305 LINE",
"173 700 LINE",
"44 700 LINE",
"44 690 LINE",
"120 683 OFFCURVE",
"144 679 OFFCURVE",
"144 631 CURVE SMOOTH",
"144 69 LINE",
"142 21 OFFCURVE",
"118 17 OFFCURVE",
"44 10 CURVE",
"44 0 LINE",
"259 0 LINE",
"259 10 LINE",
"194 17 OFFCURVE",
"159 21 OFFCURVE",
"159 69 CURVE SMOOTH",
"159 630 LINE",
"351 234 LINE",
"539 661 LINE",
"539 69 LINE SMOOTH",
"539 21 OFFCURVE",
"504 17 OFFCURVE",
"439 10 CURVE",
"439 0 LINE",
"684 0 LINE",
"684 10 LINE",
"609 17 OFFCURVE",
"584 21 OFFCURVE",
"584 69 CURVE SMOOTH",
"584 631 LINE SMOOTH",
"584 679 OFFCURVE",
"608 683 OFFCURVE",
"684 690 CURVE"
);
}
);
width = 728;
},
{
layerId = "92782D03-6C32-4A0E-AEF4-B0D65DFAA275";
paths = (
{
closed = 1;
nodes = (
"1320 700 LINE",
"890 700 LINE",
"686 314 LINE",
"456 700 LINE",
"27 700 LINE",
"27 676 LINE",
"113 669 OFFCURVE",
"177 676 OFFCURVE",
"177 576 CURVE SMOOTH",
"177 124 LINE SMOOTH",
"177 24 OFFCURVE",
"113 31 OFFCURVE",
"27 24 CURVE",
"27 0 LINE",
"362 0 LINE",
"362 24 LINE",
"288 31 OFFCURVE",
"212 22 OFFCURVE",
"212 124 CURVE SMOOTH",
"212 562 LINE",
"554 -10 LINE",
"890 626 LINE",
"890 124 LINE SMOOTH",
"890 24 OFFCURVE",
"826 31 OFFCURVE",
"740 24 CURVE",
"740 0 LINE",
"1320 0 LINE",
"1320 24 LINE",
"1246 31 OFFCURVE",
"1170 22 OFFCURVE",
"1170 124 CURVE SMOOTH",
"1170 576 LINE SMOOTH",
"1170 678 OFFCURVE",
"1246 669 OFFCURVE",
"1320 676 CURVE"
);
}
);
width = 1347;
},
{
layerId = "C70D92E6-6044-4AAB-ADF3-B84826DC9CB7";
paths = (
{
closed = 1;
nodes = (
"1377 700 LINE",
"1162 700 LINE",
"716 38 LINE",
"240 701 LINE",
"54 701 LINE",
"54 691 LINE",
"150 684 OFFCURVE",
"224 683 OFFCURVE",
"224 597 CURVE SMOOTH",
"224 105 LINE SMOOTH",
"224 19 OFFCURVE",
"150 18 OFFCURVE",
"54 11 CURVE",
"54 1 LINE",
"409 1 LINE",
"409 11 LINE",
"315 18 OFFCURVE",
"239 17 OFFCURVE",
"239 105 CURVE SMOOTH",
"239 625 LINE",
"699 -15 LINE",
"1162 673 LINE",
"1162 104 LINE SMOOTH",
"1162 18 OFFCURVE",
"1088 17 OFFCURVE",
"992 10 CURVE",
"992 0 LINE",
"1377 0 LINE",
"1377 10 LINE",
"1283 17 OFFCURVE",
"1207 16 OFFCURVE",
"1207 104 CURVE SMOOTH",
"1207 596 LINE SMOOTH",
"1207 684 OFFCURVE",
"1283 683 OFFCURVE",
"1377 690 CURVE"
);
}
);
width = 1431;
},
{
associatedMasterId = "ECEC25EE-2268-427F-924A-A8A033D1E43A";
guideLines = (
{
angle = 90;
position = "{347, 257}";
}
);
layerId = "9E11AEAD-2119-482A-A3AD-C4C2834300FA";
name = "Mar 31 19, 17:57";
paths = (
{
closed = 1;
nodes = (
"140 0 LINE",
"140 69 LINE",
"138 21 OFFCURVE",
"114 17 OFFCURVE",
"40 10 CURVE",
"40 0 LINE"
);
},
{
closed = 1;
nodes = (
"255 0 LINE",
"255 10 LINE",
"190 17 OFFCURVE",
"155 21 OFFCURVE",
"155 69 CURVE",
"155 0 LINE"
);
},
{
closed = 1;
nodes = (
"155 0 LINE",
"155 700 LINE",
"140 700 LINE",
"140 0 LINE"
);
},
{
closed = 1;
nodes = (
"140 700 LINE",
"40 700 LINE",
"40 690 LINE",
"116 683 OFFCURVE",
"140 679 OFFCURVE",
"140 631 CURVE"
);
},
{
closed = 1;
nodes = (
"535 0 LINE",
"535 69 LINE",
"535 21 OFFCURVE",
"500 17 OFFCURVE",
"435 10 CURVE",
"435 0 LINE"
);
},
{
closed = 1;
nodes = (
"680 0 LINE",
"680 10 LINE",
"605 17 OFFCURVE",
"580 21 OFFCURVE",
"580 69 CURVE",
"580 0 LINE"
);
},
{
closed = 1;
nodes = (
"580 0 LINE",
"580 700 LINE",
"535 700 LINE",
"535 0 LINE"
);
},
{
closed = 1;
nodes = (
"580 679 OFFCURVE",
"604 683 OFFCURVE",
"680 690 CURVE",
"680 700 LINE",
"580 700 LINE",
"580 631 LINE"
);
},
{
closed = 1;
nodes = (
"363 302 LINE",
"169 700 LINE",
"121 700 LINE",
"347 234 LINE"
);
},
{
closed = 1;
nodes = (
"347 234 LINE",
"552 700 LINE",
"535 700 LINE",
"355 290 LINE"
);
}
);
width = 720;
},
{
associatedMasterId = "52EA2D2A-A4E3-47AA-B963-53B6A9E26FA1";
guideLines = (
{
angle = 270;
position = "{274, -9}";
}
);
layerId = "A4215153-FAE4-4D5B-A433-A95195837B36";
name = "Mar 31 19, 18:03";
paths = (
{
closed = 1;
nodes = (
"435 84 LINE SMOOTH",
"435 26 OFFCURVE",
"400 21 OFFCURVE",
"375 20 CURVE",
"375 0 LINE",
"715 0 LINE",
"715 20 LINE",
"690 21 OFFCURVE",
"655 26 OFFCURVE",
"655 84 CURVE SMOOTH",
"655 616 LINE SMOOTH",
"655 674 OFFCURVE",
"690 679 OFFCURVE",
"715 680 CURVE",
"715 700 LINE",
"435 700 LINE"
);
},
{
closed = 1;
nodes = (
"110 700 LINE",
"15 700 LINE",
"15 680 LINE",
"40 679 OFFCURVE",
"75 674 OFFCURVE",
"75 616 CURVE SMOOTH",
"75 84 LINE SMOOTH",
"75 26 OFFCURVE",
"40 21 OFFCURVE",
"15 20 CURVE",
"15 0 LINE",
"170 0 LINE",
"170 20 LINE",
"145 21 OFFCURVE",
"110 26 OFFCURVE",
"110 84 CURVE SMOOTH"
);
},
{
closed = 1;
nodes = (
"273 152 LINE",
"468 686 LINE",
"435 700 LINE",
"257 210 LINE"
);
},
{
closed = 1;
nodes = (
"382 476 LINE",
"294 700 LINE",
"56 700 LINE",
"274 152 LINE"
);
}
);
width = 755;
},
{
associatedMasterId = "C70D92E6-6044-4AAB-ADF3-B84826DC9CB7";
layerId = "75397E69-28E8-4EA4-A71B-6933CEC38269";
name = "Mar 31 19, 18:13";
paths = (
{
closed = 1;
nodes = (
"235 700 LINE",
"50 701 LINE",
"50 691 LINE",
"146 684 OFFCURVE",
"220 683 OFFCURVE",
"220 597 CURVE SMOOTH",
"220 105 LINE SMOOTH",
"220 19 OFFCURVE",
"146 18 OFFCURVE",
"50 11 CURVE",
"50 1 LINE",
"405 1 LINE",
"405 11 LINE",
"311 18 OFFCURVE",
"235 17 OFFCURVE",
"235 105 CURVE SMOOTH"
);
},
{
closed = 1;
nodes = (
"1203 596 LINE SMOOTH",
"1203 684 OFFCURVE",
"1279 683 OFFCURVE",
"1373 690 CURVE",
"1373 700 LINE",
"1158 700 LINE",
"1158 104 LINE SMOOTH",
"1158 18 OFFCURVE",
"1084 17 OFFCURVE",
"988 10 CURVE",
"988 0 LINE",
"1373 0 LINE",
"1373 10 LINE",
"1279 17 OFFCURVE",
"1203 16 OFFCURVE",
"1203 104 CURVE SMOOTH"
);
},
{
closed = 1;
nodes = (
"717 31 LINE",
"236 701 LINE",
"200 674 LINE",
"695 -15 LINE"
);
},
{
closed = 1;
nodes = (
"1171 692 LINE",
"1158 700 LINE",
"693 10 LINE",
"695 -15 LINE"
);
}
);
width = 1423;
},
{
associatedMasterId = "92782D03-6C32-4A0E-AEF4-B0D65DFAA275";
layerId = "B5F35A01-1ECB-4CC8-84A7-D03BA97C881F";
name = "Mar 31 19, 18:22";
paths = (
{
closed = 1;
nodes = (
"200 700 LINE",
"15 700 LINE",
"15 676 LINE",
"101 669 OFFCURVE",
"165 676 OFFCURVE",
"165 576 CURVE SMOOTH",
"165 124 LINE SMOOTH",
"165 24 OFFCURVE",
"101 31 OFFCURVE",
"15 24 CURVE",
"15 0 LINE",
"350 0 LINE",
"350 24 LINE",
"276 31 OFFCURVE",
"200 22 OFFCURVE",
"200 124 CURVE SMOOTH"
);
},
{
closed = 1;
nodes = (
"878 124 LINE SMOOTH",
"878 24 OFFCURVE",
"814 31 OFFCURVE",
"728 24 CURVE",
"728 0 LINE",
"1308 0 LINE",
"1308 24 LINE",
"1234 31 OFFCURVE",
"1158 22 OFFCURVE",
"1158 124 CURVE SMOOTH",
"1158 576 LINE SMOOTH",
"1158 678 OFFCURVE",
"1234 669 OFFCURVE",
"1308 676 CURVE",
"1308 700 LINE",
"878 700 LINE"
);
},
{
closed = 1;
nodes = (
"541 -14 LINE",
"917 700 LINE",
"878 700 LINE",
"555 89 LINE"
);
},
{
closed = 1;
nodes = (
"677 308 LINE",
"444 700 LINE",
"118 700 LINE",
"541 -11 LINE"
);
}
);
width = 1323;
}
);
leftKerningGroup = H;
rightKerningGroup = H;
unicode = 004D;
},
{
glyphname = N;
lastChange = "2020-01-08 15:28:26 +0000";
layers = (
{
background = {
paths = (
{
closed = 1;
nodes = (
"574 700 LINE",
"574 690 LINE",
"658 683 OFFCURVE",
"744 663 OFFCURVE",
"744 576 CURVE SMOOTH",
"744 179 LINE",
"324 700 LINE",
"69 700 LINE",
"69 690 LINE",
"153 683 OFFCURVE",
"239 663 OFFCURVE",
"239 576 CURVE SMOOTH",
"239 124 LINE SMOOTH",
"239 37 OFFCURVE",
"153 17 OFFCURVE",
"69 10 CURVE",
"69 0 LINE",
"434 0 LINE",
"434 10 LINE",
"350 17 OFFCURVE",
"264 37 OFFCURVE",
"264 124 CURVE SMOOTH",
"264 606 LINE",
"769 -18 LINE",
"769 576 LINE SMOOTH",
"769 663 OFFCURVE",
"855 683 OFFCURVE",
"939 690 CURVE",
"939 700 LINE"
);
}
);
};
layerId = "1127FDDC-7967-4E0A-BDB2-81E1CCE90981";
paths = (
{
closed = 1;
nodes = (
"837 690 LINE",
"921 683 OFFCURVE",
"1027 663 OFFCURVE",
"1027 576 CURVE SMOOTH",
"1027 127 LINE",
"294 700 LINE",
"49 700 LINE",
"49 690 LINE",
"132 683 OFFCURVE",
"238 663 OFFCURVE",
"239 576 CURVE SMOOTH",
"239 124 LINE SMOOTH",
"239 37 OFFCURVE",
"133 17 OFFCURVE",
"49 10 CURVE",
"49 0 LINE",
"454 0 LINE",
"454 10 LINE",
"370 17 OFFCURVE",
"264 37 OFFCURVE",
"264 124 CURVE SMOOTH",
"264 596 LINE",
"1047 -15 LINE",
"1052 -15 LINE",
"1052 576 LINE SMOOTH",
"1052 663 OFFCURVE",
"1158 683 OFFCURVE",
"1242 690 CURVE",
"1242 700 LINE",
"837 700 LINE"
);
}
);
width = 1286;
},
{
layerId = "B6803316-6B37-45A2-910F-F0CA711B465A";
paths = (
{
closed = 1;
nodes = (
"361 690 LINE",
"426 683 OFFCURVE",
"461 664 OFFCURVE",
"461 616 CURVE SMOOTH",
"461 231 LINE",
"211 700 LINE",
"26 700 LINE",
"26 690 LINE",
"85 684 OFFCURVE",
"119 668 OFFCURVE",
"125 629 CURVE",
"125 84 LINE SMOOTH",
"125 36 OFFCURVE",
"90 17 OFFCURVE",
"25 10 CURVE",
"25 0 LINE",
"250 0 LINE",
"250 10 LINE",
"185 17 OFFCURVE",
"150 36 OFFCURVE",
"150 84 CURVE SMOOTH",
"150 606 LINE",
"481 -15 LINE",
"486 -15 LINE",
"486 616 LINE SMOOTH",
"486 664 OFFCURVE",
"521 683 OFFCURVE",
"586 690 CURVE",
"586 700 LINE",
"361 700 LINE"
);
}
);
width = 604;
},
{
associatedMasterId = "B6803316-6B37-45A2-910F-F0CA711B465A";
layerId = "1103C937-A2D5-4EC3-A1B3-A75454CA6A23";
name = "Jan 24 19, 11:28";
paths = (
{
closed = 1;
nodes = (
"165 0 LINE",
"165 700 LINE",
"140 700 LINE",
"140 0 LINE"
);
},
{
closed = 1;
nodes = (
"446 57 LINE",
"471 0 LINE",
"471 700 LINE",
"446 700 LINE"
);
},
{
closed = 1;
nodes = (
"467 241 LINE",
"241 700 LINE",
"119 700 LINE",
"471 -17 LINE"
);
},
{
closed = 1;
nodes = (
"140 36 OFFCURVE",
"105 17 OFFCURVE",
"40 10 CURVE",
"40 0 LINE",
"140 0 LINE",
"140 84 LINE"
);
},
{
closed = 1;
nodes = (
"165 0 LINE",
"265 0 LINE",
"265 10 LINE",
"200 17 OFFCURVE",
"165 36 OFFCURVE",
"165 84 CURVE"
);
},
{
closed = 1;
nodes = (
"446 700 LINE",
"346 700 LINE",
"346 690 LINE",
"411 683 OFFCURVE",
"446 664 OFFCURVE",
"446 616 CURVE"
);
},
{
closed = 1;
nodes = (
"471 664 OFFCURVE",
"506 683 OFFCURVE",
"571 690 CURVE",
"571 700 LINE",
"471 700 LINE",
"471 616 LINE"
);
},
{
closed = 1;
nodes = (
"141 700 LINE",
"41 700 LINE",
"41 690 LINE",
"106 683 OFFCURVE",
"141 664 OFFCURVE",
"141 616 CURVE"
);
}
);
width = 611;
},
{
associatedMasterId = "1127FDDC-7967-4E0A-BDB2-81E1CCE90981";
background = {
paths = (
{
closed = 1;
nodes = (
"565 700 LINE",
"565 690 LINE",
"649 683 OFFCURVE",
"735 663 OFFCURVE",
"735 576 CURVE SMOOTH",
"735 179 LINE",
"315 700 LINE",
"60 700 LINE",
"60 690 LINE",
"144 683 OFFCURVE",
"230 663 OFFCURVE",
"230 576 CURVE SMOOTH",
"230 124 LINE SMOOTH",
"230 37 OFFCURVE",
"144 17 OFFCURVE",
"60 10 CURVE",
"60 0 LINE",
"425 0 LINE",
"425 10 LINE",
"341 17 OFFCURVE",
"255 37 OFFCURVE",
"255 124 CURVE SMOOTH",
"255 606 LINE",
"760 -18 LINE",
"760 576 LINE SMOOTH",
"760 663 OFFCURVE",
"846 683 OFFCURVE",
"930 690 CURVE",
"930 700 LINE"
);
}
);
};
backgroundImage = {
crop = "{{0, 0}, {612, 841.92}}";
imagePath = ../SCANS/Image005.jpg;
locked = "1";
transform = "{6.909, 0, 0, 6.909, -1496, -729}";
};
layerId = "5A709DB9-E785-4F26-A888-0456B1EACE88";
name = "Feb 9 19, 18:51";
paths = (
{
closed = 1;
nodes = (
"255 0 LINE",
"255 700 LINE",
"230 700 LINE",
"230 0 LINE"
);
},
{
closed = 1;
nodes = (
"992 118 LINE",
"293 700 LINE",
"129 700 LINE",
"992 -18 LINE"
);
},
{
closed = 1;
nodes = (
"967 57 LINE",
"992 0 LINE",
"992 700 LINE",
"967 700 LINE"
);
},
{
closed = 1;
nodes = (
"230 37 OFFCURVE",
"124 17 OFFCURVE",
"40 10 CURVE",
"40 0 LINE",
"230 0 LINE",
"230 124 LINE"
);
},
{
closed = 1;
nodes = (
"255 0 LINE",
"445 0 LINE",
"445 10 LINE",
"361 17 OFFCURVE",
"255 37 OFFCURVE",
"255 124 CURVE"
);
},
{
closed = 1;
nodes = (
"230 700 LINE",
"40 700 LINE",
"40 690 LINE",
"123 683 OFFCURVE",
"229 663 OFFCURVE",
"230 576 CURVE"
);
},
{
closed = 1;
nodes = (
"967 700 LINE",
"777 700 LINE",
"777 690 LINE",
"861 683 OFFCURVE",
"967 663 OFFCURVE",
"967 576 CURVE"
);
},
{
closed = 1;
nodes = (
"992 663 OFFCURVE",
"1098 683 OFFCURVE",
"1182 690 CURVE",
"1182 700 LINE",
"992 700 LINE",
"992 576 LINE"
);
}
);
width = 1222;
},
{
associatedMasterId = "1127FDDC-7967-4E0A-BDB2-81E1CCE90981";
background = {
paths = (
{
closed = 1;
nodes = (
"565 700 LINE",
"565 690 LINE",
"649 683 OFFCURVE",
"735 663 OFFCURVE",
"735 576 CURVE SMOOTH",
"735 179 LINE",
"315 700 LINE",
"60 700 LINE",
"60 690 LINE",
"144 683 OFFCURVE",
"230 663 OFFCURVE",
"230 576 CURVE SMOOTH",
"230 124 LINE SMOOTH",
"230 37 OFFCURVE",
"144 17 OFFCURVE",
"60 10 CURVE",
"60 0 LINE",
"425 0 LINE",
"425 10 LINE",
"341 17 OFFCURVE",
"255 37 OFFCURVE",
"255 124 CURVE SMOOTH",
"255 606 LINE",
"760 -18 LINE",
"760 576 LINE SMOOTH",
"760 663 OFFCURVE",
"846 683 OFFCURVE",
"930 690 CURVE",
"930 700 LINE"
);
}
);
};
layerId = "FC236ADF-08CD-4982-8EFE-F6E05B66A935";
name = "Feb 10 19, 15:30";
paths = (
{
closed = 1;
nodes = (
"993 118 LINE",
"294 700 LINE",
"130 700 LINE",
"993 -18 LINE"
);
},
{
closed = 1;
nodes = (
"230 0 LINE",
"230 124 LINE",
"230 37 OFFCURVE",
"124 17 OFFCURVE",
"40 10 CURVE",
"40 0 LINE"
);
},
{
closed = 1;
nodes = (
"445 0 LINE",
"445 10 LINE",
"361 17 OFFCURVE",
"255 37 OFFCURVE",
"255 124 CURVE",
"255 0 LINE"
);
},
{
closed = 1;
nodes = (
"255 0 LINE",
"255 700 LINE",
"230 700 LINE",
"230 0 LINE"
);
},
{
closed = 1;
nodes = (
"230 700 LINE",
"40 700 LINE",
"40 690 LINE",
"123 683 OFFCURVE",
"229 663 OFFCURVE",
"230 576 CURVE"
);
},
{
closed = 1;
nodes = (
"993 700 LINE",
"968 700 LINE",
"968 57 LINE",
"993 0 LINE"
);
},
{
closed = 1;
nodes = (
"968 700 LINE",
"778 700 LINE",
"778 690 LINE",
"862 683 OFFCURVE",
"968 663 OFFCURVE",
"968 576 CURVE"
);
},
{
closed = 1;
nodes = (
"993 663 OFFCURVE",
"1099 683 OFFCURVE",
"1183 690 CURVE",
"1183 700 LINE",
"993 700 LINE",
"993 576 LINE"
);
}
);
width = 1223;
},
{
layerId = "52EA2D2A-A4E3-47AA-B963-53B6A9E26FA1";
paths = (
{
closed = 1;
nodes = (
"475 680 LINE",
"500 679 OFFCURVE",
"535 674 OFFCURVE",
"535 616 CURVE SMOOTH",
"535 360 LINE",
"317 699 LINE",
"25 700 LINE",
"25 680 LINE",
"50 679 OFFCURVE",
"85 674 OFFCURVE",
"85 616 CURVE SMOOTH",
"85 84 LINE SMOOTH",
"85 26 OFFCURVE",
"50 21 OFFCURVE",
"25 20 CURVE",
"25 0 LINE",
"180 0 LINE",
"180 20 LINE",
"155 21 OFFCURVE",
"120 26 OFFCURVE",
"120 84 CURVE SMOOTH",
"120 599 LINE",
"505 0 LINE",
"570 0 LINE",
"570 616 LINE SMOOTH",
"570 674 OFFCURVE",
"605 679 OFFCURVE",
"630 680 CURVE",
"630 700 LINE",
"475 700 LINE"
);
}
);
width = 651;
},
{
layerId = "ECEC25EE-2268-427F-924A-A8A033D1E43A";
paths = (
{
closed = 1;
nodes = (
"385 690 LINE",
"451 683 OFFCURVE",
"485 679 OFFCURVE",
"485 631 CURVE SMOOTH",
"485 100 LINE",
"169 700 LINE",
"44 700 LINE",
"44 690 LINE",
"120 683 OFFCURVE",
"144 679 OFFCURVE",
"144 631 CURVE SMOOTH",
"144 68 LINE SMOOTH",
"144 20 OFFCURVE",
"119 16 OFFCURVE",
"44 9 CURVE",
"44 -1 LINE",
"259 -1 LINE",
"259 9 LINE",
"194 16 OFFCURVE",
"159 20 OFFCURVE",
"159 68 CURVE SMOOTH",
"159 623 LINE",
"495 -15 LINE",
"500 -15 LINE",
"500 631 LINE SMOOTH",
"500 679 OFFCURVE",
"524 683 OFFCURVE",
"600 690 CURVE",
"600 700 LINE",
"385 700 LINE"
);
}
);
width = 638;
},
{
layerId = "92782D03-6C32-4A0E-AEF4-B0D65DFAA275";
paths = (
{
closed = 1;
nodes = (
"811 676 LINE",
"897 669 OFFCURVE",
"961 676 OFFCURVE",
"961 576 CURVE SMOOTH",
"961 368 LINE",
"547 700 LINE",
"27 700 LINE",
"27 676 LINE",
"113 669 OFFCURVE",
"177 676 OFFCURVE",
"177 576 CURVE SMOOTH",
"177 124 LINE SMOOTH",
"177 24 OFFCURVE",
"113 31 OFFCURVE",
"27 24 CURVE",
"27 0 LINE",
"362 0 LINE",
"362 24 LINE",
"288 31 OFFCURVE",
"212 22 OFFCURVE",
"212 124 CURVE SMOOTH",
"212 609 LINE",
"991 -15 LINE",
"996 -15 LINE",
"996 576 LINE SMOOTH",
"996 678 OFFCURVE",
"1072 669 OFFCURVE",
"1146 676 CURVE",
"1146 700 LINE",
"811 700 LINE"
);
}
);
width = 1166;
},
{
layerId = "C70D92E6-6044-4AAB-ADF3-B84826DC9CB7";
paths = (
{
closed = 1;
nodes = (
"860 690 LINE",
"956 683 OFFCURVE",
"1030 682 OFFCURVE",
"1030 596 CURVE SMOOTH",
"1030 51 LINE",
"241 700 LINE",
"54 700 LINE",
"54 690 LINE",
"148 684 OFFCURVE",
"224 683 OFFCURVE",
"224 596 CURVE SMOOTH",
"224 104 LINE SMOOTH",
"224 18 OFFCURVE",
"150 17 OFFCURVE",
"54 10 CURVE",
"54 0 LINE",
"409 0 LINE",
"409 10 LINE",
"315 17 OFFCURVE",
"239 16 OFFCURVE",
"239 104 CURVE SMOOTH",
"239 643 LINE",
"1040 -15 LINE",
"1045 -15 LINE",
"1045 596 LINE SMOOTH",
"1045 684 OFFCURVE",
"1121 683 OFFCURVE",
"1215 690 CURVE",
"1215 700 LINE",
"860 700 LINE"
);
}
);
width = 1264;
},
{
associatedMasterId = "ECEC25EE-2268-427F-924A-A8A033D1E43A";
layerId = "DC09550E-5166-4350-834B-FCC8CF58AD27";
name = "Mar 26 19, 12:49";
paths = (
{
closed = 1;
nodes = (
"140 -1 LINE",
"140 68 LINE",
"140 20 OFFCURVE",
"115 16 OFFCURVE",
"40 9 CURVE",
"40 -1 LINE"
);
},
{
closed = 1;
nodes = (
"255 -1 LINE",
"255 9 LINE",
"190 16 OFFCURVE",
"155 20 OFFCURVE",
"155 68 CURVE",
"155 -1 LINE"
);
},
{
closed = 1;
nodes = (
"155 -1 LINE",
"155 700 LINE",
"140 700 LINE",
"140 -1 LINE"
);
},
{
closed = 1;
nodes = (
"140 700 LINE",
"40 700 LINE",
"40 690 LINE",
"116 683 OFFCURVE",
"140 679 OFFCURVE",
"140 631 CURVE"
);
},
{
closed = 1;
nodes = (
"496 -15 LINE",
"496 700 LINE",
"481 700 LINE",
"481 44 LINE"
);
},
{
closed = 1;
nodes = (
"481 700 LINE",
"381 700 LINE",
"381 690 LINE",
"447 683 OFFCURVE",
"481 679 OFFCURVE",
"481 631 CURVE"
);
},
{
closed = 1;
nodes = (
"496 679 OFFCURVE",
"520 683 OFFCURVE",
"596 690 CURVE",
"596 700 LINE",
"496 700 LINE",
"496 631 LINE"
);
},
{
closed = 1;
nodes = (
"489 94 LINE",
"165 700 LINE",
"126 677 LINE",
"496 -15 LINE"
);
}
);
width = 636;
},
{
associatedMasterId = "52EA2D2A-A4E3-47AA-B963-53B6A9E26FA1";
layerId = "621BA01E-466A-49D8-8D12-2DCFCEB245CD";
name = "Mar 26 19, 15:25";
paths = (
{
closed = 1;
nodes = (
"170 0 LINE",
"170 10 LINE",
"145 17 OFFCURVE",
"110 26 OFFCURVE",
"110 84 CURVE SMOOTH",
"110 700 LINE",
"15 700 LINE",
"15 690 LINE",
"40 683 OFFCURVE",
"75 674 OFFCURVE",
"75 616 CURVE SMOOTH",
"75 84 LINE SMOOTH",
"75 26 OFFCURVE",
"40 17 OFFCURVE",
"15 10 CURVE",
"15 0 LINE"
);
},
{
closed = 1;
nodes = (
"485 414 LINE",
"307 699 LINE",
"47 700 LINE",
"495 -17 LINE"
);
},
{
closed = 1;
nodes = (
"500 -16 LINE",
"500 616 LINE SMOOTH",
"500 674 OFFCURVE",
"535 683 OFFCURVE",
"560 690 CURVE",
"560 700 LINE",
"405 700 LINE",
"405 690 LINE",
"430 683 OFFCURVE",
"465 674 OFFCURVE",
"465 616 CURVE SMOOTH",
"465 53 LINE"
);
}
);
width = 605;
},
{
associatedMasterId = "C70D92E6-6044-4AAB-ADF3-B84826DC9CB7";
layerId = "076389D8-E899-4560-8174-A18ED8D14A28";
name = "Mar 27 19, 13:41";
paths = (
{
closed = 1;
nodes = (
"225 700 LINE",
"40 700 LINE",
"40 690 LINE",
"134 684 OFFCURVE",
"210 683 OFFCURVE",
"210 596 CURVE SMOOTH",
"210 104 LINE SMOOTH",
"210 18 OFFCURVE",
"136 17 OFFCURVE",
"40 10 CURVE",
"40 0 LINE",
"395 0 LINE",
"395 10 LINE",
"301 17 OFFCURVE",
"225 16 OFFCURVE",
"225 104 CURVE SMOOTH"
);
},
{
closed = 1;
nodes = (
"1031 684 OFFCURVE",
"1107 683 OFFCURVE",
"1201 690 CURVE",
"1201 700 LINE",
"846 700 LINE",
"846 690 LINE",
"942 683 OFFCURVE",
"1016 682 OFFCURVE",
"1016 596 CURVE SMOOTH",
"1016 18 LINE",
"1031 -15 LINE",
"1031 596 LINE SMOOTH"
);
},
{
closed = 1;
nodes = (
"1019 49 LINE",
"227 700 LINE",
"156 700 LINE",
"1026 -15 LINE"
);
}
);
width = 1241;
},
{
associatedMasterId = "92782D03-6C32-4A0E-AEF4-B0D65DFAA275";
layerId = "9618781A-2496-48C4-B2C3-58FAFDE56794";
name = "Mar 27 19, 15:30";
paths = (
{
closed = 1;
nodes = (
"215 700 LINE",
"30 700 LINE",
"30 686 LINE",
"116 679 OFFCURVE",
"180 676 OFFCURVE",
"180 576 CURVE",
"180 124 LINE",
"180 24 OFFCURVE",
"116 21 OFFCURVE",
"30 14 CURVE",
"30 0 LINE",
"365 0 LINE",
"365 14 LINE",
"291 21 OFFCURVE",
"215 22 OFFCURVE",
"215 124 CURVE"
);
},
{
closed = 1;
nodes = (
"999 -15 LINE",
"999 576 LINE",
"999 678 OFFCURVE",
"1075 679 OFFCURVE",
"1149 686 CURVE",
"1149 700 LINE",
"814 700 LINE",
"814 686 LINE",
"900 679 OFFCURVE",
"964 676 OFFCURVE",
"964 576 CURVE",
"964 115 LINE"
);
},
{
closed = 1;
nodes = (
"984 352 LINE",
"537 700 LINE",
"101 700 LINE",
"999 -15 LINE"
);
}
);
width = 1189;
}
);
leftKerningGroup = H;
rightKerningGroup = H;
unicode = 004E;
},
{
glyphname = O;
lastChange = "2020-01-23 17:43:41 +0000";
layers = (
{
layerId = "1127FDDC-7967-4E0A-BDB2-81E1CCE90981";
paths = (
{
closed = 1;
nodes = (
"972 -15 OFFCURVE",
"1245 143 OFFCURVE",
"1245 345 CURVE SMOOTH",
"1245 546 OFFCURVE",
"972 715 OFFCURVE",
"657 715 CURVE SMOOTH",
"340 715 OFFCURVE",
"66 546 OFFCURVE",
"66 345 CURVE SMOOTH",
"66 143 OFFCURVE",
"340 -15 OFFCURVE",
"657 -15 CURVE SMOOTH"
);
},
{
closed = 1;
nodes = (
"379 10 OFFCURVE",
"186 150 OFFCURVE",
"186 345 CURVE SMOOTH",
"186 549 OFFCURVE",
"379 690 OFFCURVE",
"657 690 CURVE SMOOTH",
"930 690 OFFCURVE",
"1125 549 OFFCURVE",
"1125 345 CURVE SMOOTH",
"1125 150 OFFCURVE",
"930 10 OFFCURVE",
"657 10 CURVE SMOOTH"
);
}
);
width = 1311;
},
{
associatedMasterId = "1127FDDC-7967-4E0A-BDB2-81E1CCE90981";
backgroundImage = {
crop = "{{0, 0}, {288, 169}}";
imagePath = ../SCANS/caps/O.jpg;
transform = "{6.88214, 0, 0, 6.88214, 4, -216}";
};
layerId = "9B515221-291A-4276-89FD-59C34127A053";
name = "Jan 23 19, 11:39";
paths = (
{
closed = 1;
nodes = (
"707 -15 OFFCURVE",
"905 143 OFFCURVE",
"905 345 CURVE SMOOTH",
"905 546 OFFCURVE",
"707 715 OFFCURVE",
"463 715 CURVE SMOOTH",
"219 715 OFFCURVE",
"20 546 OFFCURVE",
"20 345 CURVE SMOOTH",
"20 143 OFFCURVE",
"219 -15 OFFCURVE",
"463 -15 CURVE SMOOTH"
);
},
{
closed = 1;
nodes = (
"269 10 OFFCURVE",
"135 150 OFFCURVE",
"135 345 CURVE SMOOTH",
"135 549 OFFCURVE",
"269 690 OFFCURVE",
"463 690 CURVE SMOOTH",
"654 690 OFFCURVE",
"790 549 OFFCURVE",
"790 345 CURVE SMOOTH",
"790 150 OFFCURVE",
"654 10 OFFCURVE",
"463 10 CURVE SMOOTH"
);
}
);
width = 925;
},
{
associatedMasterId = "1127FDDC-7967-4E0A-BDB2-81E1CCE90981";
layerId = "565A382C-0A27-4E2C-9C4E-A66D31CD7483";
name = "Feb 3 19, 17:20";
paths = (
{
closed = 1;
nodes = (
"747 -15 OFFCURVE",
"945 143 OFFCURVE",
"945 345 CURVE SMOOTH",
"945 546 OFFCURVE",
"747 715 OFFCURVE",
"503 715 CURVE SMOOTH",
"259 715 OFFCURVE",
"60 546 OFFCURVE",
"60 345 CURVE SMOOTH",
"60 143 OFFCURVE",
"259 -15 OFFCURVE",
"503 -15 CURVE SMOOTH"
);
},
{
closed = 1;
nodes = (
"309 10 OFFCURVE",
"175 150 OFFCURVE",
"175 345 CURVE SMOOTH",
"175 549 OFFCURVE",
"309 690 OFFCURVE",
"503 690 CURVE SMOOTH",
"694 690 OFFCURVE",
"830 549 OFFCURVE",
"830 345 CURVE SMOOTH",
"830 150 OFFCURVE",
"694 10 OFFCURVE",
"503 10 CURVE SMOOTH"
);
}
);
width = 1005;
},
{
layerId = "B6803316-6B37-45A2-910F-F0CA711B465A";
paths = (
{
closed = 1;
nodes = (
"493 -15 OFFCURVE",
"603 143 OFFCURVE",
"603 345 CURVE SMOOTH",
"603 546 OFFCURVE",
"493 715 OFFCURVE",
"332 715 CURVE SMOOTH",
"171 715 OFFCURVE",
"60 546 OFFCURVE",
"60 345 CURVE SMOOTH",
"60 143 OFFCURVE",
"171 -15 OFFCURVE",
"332 -15 CURVE SMOOTH"
);
},
{
closed = 1;
nodes = (
"208 10 OFFCURVE",
"160 140 OFFCURVE",
"160 345 CURVE SMOOTH",
"160 559 OFFCURVE",
"208 690 OFFCURVE",
"332 690 CURVE SMOOTH",
"454 690 OFFCURVE",
"503 559 OFFCURVE",
"503 345 CURVE SMOOTH",
"503 140 OFFCURVE",
"454 10 OFFCURVE",
"332 10 CURVE SMOOTH"
);
}
);
width = 663;
},
{
layerId = "52EA2D2A-A4E3-47AA-B963-53B6A9E26FA1";
paths = (
{
closed = 1;
nodes = (
"495 -15 OFFCURVE",
"605 93 OFFCURVE",
"605 345 CURVE SMOOTH",
"605 596 OFFCURVE",
"495 715 OFFCURVE",
"324 715 CURVE SMOOTH",
"153 715 OFFCURVE",
"42 596 OFFCURVE",
"42 345 CURVE SMOOTH",
"42 93 OFFCURVE",
"153 -15 OFFCURVE",
"324 -15 CURVE SMOOTH"
);
},
{
closed = 1;
nodes = (
"281 20 OFFCURVE",
"267 74 OFFCURVE",
"267 364 CURVE SMOOTH",
"267 630 OFFCURVE",
"279 680 OFFCURVE",
"324 680 CURVE SMOOTH",
"368 680 OFFCURVE",
"380 630 OFFCURVE",
"380 352 CURVE SMOOTH",
"380 74 OFFCURVE",
"368 20 OFFCURVE",
"324 20 CURVE SMOOTH"
);
}
);
width = 647;
},
{
layerId = "ECEC25EE-2268-427F-924A-A8A033D1E43A";
paths = (
{
closed = 1;
nodes = (
"511 -15 OFFCURVE",
"621 143 OFFCURVE",
"621 345 CURVE SMOOTH",
"621 546 OFFCURVE",
"511 715 OFFCURVE",
"350 715 CURVE SMOOTH",
"189 715 OFFCURVE",
"78 546 OFFCURVE",
"78 345 CURVE SMOOTH",
"78 143 OFFCURVE",
"189 -15 OFFCURVE",
"350 -15 CURVE SMOOTH"
);
},
{
closed = 1;
nodes = (
"239 0 OFFCURVE",
"128 115 OFFCURVE",
"128 345 CURVE SMOOTH",
"128 582 OFFCURVE",
"239 700 OFFCURVE",
"349 700 CURVE SMOOTH",
"460 700 OFFCURVE",
"571 582 OFFCURVE",
"571 345 CURVE SMOOTH",
"571 115 OFFCURVE",
"460 0 OFFCURVE",
"350 0 CURVE SMOOTH"
);
}
);
width = 699;
},
{
layerId = "92782D03-6C32-4A0E-AEF4-B0D65DFAA275";
paths = (
{
closed = 1;
nodes = (
"950 -15 OFFCURVE",
"1223 113 OFFCURVE",
"1223 345 CURVE SMOOTH",
"1223 576 OFFCURVE",
"950 715 OFFCURVE",
"635 715 CURVE SMOOTH",
"318 715 OFFCURVE",
"44 576 OFFCURVE",
"44 345 CURVE SMOOTH",
"44 113 OFFCURVE",
"318 -15 OFFCURVE",
"635 -15 CURVE SMOOTH"
);
},
{
closed = 1;
nodes = (
"434 20 OFFCURVE",
"334 185 OFFCURVE",
"334 350 CURVE SMOOTH",
"334 515 OFFCURVE",
"434 680 OFFCURVE",
"635 680 CURVE SMOOTH",
"833 680 OFFCURVE",
"933 514 OFFCURVE",
"933 349 CURVE SMOOTH",
"933 184 OFFCURVE",
"834 20 OFFCURVE",
"635 20 CURVE SMOOTH"
);
}
);
width = 1267;
},
{
layerId = "C70D92E6-6044-4AAB-ADF3-B84826DC9CB7";
paths = (
{
closed = 1;
nodes = (
"979 -15 OFFCURVE",
"1252 123 OFFCURVE",
"1252 345 CURVE SMOOTH",
"1252 564 OFFCURVE",
"979 715 OFFCURVE",
"664 715 CURVE SMOOTH",
"347 715 OFFCURVE",
"73 566 OFFCURVE",
"73 345 CURVE SMOOTH",
"73 123 OFFCURVE",
"347 -15 OFFCURVE",
"664 -15 CURVE SMOOTH"
);
},
{
closed = 1;
nodes = (
"302 0 OFFCURVE",
"123 174 OFFCURVE",
"123 349 CURVE SMOOTH",
"123 524 OFFCURVE",
"304 700 OFFCURVE",
"664 700 CURVE SMOOTH",
"1022 700 OFFCURVE",
"1202 524 OFFCURVE",
"1202 348 CURVE SMOOTH",
"1202 174 OFFCURVE",
"1024 0 OFFCURVE",
"664 0 CURVE SMOOTH"
);
}
);
width = 1325;
},
{
associatedMasterId = "92782D03-6C32-4A0E-AEF4-B0D65DFAA275";
layerId = "5D300077-B362-49E9-8577-6EF90C6281CC";
name = "Mar 27 19, 15:24";
paths = (
{
closed = 1;
nodes = (
"966 -15 OFFCURVE",
"1239 143 OFFCURVE",
"1239 345 CURVE SMOOTH",
"1239 546 OFFCURVE",
"966 715 OFFCURVE",
"651 715 CURVE SMOOTH",
"334 715 OFFCURVE",
"60 546 OFFCURVE",
"60 345 CURVE SMOOTH",
"60 143 OFFCURVE",
"334 -15 OFFCURVE",
"651 -15 CURVE SMOOTH"
);
},
{
closed = 1;
nodes = (
"450 20 OFFCURVE",
"350 185 OFFCURVE",
"350 350 CURVE SMOOTH",
"350 515 OFFCURVE",
"450 680 OFFCURVE",
"651 680 CURVE SMOOTH",
"849 680 OFFCURVE",
"949 514 OFFCURVE",
"949 349 CURVE SMOOTH",
"949 184 OFFCURVE",
"850 20 OFFCURVE",
"651 20 CURVE SMOOTH"
);
}
);
width = 1299;
}
);
leftKerningGroup = O;
rightKerningGroup = O;
unicode = 004F;
},
{
glyphname = Oslash;
lastChange = "2020-01-08 15:24:02 +0000";
layers = (
{
components = (
{
name = O;
}
);
layerId = "ECEC25EE-2268-427F-924A-A8A033D1E43A";
paths = (
{
closed = 1;
nodes = (
"135 -58 LINE",
"156 -58 LINE",
"570 764 LINE",
"551 766 LINE"
);
}
);
width = 699;
},
{
components = (
{
name = O;
}
);
layerId = "B6803316-6B37-45A2-910F-F0CA711B465A";
paths = (
{
closed = 1;
nodes = (
"135 -58 LINE",
"166 -58 LINE",
"580 764 LINE",
"551 766 LINE"
);
}
);
width = 663;
},
{
components = (
{
name = O;
}
);
layerId = "52EA2D2A-A4E3-47AA-B963-53B6A9E26FA1";
paths = (
{
closed = 1;
nodes = (
"125 -58 LINE",
"166 -58 LINE",
"580 764 LINE",
"541 766 LINE"
);
}
);
width = 647;
},
{
components = (
{
name = O;
}
);
layerId = "C70D92E6-6044-4AAB-ADF3-B84826DC9CB7";
paths = (
{
closed = 1;
nodes = (
"135 -58 LINE",
"162 -58 LINE",
"1088 764 LINE",
"1063 766 LINE"
);
}
);
width = 1325;
},
{
components = (
{
name = O;
}
);
layerId = "1127FDDC-7967-4E0A-BDB2-81E1CCE90981";
paths = (
{
closed = 1;
nodes = (
"135 -58 LINE",
"177 -58 LINE",
"1103 764 LINE",
"1063 766 LINE"
);
}
);
width = 1311;
},
{
components = (
{
name = O;
}
);
layerId = "92782D03-6C32-4A0E-AEF4-B0D65DFAA275";
paths = (
{
closed = 1;
nodes = (
"135 -58 LINE",
"192 -58 LINE",
"1118 764 LINE",
"1063 766 LINE"
);
}
);
width = 1267;
}
);
leftKerningGroup = O;
rightKerningGroup = O;
unicode = 00D8;
},
{
glyphname = OE;
lastChange = "2019-05-19 17:08:18 +0000";
layers = (
{
layerId = "B6803316-6B37-45A2-910F-F0CA711B465A";
paths = (
{
closed = 1;
nodes = (
"717 675 OFFCURVE",
"760 574 OFFCURVE",
"767 475 CURVE",
"777 475 LINE",
"777 700 LINE",
"315 700 LINE SMOOTH",
"163 700 OFFCURVE",
"60 539 OFFCURVE",
"60 345 CURVE SMOOTH",
"60 150 OFFCURVE",
"163 0 OFFCURVE",
"315 0 CURVE SMOOTH",
"777 0 LINE",
"777 225 LINE",
"767 225 LINE",
"760 126 OFFCURVE",
"717 25 OFFCURVE",
"624 25 CURVE SMOOTH",
"515 25 LINE",
"515 475 LINE",
"524 475 LINE SMOOTH",
"595 475 OFFCURVE",
"675 381 OFFCURVE",
"704 307 CURVE",
"714 310 LINE",
"609 620 LINE",
"599 617 LINE",
"621 536 OFFCURVE",
"604 500 OFFCURVE",
"524 500 CURVE SMOOTH",
"515 500 LINE",
"515 675 LINE",
"624 675 LINE SMOOTH"
);
},
{
closed = 1;
nodes = (
"415 55 OFFCURVE",
"411 25 OFFCURVE",
"378 25 CURVE SMOOTH",
"332 25 LINE SMOOTH",
"208 25 OFFCURVE",
"170 140 OFFCURVE",
"170 345 CURVE SMOOTH",
"170 559 OFFCURVE",
"208 675 OFFCURVE",
"332 675 CURVE SMOOTH",
"378 675 LINE SMOOTH",
"411 675 OFFCURVE",
"415 645 OFFCURVE",
"415 616 CURVE SMOOTH",
"415 84 LINE SMOOTH"
);
}
);
width = 859;
},
{
layerId = "1127FDDC-7967-4E0A-BDB2-81E1CCE90981";
paths = (
{
closed = 1;
nodes = (
"1484 675 OFFCURVE",
"1543 574 OFFCURVE",
"1550 455 CURVE",
"1560 455 LINE",
"1560 700 LINE",
"659 700 LINE SMOOTH",
"292 700 OFFCURVE",
"68 546 OFFCURVE",
"68 345 CURVE SMOOTH",
"68 143 OFFCURVE",
"292 0 OFFCURVE",
"659 0 CURVE SMOOTH",
"1560 0 LINE",
"1560 245 LINE",
"1550 245 LINE",
"1543 125 OFFCURVE",
"1484 25 OFFCURVE",
"1347 25 CURVE SMOOTH",
"978 25 LINE",
"978 475 LINE",
"1137 475 LINE SMOOTH",
"1212 475 OFFCURVE",
"1279 415 OFFCURVE",
"1336 274 CURVE",
"1346 277 LINE",
"1232 620 LINE",
"1222 617 LINE",
"1240 536 OFFCURVE",
"1218 500 OFFCURVE",
"1137 500 CURVE SMOOTH",
"978 500 LINE",
"978 675 LINE",
"1347 675 LINE SMOOTH"
);
},
{
closed = 1;
nodes = (
"878 37 OFFCURVE",
"859 26 OFFCURVE",
"792 25 CURVE SMOOTH",
"659 24 LINE SMOOTH",
"331 24 OFFCURVE",
"188 150 OFFCURVE",
"188 345 CURVE SMOOTH",
"188 549 OFFCURVE",
"331 675 OFFCURVE",
"659 675 CURVE SMOOTH",
"792 674 LINE SMOOTH",
"859 674 OFFCURVE",
"878 663 OFFCURVE",
"878 576 CURVE SMOOTH",
"878 124 LINE SMOOTH"
);
}
);
width = 1663;
},
{
associatedMasterId = "1127FDDC-7967-4E0A-BDB2-81E1CCE90981";
layerId = "C46BF669-86CD-4F86-A957-95D8695CC108";
name = "Mar 4 19, 14:49";
paths = (
{
closed = 1;
nodes = (
"950 700 LINE",
"950 690 LINE",
"1033 683 OFFCURVE",
"1140 663 OFFCURVE",
"1140 576 CURVE SMOOTH",
"1140 124 LINE SMOOTH",
"1140 37 OFFCURVE",
"1034 17 OFFCURVE",
"950 10 CURVE",
"950 0 LINE",
"1822 0 LINE",
"1822 245 LINE",
"1812 245 LINE",
"1805 125 OFFCURVE",
"1746 25 OFFCURVE",
"1609 25 CURVE SMOOTH",
"1240 25 LINE",
"1240 475 LINE",
"1399 475 LINE SMOOTH",
"1474 475 OFFCURVE",
"1541 415 OFFCURVE",
"1598 274 CURVE",
"1608 277 LINE",
"1494 620 LINE",
"1484 617 LINE",
"1502 536 OFFCURVE",
"1480 500 OFFCURVE",
"1399 500 CURVE SMOOTH",
"1240 500 LINE",
"1240 675 LINE",
"1609 675 LINE SMOOTH",
"1746 675 OFFCURVE",
"1805 574 OFFCURVE",
"1812 455 CURVE",
"1822 455 LINE",
"1822 700 LINE"
);
},
{
closed = 1;
nodes = (
"986 -15 OFFCURVE",
"1239 143 OFFCURVE",
"1239 345 CURVE SMOOTH",
"1239 546 OFFCURVE",
"986 715 OFFCURVE",
"671 715 CURVE SMOOTH",
"354 715 OFFCURVE",
"80 546 OFFCURVE",
"80 345 CURVE SMOOTH",
"80 143 OFFCURVE",
"354 -15 OFFCURVE",
"671 -15 CURVE SMOOTH"
);
},
{
closed = 1;
nodes = (
"393 10 OFFCURVE",
"200 150 OFFCURVE",
"200 345 CURVE SMOOTH",
"200 549 OFFCURVE",
"393 690 OFFCURVE",
"671 690 CURVE SMOOTH",
"944 690 OFFCURVE",
"1139 549 OFFCURVE",
"1139 345 CURVE SMOOTH",
"1139 150 OFFCURVE",
"944 10 OFFCURVE",
"671 10 CURVE SMOOTH"
);
}
);
width = 1972;
},
{
layerId = "52EA2D2A-A4E3-47AA-B963-53B6A9E26FA1";
paths = (
{
closed = 1;
nodes = (
"833 675 OFFCURVE",
"856 544 OFFCURVE",
"863 455 CURVE",
"883 455 LINE",
"883 700 LINE",
"323 700 LINE SMOOTH",
"152 700 OFFCURVE",
"41 596 OFFCURVE",
"41 345 CURVE SMOOTH",
"41 93 OFFCURVE",
"152 0 OFFCURVE",
"323 0 CURVE SMOOTH",
"883 0 LINE",
"883 245 LINE",
"863 245 LINE",
"856 156 OFFCURVE",
"833 25 OFFCURVE",
"670 25 CURVE SMOOTH",
"621 25 LINE",
"621 475 LINE",
"630 475 LINE SMOOTH",
"681 475 OFFCURVE",
"757 405 OFFCURVE",
"802 307 CURVE",
"820 310 LINE",
"715 620 LINE",
"697 617 LINE",
"709 541 OFFCURVE",
"690 500 OFFCURVE",
"630 500 CURVE SMOOTH",
"621 500 LINE",
"621 675 LINE",
"670 675 LINE SMOOTH"
);
},
{
closed = 1;
nodes = (
"401 41 OFFCURVE",
"367 35 OFFCURVE",
"341 35 CURVE SMOOTH",
"323 35 LINE SMOOTH",
"280 35 OFFCURVE",
"266 74 OFFCURVE",
"266 364 CURVE SMOOTH",
"266 630 OFFCURVE",
"278 665 OFFCURVE",
"323 665 CURVE SMOOTH",
"341 665 LINE SMOOTH",
"367 665 OFFCURVE",
"401 659 OFFCURVE",
"401 601 CURVE SMOOTH",
"401 99 LINE SMOOTH"
);
}
);
width = 945;
},
{
layerId = "ECEC25EE-2268-427F-924A-A8A033D1E43A";
paths = (
{
closed = 1;
nodes = (
"753 685 OFFCURVE",
"776 635 OFFCURVE",
"783 485 CURVE",
"793 485 LINE",
"793 700 LINE",
"349 700 LINE SMOOTH",
"188 700 OFFCURVE",
"77 546 OFFCURVE",
"77 345 CURVE SMOOTH",
"77 143 OFFCURVE",
"188 0 OFFCURVE",
"349 0 CURVE SMOOTH",
"793 0 LINE",
"793 214 LINE",
"783 214 LINE",
"777 76 OFFCURVE",
"757 23 OFFCURVE",
"666 15 CURVE",
"476 15 LINE",
"476 485 LINE",
"485 485 LINE SMOOTH",
"626 485 OFFCURVE",
"651 478 OFFCURVE",
"720 307 CURVE",
"730 310 LINE",
"625 620 LINE",
"615 617 LINE",
"642 500 OFFCURVE",
"625 500 OFFCURVE",
"485 500 CURVE SMOOTH",
"476 500 LINE",
"476 685 LINE",
"640 685 LINE SMOOTH"
);
},
{
closed = 1;
nodes = (
"431 26 OFFCURVE",
"408 15 OFFCURVE",
"361 15 CURVE SMOOTH",
"349 15 LINE SMOOTH",
"238 15 OFFCURVE",
"127 115 OFFCURVE",
"127 345 CURVE SMOOTH",
"127 582 OFFCURVE",
"238 685 OFFCURVE",
"348 685 CURVE SMOOTH",
"361 685 LINE SMOOTH",
"409 685 OFFCURVE",
"431 674 OFFCURVE",
"431 626 CURVE SMOOTH",
"431 74 LINE SMOOTH"
);
}
);
width = 888;
},
{
layerId = "92782D03-6C32-4A0E-AEF4-B0D65DFAA275";
paths = (
{
closed = 1;
nodes = (
"1531 665 OFFCURVE",
"1610 574 OFFCURVE",
"1617 455 CURVE",
"1637 455 LINE",
"1637 700 LINE",
"634 700 LINE SMOOTH",
"317 700 OFFCURVE",
"43 576 OFFCURVE",
"43 345 CURVE SMOOTH",
"43 113 OFFCURVE",
"317 0 OFFCURVE",
"634 0 CURVE SMOOTH",
"1637 0 LINE",
"1637 245 LINE",
"1617 245 LINE",
"1610 125 OFFCURVE",
"1531 35 OFFCURVE",
"1364 35 CURVE SMOOTH",
"1135 35 LINE",
"1135 465 LINE",
"1202 465 LINE SMOOTH",
"1279 465 OFFCURVE",
"1351 395 OFFCURVE",
"1405 274 CURVE",
"1423 277 LINE",
"1309 620 LINE",
"1291 617 LINE",
"1301 545 OFFCURVE",
"1285 500 OFFCURVE",
"1202 500 CURVE SMOOTH",
"1135 500 LINE",
"1135 665 LINE",
"1364 665 LINE SMOOTH"
);
},
{
closed = 1;
nodes = (
"855 35 OFFCURVE",
"792 35 OFFCURVE",
"705 35 CURVE SMOOTH",
"634 35 LINE SMOOTH",
"433 35 OFFCURVE",
"333 185 OFFCURVE",
"333 350 CURVE SMOOTH",
"333 515 OFFCURVE",
"433 665 OFFCURVE",
"634 665 CURVE SMOOTH",
"705 665 LINE SMOOTH",
"792 665 OFFCURVE",
"855 665 OFFCURVE",
"855 565 CURVE SMOOTH",
"855 135 LINE SMOOTH"
);
}
);
width = 1715;
},
{
layerId = "C70D92E6-6044-4AAB-ADF3-B84826DC9CB7";
paths = (
{
closed = 1;
nodes = (
"1523 685 OFFCURVE",
"1546 605 OFFCURVE",
"1553 455 CURVE",
"1563 455 LINE",
"1563 700 LINE",
"665 700 LINE SMOOTH",
"348 700 OFFCURVE",
"74 586 OFFCURVE",
"74 345 CURVE SMOOTH",
"74 103 OFFCURVE",
"348 0 OFFCURVE",
"665 0 CURVE SMOOTH",
"1563 0 LINE",
"1563 244 LINE",
"1553 244 LINE",
"1547 106 OFFCURVE",
"1527 23 OFFCURVE",
"1436 15 CURVE",
"927 15 LINE",
"927 485 LINE",
"1148 484 LINE SMOOTH",
"1244 484 OFFCURVE",
"1270 453 OFFCURVE",
"1330 307 CURVE",
"1340 310 LINE",
"1235 620 LINE",
"1225 617 LINE",
"1248 517 OFFCURVE",
"1239 500 OFFCURVE",
"1148 500 CURVE SMOOTH",
"927 500 LINE",
"927 685 LINE",
"1410 685 LINE SMOOTH"
);
},
{
closed = 1;
nodes = (
"882 23 OFFCURVE",
"809 15 OFFCURVE",
"732 15 CURVE SMOOTH",
"665 15 LINE SMOOTH",
"303 15 OFFCURVE",
"124 154 OFFCURVE",
"124 349 CURVE SMOOTH",
"124 544 OFFCURVE",
"305 685 OFFCURVE",
"665 685 CURVE SMOOTH",
"732 685 LINE SMOOTH",
"809 685 OFFCURVE",
"882 677 OFFCURVE",
"882 591 CURVE SMOOTH",
"882 109 LINE SMOOTH"
);
}
);
width = 1671;
},
{
associatedMasterId = "ECEC25EE-2268-427F-924A-A8A033D1E43A";
layerId = "DD3C8730-8108-4069-B68D-87AA59E4E96E";
name = "Apr 24 19, 18:04";
paths = (
{
closed = 1;
nodes = (
"721 685 OFFCURVE",
"744 635 OFFCURVE",
"751 485 CURVE",
"761 485 LINE",
"761 700 LINE",
"319 700 LINE",
"319 685 LINE",
"365 678 OFFCURVE",
"399 674 OFFCURVE",
"399 626 CURVE SMOOTH",
"399 74 LINE SMOOTH",
"399 26 OFFCURVE",
"364 22 OFFCURVE",
"319 15 CURVE",
"319 0 LINE",
"761 0 LINE",
"761 214 LINE",
"751 214 LINE",
"745 76 OFFCURVE",
"725 23 OFFCURVE",
"634 15 CURVE",
"444 15 LINE",
"444 485 LINE",
"453 485 LINE SMOOTH",
"594 485 OFFCURVE",
"619 478 OFFCURVE",
"688 307 CURVE",
"698 310 LINE",
"593 620 LINE",
"583 617 LINE",
"610 500 OFFCURVE",
"593 500 OFFCURVE",
"453 500 CURVE SMOOTH",
"444 500 LINE",
"444 685 LINE",
"608 685 LINE SMOOTH"
);
},
{
closed = 1;
nodes = (
"358 700 LINE",
"317 700 LINE",
"156 700 OFFCURVE",
"45 546 OFFCURVE",
"45 345 CURVE SMOOTH",
"45 143 OFFCURVE",
"156 0 OFFCURVE",
"317 0 CURVE",
"358 0 LINE",
"358 15 LINE",
"317 15 LINE",
"206 15 OFFCURVE",
"95 115 OFFCURVE",
"95 345 CURVE SMOOTH",
"95 582 OFFCURVE",
"206 685 OFFCURVE",
"316 685 CURVE",
"358 685 LINE"
);
}
);
width = 811;
},
{
associatedMasterId = "52EA2D2A-A4E3-47AA-B963-53B6A9E26FA1";
layerId = "A6B5D897-268F-4487-89BE-F8C458401729";
name = "Apr 24 19, 18:08";
paths = (
{
closed = 1;
nodes = (
"847 675 OFFCURVE",
"870 544 OFFCURVE",
"877 455 CURVE",
"897 455 LINE",
"897 700 LINE",
"355 700 LINE",
"355 665 LINE",
"380 664 OFFCURVE",
"415 659 OFFCURVE",
"415 601 CURVE SMOOTH",
"415 99 LINE SMOOTH",
"415 41 OFFCURVE",
"380 36 OFFCURVE",
"355 35 CURVE",
"355 0 LINE",
"897 0 LINE",
"897 245 LINE",
"877 245 LINE",
"870 156 OFFCURVE",
"847 25 OFFCURVE",
"684 25 CURVE SMOOTH",
"635 25 LINE",
"635 475 LINE",
"644 475 LINE SMOOTH",
"695 475 OFFCURVE",
"771 405 OFFCURVE",
"816 307 CURVE",
"834 310 LINE",
"729 620 LINE",
"711 617 LINE",
"723 541 OFFCURVE",
"704 500 OFFCURVE",
"644 500 CURVE SMOOTH",
"635 500 LINE",
"635 675 LINE",
"684 675 LINE SMOOTH"
);
},
{
closed = 1;
nodes = (
"356 700 LINE",
"307 700 LINE",
"136 700 OFFCURVE",
"25 596 OFFCURVE",
"25 345 CURVE SMOOTH",
"25 93 OFFCURVE",
"136 0 OFFCURVE",
"307 0 CURVE",
"356 0 LINE",
"356 35 LINE",
"307 35 LINE",
"264 35 OFFCURVE",
"250 74 OFFCURVE",
"250 364 CURVE SMOOTH",
"250 630 OFFCURVE",
"262 665 OFFCURVE",
"307 665 CURVE",
"356 665 LINE"
);
}
);
width = 952;
},
{
associatedMasterId = "C70D92E6-6044-4AAB-ADF3-B84826DC9CB7";
layerId = "78A3D6FB-37FA-40B4-956E-34FEB951A975";
name = "Apr 24 19, 18:14";
paths = (
{
closed = 1;
nodes = (
"1539 685 OFFCURVE",
"1562 605 OFFCURVE",
"1569 455 CURVE",
"1579 455 LINE",
"1579 700 LINE",
"748 700 LINE",
"748 685 LINE",
"824 678 OFFCURVE",
"898 677 OFFCURVE",
"898 591 CURVE SMOOTH",
"898 109 LINE SMOOTH",
"898 23 OFFCURVE",
"824 22 OFFCURVE",
"748 15 CURVE",
"748 0 LINE",
"1579 0 LINE",
"1579 244 LINE",
"1569 244 LINE",
"1563 106 OFFCURVE",
"1543 23 OFFCURVE",
"1452 15 CURVE",
"943 15 LINE",
"943 485 LINE",
"1164 484 LINE SMOOTH",
"1260 484 OFFCURVE",
"1286 453 OFFCURVE",
"1346 307 CURVE",
"1356 310 LINE",
"1251 620 LINE",
"1241 617 LINE",
"1264 517 OFFCURVE",
"1255 500 OFFCURVE",
"1164 500 CURVE SMOOTH",
"943 500 LINE",
"943 685 LINE",
"1426 685 LINE SMOOTH"
);
},
{
closed = 1;
nodes = (
"749 700 LINE",
"681 700 LINE",
"364 700 OFFCURVE",
"90 566 OFFCURVE",
"90 345 CURVE SMOOTH",
"90 123 OFFCURVE",
"364 0 OFFCURVE",
"681 0 CURVE",
"749 0 LINE",
"749 15 LINE",
"681 15 LINE",
"319 15 OFFCURVE",
"140 174 OFFCURVE",
"140 349 CURVE SMOOTH",
"140 524 OFFCURVE",
"321 685 OFFCURVE",
"681 685 CURVE",
"749 685 LINE"
);
}
);
width = 1729;
},
{
associatedMasterId = "92782D03-6C32-4A0E-AEF4-B0D65DFAA275";
layerId = "CD29EF10-8520-443E-A412-DC401004795C";
name = "Apr 24 19, 18:17";
paths = (
{
closed = 1;
nodes = (
"1528 665 OFFCURVE",
"1607 574 OFFCURVE",
"1614 455 CURVE",
"1634 455 LINE",
"1634 700 LINE",
"702 700 LINE",
"702 665 LINE",
"788 658 OFFCURVE",
"852 665 OFFCURVE",
"852 565 CURVE SMOOTH",
"852 135 LINE SMOOTH",
"852 35 OFFCURVE",
"788 42 OFFCURVE",
"702 35 CURVE",
"702 0 LINE",
"1634 0 LINE",
"1634 245 LINE",
"1614 245 LINE",
"1607 125 OFFCURVE",
"1528 35 OFFCURVE",
"1361 35 CURVE SMOOTH",
"1132 35 LINE",
"1132 465 LINE",
"1199 465 LINE SMOOTH",
"1276 465 OFFCURVE",
"1348 395 OFFCURVE",
"1402 274 CURVE",
"1420 277 LINE",
"1306 620 LINE",
"1288 617 LINE",
"1298 545 OFFCURVE",
"1282 500 OFFCURVE",
"1199 500 CURVE SMOOTH",
"1132 500 LINE",
"1132 665 LINE",
"1361 665 LINE SMOOTH"
);
},
{
closed = 1;
nodes = (
"712 700 LINE",
"631 700 LINE",
"314 700 OFFCURVE",
"40 576 OFFCURVE",
"40 345 CURVE SMOOTH",
"40 113 OFFCURVE",
"314 0 OFFCURVE",
"631 0 CURVE",
"712 0 LINE",
"712 35 LINE",
"631 35 LINE",
"430 35 OFFCURVE",
"330 185 OFFCURVE",
"330 350 CURVE SMOOTH",
"330 515 OFFCURVE",
"430 665 OFFCURVE",
"631 665 CURVE",
"712 665 LINE"
);
}
);
width = 1684;
}
);
leftKerningGroup = O;
rightKerningGroup = E;
unicode = 0152;
},
{
glyphname = P;
lastChange = "2020-01-08 17:28:48 +0000";
layers = (
{
layerId = "1127FDDC-7967-4E0A-BDB2-81E1CCE90981";
paths = (
{
closed = 1;
nodes = (
"49 700 LINE",
"49 690 LINE",
"133 683 OFFCURVE",
"239 663 OFFCURVE",
"239 576 CURVE SMOOTH",
"239 124 LINE SMOOTH",
"239 37 OFFCURVE",
"133 17 OFFCURVE",
"49 10 CURVE",
"49 0 LINE",
"529 0 LINE",
"529 10 LINE",
"445 17 OFFCURVE",
"339 37 OFFCURVE",
"339 124 CURVE SMOOTH",
"339 411 LINE",
"762 411 LINE SMOOTH",
"943 411 OFFCURVE",
"1009 484 OFFCURVE",
"1009 555 CURVE SMOOTH",
"1009 626 OFFCURVE",
"942 700 OFFCURVE",
"762 700 CURVE SMOOTH"
);
},
{
closed = 1;
nodes = (
"856 675 OFFCURVE",
"899 610 OFFCURVE",
"899 554 CURVE SMOOTH",
"899 498 OFFCURVE",
"856 436 OFFCURVE",
"715 436 CURVE SMOOTH",
"339 436 LINE",
"339 675 LINE",
"715 675 LINE SMOOTH"
);
}
);
width = 1066;
},
{
layerId = "B6803316-6B37-45A2-910F-F0CA711B465A";
paths = (
{
closed = 1;
nodes = (
"25 700 LINE",
"25 690 LINE",
"90 683 OFFCURVE",
"125 664 OFFCURVE",
"125 616 CURVE SMOOTH",
"125 84 LINE SMOOTH",
"125 36 OFFCURVE",
"90 17 OFFCURVE",
"25 10 CURVE",
"25 0 LINE",
"320 0 LINE",
"320 10 LINE",
"255 17 OFFCURVE",
"220 36 OFFCURVE",
"220 84 CURVE SMOOTH",
"220 452 LINE",
"270 452 LINE SMOOTH",
"399 452 OFFCURVE",
"485 496 OFFCURVE",
"485 576 CURVE SMOOTH",
"485 651 OFFCURVE",
"415 700 OFFCURVE",
"316 700 CURVE SMOOTH"
);
},
{
closed = 1;
nodes = (
"356 675 OFFCURVE",
"385 622 OFFCURVE",
"385 575 CURVE SMOOTH",
"385 529 OFFCURVE",
"356 477 OFFCURVE",
"268 477 CURVE SMOOTH",
"220 477 LINE",
"220 675 LINE",
"268 675 LINE SMOOTH"
);
}
);
width = 517;
},
{
layerId = "ECEC25EE-2268-427F-924A-A8A033D1E43A";
paths = (
{
closed = 1;
nodes = (
"44 700 LINE",
"44 690 LINE",
"120 683 OFFCURVE",
"144 679 OFFCURVE",
"144 631 CURVE SMOOTH",
"144 69 LINE SMOOTH",
"144 21 OFFCURVE",
"119 17 OFFCURVE",
"44 10 CURVE",
"44 0 LINE",
"289 0 LINE",
"289 10 LINE",
"224 17 OFFCURVE",
"189 21 OFFCURVE",
"189 69 CURVE SMOOTH",
"189 485 LINE",
"336 485 LINE SMOOTH",
"446 485 OFFCURVE",
"501 538 OFFCURVE",
"501 592 CURVE SMOOTH",
"501 646 OFFCURVE",
"445 700 OFFCURVE",
"336 700 CURVE SMOOTH"
);
},
{
closed = 1;
nodes = (
"410 685 OFFCURVE",
"454 636 OFFCURVE",
"454 589 CURVE SMOOTH",
"454 544 OFFCURVE",
"410 500 OFFCURVE",
"306 500 CURVE SMOOTH",
"189 500 LINE",
"189 685 LINE",
"296 685 LINE SMOOTH"
);
}
);
width = 551;
},
{
layerId = "92782D03-6C32-4A0E-AEF4-B0D65DFAA275";
paths = (
{
closed = 1;
nodes = (
"27 700 LINE",
"27 676 LINE",
"113 669 OFFCURVE",
"177 676 OFFCURVE",
"177 576 CURVE SMOOTH",
"177 124 LINE SMOOTH",
"177 24 OFFCURVE",
"113 31 OFFCURVE",
"27 24 CURVE",
"27 0 LINE",
"607 0 LINE",
"607 24 LINE",
"533 31 OFFCURVE",
"457 22 OFFCURVE",
"457 124 CURVE SMOOTH",
"457 401 LINE",
"780 401 LINE SMOOTH",
"926 401 OFFCURVE",
"999 475 OFFCURVE",
"999 550 CURVE SMOOTH",
"999 625 OFFCURVE",
"925 700 OFFCURVE",
"780 700 CURVE SMOOTH"
);
},
{
closed = 1;
nodes = (
"662 665 OFFCURVE",
"715 607 OFFCURVE",
"715 549 CURVE SMOOTH",
"715 492 OFFCURVE",
"664 436 OFFCURVE",
"558 436 CURVE SMOOTH",
"457 436 LINE",
"457 665 LINE",
"558 665 LINE SMOOTH"
);
}
);
width = 1032;
},
{
layerId = "C70D92E6-6044-4AAB-ADF3-B84826DC9CB7";
paths = (
{
closed = 1;
nodes = (
"54 700 LINE",
"54 690 LINE",
"150 683 OFFCURVE",
"224 682 OFFCURVE",
"224 596 CURVE SMOOTH",
"224 104 LINE SMOOTH",
"224 18 OFFCURVE",
"150 17 OFFCURVE",
"54 10 CURVE",
"54 0 LINE",
"439 0 LINE",
"439 10 LINE",
"345 17 OFFCURVE",
"269 16 OFFCURVE",
"269 104 CURVE SMOOTH",
"269 421 LINE",
"780 421 LINE SMOOTH",
"917 421 OFFCURVE",
"984 469 OFFCURVE",
"984 555 CURVE SMOOTH",
"984 626 OFFCURVE",
"919 700 OFFCURVE",
"765 700 CURVE SMOOTH"
);
},
{
closed = 1;
nodes = (
"893 685 OFFCURVE",
"934 610 OFFCURVE",
"934 554 CURVE SMOOTH",
"934 498 OFFCURVE",
"893 436 OFFCURVE",
"778 436 CURVE SMOOTH",
"269 436 LINE",
"269 685 LINE",
"778 685 LINE SMOOTH"
);
}
);
width = 1047;
},
{
associatedMasterId = "B6803316-6B37-45A2-910F-F0CA711B465A";
layerId = "11EF86AE-5994-4D12-8FFA-F80974FF4E4F";
name = "Mar 28 19, 13:52";
paths = (
{
closed = 1;
nodes = (
"290 452 LINE SMOOTH",
"419 452 OFFCURVE",
"505 496 OFFCURVE",
"505 576 CURVE SMOOTH",
"505 651 OFFCURVE",
"435 700 OFFCURVE",
"336 700 CURVE SMOOTH",
"224 700 LINE",
"224 675 LINE",
"288 675 LINE SMOOTH",
"376 675 OFFCURVE",
"400 622 OFFCURVE",
"400 575 CURVE SMOOTH",
"400 529 OFFCURVE",
"376 477 OFFCURVE",
"288 477 CURVE SMOOTH",
"214 477 LINE",
"214 452 LINE"
);
},
{
closed = 1;
nodes = (
"140 0 LINE",
"140 84 LINE",
"140 36 OFFCURVE",
"105 17 OFFCURVE",
"40 10 CURVE",
"40 0 LINE"
);
},
{
closed = 1;
nodes = (
"340 0 LINE",
"340 10 LINE",
"275 17 OFFCURVE",
"240 36 OFFCURVE",
"240 84 CURVE",
"240 0 LINE"
);
},
{
closed = 1;
nodes = (
"240 0 LINE",
"240 700 LINE",
"140 700 LINE",
"140 0 LINE"
);
},
{
closed = 1;
nodes = (
"140 700 LINE",
"40 700 LINE",
"40 690 LINE",
"105 683 OFFCURVE",
"140 664 OFFCURVE",
"140 616 CURVE"
);
}
);
width = 535;
},
{
associatedMasterId = "1127FDDC-7967-4E0A-BDB2-81E1CCE90981";
layerId = "3BB4028D-D402-43BE-8615-C7976DC37C5C";
name = "Mar 28 19, 13:54";
paths = (
{
closed = 1;
nodes = (
"753 411 LINE SMOOTH",
"934 411 OFFCURVE",
"1000 484 OFFCURVE",
"1000 555 CURVE SMOOTH",
"1000 626 OFFCURVE",
"933 700 OFFCURVE",
"753 700 CURVE SMOOTH",
"314 700 LINE",
"314 675 LINE",
"706 675 LINE SMOOTH",
"847 675 OFFCURVE",
"890 610 OFFCURVE",
"890 554 CURVE SMOOTH",
"890 498 OFFCURVE",
"847 436 OFFCURVE",
"706 436 CURVE SMOOTH",
"304 436 LINE",
"304 411 LINE"
);
},
{
closed = 1;
nodes = (
"230 0 LINE",
"230 124 LINE",
"230 37 OFFCURVE",
"124 17 OFFCURVE",
"40 10 CURVE",
"40 0 LINE"
);
},
{
closed = 1;
nodes = (
"520 0 LINE",
"520 10 LINE",
"436 17 OFFCURVE",
"330 37 OFFCURVE",
"330 124 CURVE",
"330 0 LINE"
);
},
{
closed = 1;
nodes = (
"330 0 LINE",
"330 700 LINE",
"230 700 LINE",
"230 0 LINE"
);
},
{
closed = 1;
nodes = (
"230 700 LINE",
"40 700 LINE",
"40 690 LINE",
"124 683 OFFCURVE",
"230 663 OFFCURVE",
"230 576 CURVE"
);
}
);
width = 1010;
},
{
associatedMasterId = "52EA2D2A-A4E3-47AA-B963-53B6A9E26FA1";
layerId = "FD2AB939-C3F7-4FD7-977D-CEE492DBE84A";
name = "Mar 31 19, 16:02";
paths = (
{
closed = 1;
nodes = (
"355 0 LINE",
"355 10 LINE",
"330 17 OFFCURVE",
"295 26 OFFCURVE",
"295 84 CURVE SMOOTH",
"295 665 LINE",
"314 665 LINE SMOOTH",
"366 665 OFFCURVE",
"391 615 OFFCURVE",
"391 564 CURVE SMOOTH",
"391 512 OFFCURVE",
"364.99 460 OFFCURVE",
"314 460 CURVE SMOOTH",
"286 460 LINE",
"286 424 LINE",
"435 424 LINE SMOOTH",
"557 424 OFFCURVE",
"617 493 OFFCURVE",
"617 561 CURVE SMOOTH",
"617 631 OFFCURVE",
"556 700 OFFCURVE",
"435 700 CURVE SMOOTH",
"15 700 LINE",
"15 690 LINE",
"40 683 OFFCURVE",
"75 674 OFFCURVE",
"75 616 CURVE SMOOTH",
"75 84 LINE SMOOTH",
"75 26 OFFCURVE",
"40 17 OFFCURVE",
"15 10 CURVE",
"15 0 LINE"
);
}
);
width = 617;
},
{
associatedMasterId = "52EA2D2A-A4E3-47AA-B963-53B6A9E26FA1";
layerId = "8414D971-B948-42C9-B6F1-F6868107A1CD";
name = "Mar 31 19, 16:02";
paths = (
{
closed = 1;
nodes = (
"15 700 LINE",
"15 690 LINE",
"40 683 OFFCURVE",
"75 674 OFFCURVE",
"75 616 CURVE SMOOTH",
"75 84 LINE SMOOTH",
"75 26 OFFCURVE",
"40 17 OFFCURVE",
"15 10 CURVE",
"15 0 LINE",
"355 0 LINE",
"355 10 LINE",
"330 17 OFFCURVE",
"295 26 OFFCURVE",
"295 84 CURVE SMOOTH",
"295 464 LINE",
"435 464 LINE SMOOTH",
"556 464 OFFCURVE",
"617 523 OFFCURVE",
"617 581 CURVE SMOOTH",
"617 641 OFFCURVE",
"555 700 OFFCURVE",
"435 700 CURVE SMOOTH"
);
},
{
closed = 1;
nodes = (
"366 665 OFFCURVE",
"391 625 OFFCURVE",
"391 584 CURVE SMOOTH",
"391 542 OFFCURVE",
"365 500 OFFCURVE",
"314 500 CURVE SMOOTH",
"295 500 LINE",
"295 665 LINE",
"314 665 LINE SMOOTH"
);
}
);
width = 617;
},
{
layerId = "52EA2D2A-A4E3-47AA-B963-53B6A9E26FA1";
paths = (
{
closed = 1;
nodes = (
"25 700 LINE",
"25 680 LINE",
"50 679 OFFCURVE",
"85 674 OFFCURVE",
"85 616 CURVE SMOOTH",
"85 84 LINE SMOOTH",
"85 26 OFFCURVE",
"50 27 OFFCURVE",
"25 20 CURVE",
"25 0 LINE",
"365 0 LINE",
"365 20 LINE",
"340 21 OFFCURVE",
"305 26 OFFCURVE",
"305 84 CURVE SMOOTH",
"305 424 LINE",
"445 424 LINE SMOOTH",
"567 424 OFFCURVE",
"627 493 OFFCURVE",
"627 561 CURVE SMOOTH",
"627 631 OFFCURVE",
"566 700 OFFCURVE",
"445 700 CURVE SMOOTH"
);
},
{
closed = 1;
nodes = (
"376 665 OFFCURVE",
"401 615 OFFCURVE",
"401 564 CURVE SMOOTH",
"401 512 OFFCURVE",
"375 460 OFFCURVE",
"324 460 CURVE SMOOTH",
"305 460 LINE",
"305 665 LINE",
"324 665 LINE SMOOTH"
);
}
);
width = 640;
}
);
leftKerningGroup = H;
rightKerningGroup = P;
unicode = 0050;
},
{
glyphname = Thorn;
lastChange = "2020-01-08 18:10:28 +0000";
layers = (
{
layerId = "ECEC25EE-2268-427F-924A-A8A033D1E43A";
paths = (
{
closed = 1;
nodes = (
"189 630 LINE",
"189 678 OFFCURVE",
"223 682 OFFCURVE",
"289 689 CURVE",
"289 699 LINE",
"44 699 LINE",
"44 689 LINE",
"120 682 OFFCURVE",
"144 678 OFFCURVE",
"144 630 CURVE SMOOTH",
"144 68 LINE SMOOTH",
"144 20 OFFCURVE",
"119 16 OFFCURVE",
"44 9 CURVE",
"44 -1 LINE",
"289 -1 LINE",
"289 9 LINE",
"224 16 OFFCURVE",
"189 20 OFFCURVE",
"189 68 CURVE"
);
},
{
closed = 1;
nodes = (
"301 139 LINE SMOOTH",
"495 139 OFFCURVE",
"573 244 OFFCURVE",
"573 356 CURVE SMOOTH",
"573 468 OFFCURVE",
"492 569 OFFCURVE",
"301 569 CURVE SMOOTH",
"148 569 LINE",
"148 554 LINE",
"268 554 LINE SMOOTH",
"452 554 OFFCURVE",
"528 468 OFFCURVE",
"528 354 CURVE SMOOTH",
"528 240 OFFCURVE",
"452 154 OFFCURVE",
"268 154 CURVE SMOOTH",
"148 154 LINE",
"148 139 LINE"
);
}
);
width = 628;
},
{
layerId = "B6803316-6B37-45A2-910F-F0CA711B465A";
paths = (
{
closed = 1;
nodes = (
"220 616 LINE SMOOTH",
"220 666 OFFCURVE",
"255 685 OFFCURVE",
"320 690 CURVE",
"320 700 LINE",
"25 700 LINE",
"25 690 LINE",
"93 684 OFFCURVE",
"127 665 OFFCURVE",
"125 616 CURVE SMOOTH",
"125 84 LINE SMOOTH",
"125 36 OFFCURVE",
"90 17 OFFCURVE",
"25 10 CURVE",
"25 0 LINE",
"320 0 LINE",
"320 10 LINE",
"255 17 OFFCURVE",
"220 36 OFFCURVE",
"220 84 CURVE SMOOTH"
);
},
{
closed = 1;
nodes = (
"301 139 LINE SMOOTH",
"492 139 OFFCURVE",
"588 247 OFFCURVE",
"588 355 CURVE SMOOTH",
"588 462 OFFCURVE",
"492.997 569 OFFCURVE",
"301 569 CURVE SMOOTH",
"148 569 LINE",
"148 544 LINE",
"268 544 LINE SMOOTH",
"415 544 OFFCURVE",
"488 449 OFFCURVE",
"488 354 CURVE SMOOTH",
"488 259 OFFCURVE",
"415 164 OFFCURVE",
"268 164 CURVE SMOOTH",
"148 164 LINE",
"148 139 LINE"
);
}
);
width = 630;
},
{
layerId = "52EA2D2A-A4E3-47AA-B963-53B6A9E26FA1";
paths = (
{
closed = 1;
nodes = (
"305 616 LINE SMOOTH",
"305 674 OFFCURVE",
"340 679 OFFCURVE",
"365 680 CURVE",
"365 700 LINE",
"25 700 LINE",
"25 680 LINE",
"50 679 OFFCURVE",
"85 674 OFFCURVE",
"85 616 CURVE SMOOTH",
"85 84 LINE SMOOTH",
"85 26 OFFCURVE",
"50 21 OFFCURVE",
"25 20 CURVE",
"25 0 LINE",
"365 0 LINE",
"365 20 LINE",
"340 21 OFFCURVE",
"305 26 OFFCURVE",
"305 84 CURVE SMOOTH"
);
},
{
closed = 1;
nodes = (
"401 134 LINE SMOOTH",
"614 134 OFFCURVE",
"720 244 OFFCURVE",
"720 354 CURVE SMOOTH",
"720 464 OFFCURVE",
"614 574 OFFCURVE",
"401 574 CURVE SMOOTH",
"248 574 LINE",
"248 539 LINE",
"318 539 LINE SMOOTH",
"436 539 OFFCURVE",
"495 446 OFFCURVE",
"495 354 CURVE SMOOTH",
"495 261 OFFCURVE",
"436 169 OFFCURVE",
"318 169 CURVE SMOOTH",
"248 169 LINE",
"248 134 LINE"
);
}
);
width = 755;
},
{
layerId = "C70D92E6-6044-4AAB-ADF3-B84826DC9CB7";
paths = (
{
closed = 1;
nodes = (
"269 596 LINE SMOOTH",
"269 682 OFFCURVE",
"345 683 OFFCURVE",
"439 690 CURVE",
"439 700 LINE",
"54 700 LINE",
"54 690 LINE",
"150 683 OFFCURVE",
"224 682 OFFCURVE",
"224 596 CURVE SMOOTH",
"224 104 LINE SMOOTH",
"224 16 OFFCURVE",
"150 17 OFFCURVE",
"54 10 CURVE",
"54 0 LINE",
"439 0 LINE",
"439 10 LINE",
"345 17 OFFCURVE",
"269 16 OFFCURVE",
"269 104 CURVE SMOOTH"
);
},
{
closed = 1;
nodes = (
"711 139 LINE SMOOTH",
"935 139 OFFCURVE",
"1013 244 OFFCURVE",
"1013 356 CURVE SMOOTH",
"1013 468 OFFCURVE",
"932 569 OFFCURVE",
"711 569 CURVE SMOOTH",
"248 569 LINE",
"248 554 LINE",
"678 554 LINE SMOOTH",
"892 554 OFFCURVE",
"968 468 OFFCURVE",
"968 354 CURVE SMOOTH",
"968 240 OFFCURVE",
"892 154 OFFCURVE",
"678 154 CURVE SMOOTH",
"248 154 LINE",
"248 139 LINE"
);
}
);
width = 1079;
},
{
layerId = "1127FDDC-7967-4E0A-BDB2-81E1CCE90981";
paths = (
{
closed = 1;
nodes = (
"339 576 LINE",
"339 663 OFFCURVE",
"445 683 OFFCURVE",
"529 690 CURVE",
"529 700 LINE",
"49 700 LINE",
"49 690 LINE",
"133 683 OFFCURVE",
"239 663 OFFCURVE",
"239 576 CURVE SMOOTH",
"239 124 LINE SMOOTH",
"239 37 OFFCURVE",
"133 18 OFFCURVE",
"49 10 CURVE",
"49 0 LINE",
"529 0 LINE",
"529 10 LINE",
"445 17 OFFCURVE",
"339 37 OFFCURVE",
"339 124 CURVE"
);
},
{
closed = 1;
nodes = (
"751 139 LINE SMOOTH",
"967 139 OFFCURVE",
"1053 244 OFFCURVE",
"1053 356 CURVE SMOOTH",
"1053 468 OFFCURVE",
"964 569 OFFCURVE",
"751 569 CURVE SMOOTH",
"288 569 LINE",
"288 544 LINE",
"673 544 LINE SMOOTH",
"867 544 OFFCURVE",
"943 468 OFFCURVE",
"943 354 CURVE SMOOTH",
"943 240 OFFCURVE",
"867 164 OFFCURVE",
"673 164 CURVE SMOOTH",
"288 164 LINE",
"288 139 LINE"
);
}
);
width = 1108;
},
{
layerId = "92782D03-6C32-4A0E-AEF4-B0D65DFAA275";
paths = (
{
closed = 1;
nodes = (
"457 576 LINE SMOOTH",
"457 678 OFFCURVE",
"533 669 OFFCURVE",
"607 676 CURVE",
"607 700 LINE",
"27 700 LINE",
"27 676 LINE",
"113 669 OFFCURVE",
"177 676 OFFCURVE",
"177 576 CURVE SMOOTH",
"177 124 LINE SMOOTH",
"177 24 OFFCURVE",
"113 31 OFFCURVE",
"27 24 CURVE",
"27 0 LINE",
"607 0 LINE",
"607 24 LINE",
"533 31 OFFCURVE",
"457 22 OFFCURVE",
"457 124 CURVE SMOOTH"
);
},
{
closed = 1;
nodes = (
"701 139 LINE SMOOTH",
"957 139 OFFCURVE",
"1043 244 OFFCURVE",
"1043 356 CURVE SMOOTH",
"1043 468 OFFCURVE",
"954 569 OFFCURVE",
"701 569 CURVE SMOOTH",
"278 569 LINE",
"278 544 LINE",
"528 544 LINE SMOOTH",
"668 544 OFFCURVE",
"758 449 OFFCURVE",
"758 354 CURVE SMOOTH",
"758 259 OFFCURVE",
"668 164 OFFCURVE",
"528 164 CURVE SMOOTH",
"278 164 LINE",
"278 139 LINE"
);
}
);
width = 1111;
}
);
leftKerningGroup = H;
leftMetricsKey = H;
rightKerningGroup = O;
unicode = 00DE;
},
